<?xml version="1.0" encoding="UTF-8"?>
<svg xmlns="http://www.w3.org/2000/svg" xmlns:xlink="http://www.w3.org/1999/xlink" version="1.2" >
<font id="Arial MT Italic">
<font-face  font-family="Arial MT" units-per-em="1000" ascent="750" descent="-250" font-style="italic" font-weight="400" font-stretch="normal" slope="-12" cap-height="750" x-height="500" underline-position="-75" underline-thickness="50" />
<missing-glyph  horiz-adv-x="278" d="" />
<glyph glyph-name="NULL" d="" />
<glyph glyph-name="CR" unicode="&#xd;" horiz-adv-x="250" d="" />
<glyph glyph-name="space" unicode="&#x20;" horiz-adv-x="278" d="M182 0 L182 0 Z " />
<glyph glyph-name="exclam" unicode="&#x21;" horiz-adv-x="278" d="M55 0 L155 0 L176 100 L76 100 L55 0 Z M111 181 L166 181 L270 557 L303 716 L196 716 L165 569 L111 181 Z " />
<glyph glyph-name="quotedbl" unicode="&#x22;" horiz-adv-x="355" d="M297 465 L351 465 L402 602 L427 719 L327 719 L302 602 L297 465 Z M125 465 L179 465 L230 602 L255 719 L155 719 L130 602 L125 465 Z " />
<glyph glyph-name="numbersign" unicode="&#x23;" horiz-adv-x="556" d="M96 -12 L170 -12 L212 196 L366 196 L323 -12 L397 -12 L439 196 L590 196 L590 268 L454 268 L490 446 L590 446 L590 518 L505 518 L547 728 L474 728 L431 518 L278 518 L320 728 L247 728 L204 518 L56 518 L56 446 L190 446 L153 268 L56 268 L56 196 L139 196 L96 -12 Z M263 446 L417 446 L380 268 L227 268 L263 446 Z " />
<glyph glyph-name="dollar" unicode="&#x24;" horiz-adv-x="556" d="M53 207 C59 106 119 15 224 -6 L205 -96 L254 -96 L271 -12 C458 -24 530 117 530 206 C530 330 414 378 358 401 L409 647 C478 623 486 566 490 538 L575 543 C571 577 558 686 424 719 L433 764 L385 764 L377 726 C206 731 137 610 137 530 C137 405 246 358 295 337 L239 67 C211 76 150 108 142 212 L53 207 Z M313 420 C274 439 225 463 225 536 C225 614 291 657 362 655 L313 420 Z M340 318 C384 298 442 273 442 197 C442 128 381 55 286 58 L340 318 Z " />
<glyph glyph-name="percent" unicode="&#x25;" horiz-adv-x="889" d="M526 124 C526 87 526 -27 657 -27 C842 -27 844 206 844 213 C844 327 769 350 705 350 C638 350 602 320 578 286 C530 220 526 129 526 124 L526 124 Z M602 108 C602 145 622 291 708 291 C719 291 768 289 768 222 C768 206 757 32 659 32 C604 32 602 85 602 108 L602 108 Z M109 496 C109 459 109 345 240 345 C425 345 428 577 428 585 C428 699 352 722 288 722 C222 722 186 691 161 657 C113 592 109 501 109 496 L109 496 Z M185 479 C185 515 205 663 292 663 C311 663 352 654 352 595 C352 580 341 404 242 404 C187 404 185 457 185 479 L185 479 Z M142 -27 L224 -27 L813 728 L733 728 L142 -27 Z " />
<glyph glyph-name="ampersand" unicode="&#x26;" horiz-adv-x="667" d="M267 421 C200 391 79 334 79 186 C79 69 167 -15 295 -15 C390 -15 444 27 496 70 C525 30 561 -3 578 -17 L645 36 C622 62 591 97 562 134 C590 165 626 214 651 267 L575 306 C542 247 521 222 506 204 C454 270 399 366 384 394 C466 436 563 494 563 591 C563 655 512 728 408 728 C293 728 229 633 229 555 C229 503 245 472 261 435 L267 421 Z M445 138 C392 83 342 64 299 64 C229 64 167 119 167 196 C167 289 251 328 303 352 C341 280 406 189 445 138 L445 138 Z M351 460 C321 518 321 556 321 564 C321 610 357 657 407 657 C446 657 475 627 475 589 C475 523 380 475 351 460 L351 460 Z " />
<glyph glyph-name="quotesingle" unicode="&#x27;" horiz-adv-x="191" d="M130 462 L184 462 L235 599 L260 716 L160 716 L135 599 L130 462 Z " />
<glyph glyph-name="parenleft" unicode="&#x28;" horiz-adv-x="333" d="M344 728 C343 727 336 719 335 717 C231 598 84 423 84 135 C84 22 111 -101 161 -210 L227 -210 C192 -102 171 10 171 123 C171 449 378 690 413 728 L344 728 Z " />
<glyph glyph-name="parenright" unicode="&#x29;" horiz-adv-x="333" d="M15 -210 C16 -209 23 -201 24 -199 C128 -80 275 95 275 383 C275 496 248 619 198 728 L132 728 C167 620 188 508 188 395 C188 69 -19 -172 -54 -210 L15 -210 Z " />
<glyph glyph-name="asterisk" unicode="&#x2a;" horiz-adv-x="389" d="M115 583 C155 573 185 566 235 557 C227 549 221 544 195 513 C190 507 165 477 160 472 L160 471 L154 464 L212 423 C235 454 248 477 275 528 C305 477 316 458 342 423 L401 465 C398 468 341 535 316 557 C351 561 354 562 370 566 L438 584 L415 654 C393 646 339 627 300 607 L301 618 C310 678 310 712 311 728 L240 727 C240 695 243 675 250 606 C214 626 158 646 137 653 L115 583 Z " />
<glyph glyph-name="plus" unicode="&#x2b;" horiz-adv-x="584" d="M294 116 L376 116 L376 312 L572 312 L572 394 L376 394 L376 590 L294 590 L294 394 L98 394 L98 312 L294 312 L294 116 Z " />
<glyph glyph-name="comma" unicode="&#x2c;" horiz-adv-x="278" d="M59 0 L114 0 C95 -90 53 -102 37 -106 L29 -145 C132 -132 156 -22 163 13 L181 100 L80 100 L59 0 Z " />
<glyph glyph-name="hyphen" unicode="&#x2d;" horiz-adv-x="333" d="M46 215 L316 215 L334 303 L65 303 L46 215 Z " />
<glyph glyph-name="period" unicode="&#x2e;" horiz-adv-x="278" d="M58 0 L158 0 L179 100 L79 100 L58 0 Z " />
<glyph glyph-name="slash" unicode="&#x2f;" horiz-adv-x="278" d="M0 -24 L71 -24 L278 716 L207 716 L0 -24 Z " />
<glyph glyph-name="zero" unicode="0" horiz-adv-x="556" d="M74 235 C74 57 171 -12 264 -12 C477 -12 568 292 568 482 C568 671 451 719 375 719 C168 719 74 410 74 235 L74 235 Z M158 212 C158 235 190 649 376 649 C482 649 484 534 484 502 C484 418 436 58 268 58 C205 58 158 103 158 212 L158 212 Z " />
<glyph glyph-name="one" unicode="1" horiz-adv-x="556" d="M243 0 L331 0 L482 719 L430 719 C376 631 231 554 167 528 L150 448 C205 463 296 493 354 541 L356 539 L243 0 Z " />
<glyph glyph-name="two" unicode="2" horiz-adv-x="556" d="M214 501 C228 569 266 649 355 649 C421 649 476 598 476 530 C476 446 397 383 317 319 C143 181 89 136 61 0 L487 0 L504 81 L184 81 C217 139 289 197 296 202 C384 272 430 308 469 344 C496 369 564 432 564 527 C564 628 489 719 354 719 C208 719 141 613 128 513 L214 501 Z " />
<glyph glyph-name="three" unicode="3" horiz-adv-x="556" d="M57 187 C67 45 176 -12 280 -12 C412 -12 524 94 524 225 C524 316 461 354 441 366 C526 406 559 465 559 534 C559 631 487 719 362 719 C336 719 180 715 135 534 L222 516 C239 610 302 649 356 649 C421 649 471 597 471 531 C471 479 435 404 314 404 C302 404 297 405 290 406 L275 332 C290 333 296 334 303 334 C385 334 434 281 434 212 C434 138 368 58 274 58 C161 58 148 161 143 198 L57 187 Z " />
<glyph glyph-name="four" unicode="4" horiz-adv-x="556" d="M301 0 L389 0 L428 182 L528 182 L545 261 L444 261 L539 716 L467 716 L66 270 L47 182 L339 182 L301 0 Z M152 261 L416 559 L418 557 L356 261 L152 261 Z " />
<glyph glyph-name="five" unicode="5" horiz-adv-x="556" d="M72 204 C67 99 134 -12 275 -12 C434 -12 547 119 547 284 C547 439 439 487 359 487 C292 487 252 458 233 443 L231 445 L285 625 L557 625 L574 706 L224 706 L117 340 L194 333 C210 354 254 408 331 408 C415 408 459 346 459 275 C459 169 379 58 281 58 C228 58 155 102 162 213 L72 204 Z " />
<glyph glyph-name="six" unicode="6" horiz-adv-x="556" d="M570 542 C563 629 517 719 397 719 C158 719 85 385 85 239 C85 51 200 -12 293 -12 C437 -12 538 125 538 271 C538 408 449 476 350 476 C278 476 227 435 205 415 L203 417 C211 452 269 645 391 645 C455 645 480 595 488 534 L570 542 Z M172 201 C172 324 255 406 332 406 C404 406 454 343 454 262 C454 162 376 58 295 58 C223 58 172 130 172 201 L172 201 Z " />
<glyph glyph-name="seven" unicode="7" horiz-adv-x="556" d="M480 625 C292 443 172 154 147 0 L239 0 C280 191 399 465 580 625 L597 706 L140 706 L123 625 L480 625 Z " />
<glyph glyph-name="eight" unicode="8" horiz-adv-x="556" d="M227 393 C83 352 77 213 77 182 C77 76 154 -12 281 -12 C437 -12 531 110 531 234 C531 330 474 365 445 383 C463 390 485 399 507 417 C544 448 565 496 565 545 C565 610 521 719 364 719 C213 719 148 601 148 524 C148 505 150 436 227 393 L227 393 Z M165 175 C165 269 226 353 324 353 C390 353 443 310 443 239 C443 162 388 58 290 58 C215 58 165 108 165 175 L165 175 Z M234 520 C234 576 277 649 371 649 C438 649 482 606 482 545 C482 489 440 418 345 418 C279 418 234 456 234 520 L234 520 Z " />
<glyph glyph-name="nine" unicode="9" horiz-adv-x="556" d="M69 165 C76 78 122 -12 242 -12 C481 -12 554 322 554 468 C554 656 439 719 346 719 C202 719 101 582 101 436 C101 299 190 231 289 231 C361 231 412 272 434 292 L436 290 C428 255 370 62 248 62 C184 62 159 112 151 173 L69 165 Z M467 506 C467 383 384 301 307 301 C235 301 185 364 185 445 C185 545 263 649 344 649 C416 649 467 577 467 506 L467 506 Z " />
<glyph glyph-name="colon" unicode="&#x3a;" horiz-adv-x="278" d="M145 418 L245 418 L266 518 L166 518 L145 418 Z M58 0 L158 0 L179 100 L79 100 L58 0 Z " />
<glyph glyph-name="semicolon" unicode="&#x3b;" horiz-adv-x="278" d="M59 0 L114 0 C95 -90 53 -102 37 -106 L29 -145 C132 -132 156 -22 163 13 L181 100 L80 100 L59 0 Z M145 418 L245 418 L266 518 L166 518 L145 418 Z " />
<glyph glyph-name="less" unicode="&#x3c;" horiz-adv-x="584" d="M79 313 L553 111 L553 198 L177 354 L553 508 L553 595 L79 395 L79 313 Z " />
<glyph glyph-name="equal" unicode="&#x3d;" horiz-adv-x="584" d="M572 421 L572 503 L98 503 L98 421 L572 421 Z M572 203 L572 285 L98 285 L98 203 L572 203 Z " />
<glyph glyph-name="greater" unicode="&#x3e;" horiz-adv-x="584" d="M582 313 L582 395 L108 595 L108 508 L483 354 L108 198 L108 111 L582 313 Z " />
<glyph glyph-name="question" unicode="&#x3f;" horiz-adv-x="556" d="M218 505 C223 542 240 656 359 656 C426 656 475 612 475 559 C475 496 412 443 361 401 C282 337 224 289 212 179 L295 179 C305 239 315 264 406 337 C495 409 563 463 563 553 C563 649 480 728 357 728 C299 728 244 707 205 671 C151 622 137 558 129 520 L218 505 Z M168 0 L268 0 L289 100 L189 100 L168 0 Z " />
<glyph glyph-name="at" unicode="&#x40;" horiz-adv-x="1015" d="M643 439 C592 523 522 529 495 529 C359 529 242 367 242 216 C242 101 314 -2 419 -2 C488 -2 545 52 569 80 C572 49 577 -2 664 -2 C806 -2 957 160 957 347 C957 537 815 729 541 729 C169 729 56 420 56 229 C56 -9 205 -210 550 -210 C862 -210 968 -18 981 9 L893 9 C858 -41 760 -138 551 -138 C325 -138 128 -34 128 237 C128 349 166 454 237 531 C307 608 409 657 536 657 C727 657 885 534 885 350 C885 181 748 79 697 79 C680 79 662 92 662 111 C662 119 664 128 669 153 C672 163 674 175 677 187 L747 515 L660 515 L643 439 Z M332 212 C332 300 391 457 501 457 C554 457 615 420 615 315 C615 185 523 71 439 71 C387 71 332 117 332 212 L332 212 Z " />
<glyph glyph-name="A" unicode="A" horiz-adv-x="667" d="M-20 0 L85 0 L200 206 L489 206 L524 0 L617 0 L499 716 L386 716 L-20 0 Z M358 492 C393 554 405 576 429 638 L431 638 C432 586 438 537 450 459 L477 280 L241 280 L358 492 Z " />
<glyph glyph-name="B" unicode="B" horiz-adv-x="667" d="M44 0 L390 0 C541 0 639 115 639 227 C639 317 577 356 523 372 L523 374 C564 388 655 428 655 546 C655 588 641 639 598 673 C544 716 471 716 415 716 L193 716 L44 0 Z M208 329 L390 329 C449 329 541 328 541 226 C541 181 516 131 473 108 C422 81 384 81 319 81 L156 81 L208 329 Z M272 635 L424 635 C481 635 565 634 565 540 C565 484 527 434 473 420 C438 411 405 410 370 410 L225 410 L272 635 Z " />
<glyph glyph-name="C" unicode="C" horiz-adv-x="722" d="M604 252 C587 196 526 67 382 67 C307 67 187 106 187 294 C187 470 289 649 470 649 C610 649 635 535 642 495 L732 503 C711 690 554 728 466 728 C243 728 92 533 92 296 C92 76 222 -12 375 -12 C534 -12 644 88 699 239 L604 252 Z " />
<glyph glyph-name="D" unicode="D" horiz-adv-x="722" d="M45 0 L302 0 C351 0 446 2 527 55 C604 105 712 230 712 424 C712 492 697 605 605 670 C540 716 470 716 410 716 L194 716 L45 0 Z M273 635 L400 635 C483 635 615 634 615 428 C615 270 538 171 479 127 C422 85 319 81 270 81 L157 81 L273 635 Z " />
<glyph glyph-name="E" unicode="E" horiz-adv-x="667" d="M45 0 L591 0 L608 81 L158 81 L210 330 L619 330 L636 411 L227 411 L273 635 L694 635 L711 716 L195 716 L45 0 Z " />
<glyph glyph-name="F" unicode="F" horiz-adv-x="611" d="M44 0 L139 0 L207 325 L584 325 L601 406 L224 406 L272 635 L641 635 L658 716 L193 716 L44 0 Z " />
<glyph glyph-name="G" unicode="G" horiz-adv-x="778" d="M409 282 L627 282 L595 128 C560 108 478 67 394 67 C353 67 289 78 246 123 C198 174 194 248 194 285 C194 494 312 649 487 649 C574 649 649 607 672 496 L766 506 C762 529 755 561 739 595 C692 689 589 728 490 728 C224 728 97 492 97 287 C97 188 134 -12 395 -12 C512 -12 619 34 679 72 L740 363 L426 363 L409 282 Z " />
<glyph glyph-name="H" unicode="H" horiz-adv-x="722" d="M42 0 L138 0 L208 337 L579 337 L509 0 L605 0 L754 716 L658 716 L596 418 L225 418 L287 716 L192 716 L42 0 Z " />
<glyph glyph-name="I" unicode="I" horiz-adv-x="278" d="M56 0 L152 0 L301 716 L206 716 L56 0 Z " />
<glyph glyph-name="J" unicode="J" horiz-adv-x="500" d="M41 208 C37 195 33 177 33 144 C33 96 46 55 78 29 C119 -4 175 -12 213 -12 C359 -12 406 93 427 193 L536 716 L440 716 L334 208 C320 143 305 67 214 67 C195 67 121 74 121 154 C121 174 124 187 129 215 L41 208 Z " />
<glyph glyph-name="K" unicode="K" horiz-adv-x="667" d="M44 0 L140 0 L189 233 L339 363 L546 0 L652 0 L409 425 L741 716 L607 716 L220 371 L218 373 L290 716 L194 716 L44 0 Z " />
<glyph glyph-name="L" unicode="L" horiz-adv-x="556" d="M42 0 L509 0 L526 81 L155 81 L287 716 L191 716 L42 0 Z " />
<glyph glyph-name="M" unicode="M" horiz-adv-x="833" d="M44 0 L137 0 L233 456 C240 491 241 502 253 583 C254 587 256 601 256 606 L258 606 C258 572 261 522 270 459 L342 0 L434 0 L701 468 C724 509 751 558 778 619 C777 618 776 614 775 611 C774 606 772 602 772 600 C754 546 729 468 703 348 L629 0 L723 0 L872 716 L753 716 L501 272 C485 243 480 234 440 157 C419 117 412 100 403 77 L401 77 C399 131 398 160 383 252 L311 716 L194 716 L44 0 Z " />
<glyph glyph-name="N" unicode="N" horiz-adv-x="722" d="M50 0 L143 0 L234 435 C242 474 256 547 261 606 L263 606 C271 579 289 523 336 413 L514 0 L608 0 L758 716 L665 716 L577 295 C559 212 556 197 544 109 L542 109 C519 190 501 251 413 447 L292 716 L199 716 L50 0 Z " />
<glyph glyph-name="O" unicode="O" horiz-adv-x="778" d="M89 300 C89 132 202 -12 390 -12 C604 -12 771 176 771 407 C771 593 658 728 469 728 C267 728 89 566 89 300 L89 300 Z M184 295 C184 535 340 649 469 649 C575 649 676 568 676 415 C676 241 562 67 397 67 C291 67 184 147 184 295 L184 295 Z " />
<glyph glyph-name="P" unicode="P" horiz-adv-x="667" d="M43 0 L139 0 L200 290 L379 290 C432 290 523 298 580 330 C663 377 698 474 698 540 C698 612 662 668 616 694 C586 711 547 716 492 716 L193 716 L43 0 Z M272 637 L456 637 C526 637 603 638 603 538 C603 474 565 424 523 399 C478 372 396 371 374 371 L217 371 L272 637 Z " />
<glyph glyph-name="Q" unicode="Q" horiz-adv-x="778" d="M701 -25 C686 -15 639 14 603 57 C708 136 772 261 772 407 C772 593 659 728 470 728 C234 728 90 522 90 313 C90 14 336 -12 403 -12 C448 -12 496 -1 542 21 L549 13 C581 -24 619 -56 659 -82 L701 -25 Z M536 128 C515 149 482 184 425 208 L391 148 C425 130 447 115 482 83 C451 72 419 67 386 67 C327 67 185 116 185 305 C185 499 312 649 472 649 C567 649 677 577 677 413 C677 310 633 187 545 119 L536 128 Z " />
<glyph glyph-name="R" unicode="R" horiz-adv-x="722" d="M47 0 L143 0 L209 318 L320 318 C377 318 408 311 430 287 C468 247 502 170 516 133 L568 0 L675 0 L620 135 C591 207 551 276 489 322 C540 329 731 354 731 541 C731 716 588 716 497 716 L197 716 L47 0 Z M276 637 L510 637 C561 637 639 637 639 543 C639 488 607 440 551 415 C508 395 455 395 358 395 L226 395 L276 637 Z " />
<glyph glyph-name="S" unicode="S" horiz-adv-x="667" d="M71 232 C71 172 82 129 98 98 C142 12 259 -12 347 -12 C517 -12 623 83 623 198 C623 315 540 352 403 412 C298 458 252 480 252 542 C252 634 360 649 406 649 C477 649 558 625 575 544 C577 532 578 530 578 506 L671 513 C676 607 612 728 410 728 C264 728 159 657 159 537 C159 417 264 373 369 327 C472 282 526 255 526 191 C526 128 467 67 350 67 C216 67 181 128 168 180 C163 200 163 209 164 240 L71 232 Z " />
<glyph glyph-name="T" unicode="T" horiz-adv-x="611" d="M227 0 L323 0 L455 635 L688 635 L705 716 L142 716 L125 635 L360 635 L227 0 Z " />
<glyph glyph-name="U" unicode="U" horiz-adv-x="722" d="M200 716 L118 326 C106 271 98 235 98 197 C98 57 213 -12 357 -12 C604 -12 651 215 668 297 L756 716 L660 716 L578 324 C566 267 545 169 493 122 C452 85 400 69 352 69 C272 69 193 112 193 197 C193 223 202 265 205 278 L295 716 L200 716 Z " />
<glyph glyph-name="V" unicode="V" horiz-adv-x="667" d="M262 0 L364 0 L757 716 L658 716 L403 247 C374 193 338 120 330 101 L328 101 C323 164 310 233 299 289 L216 716 L124 716 L262 0 Z " />
<glyph glyph-name="W" unicode="W" horiz-adv-x="944" d="M167 0 L266 0 L514 465 C521 479 553 547 562 570 L564 570 C566 494 566 486 569 434 L593 0 L696 0 L1059 716 L962 716 L758 312 C751 299 693 178 675 125 L673 125 C673 216 673 226 668 297 L645 716 L546 716 L328 304 L289 227 L268 184 C253 154 252 153 244 132 L242 134 C243 189 240 305 237 362 L220 716 L123 716 L167 0 Z " />
<glyph glyph-name="X" unicode="X" horiz-adv-x="667" d="M-32 0 L95 0 L295 213 C311 229 347 272 359 288 C382 240 396 214 399 209 L515 0 L619 0 L423 346 L769 716 L644 716 L487 550 C448 509 409 467 375 422 C351 475 339 495 316 536 L305 554 L213 716 L108 716 L310 362 L-32 0 Z " />
<glyph glyph-name="Y" unicode="Y" horiz-adv-x="667" d="M280 0 L375 0 L432 269 L773 716 L659 716 L491 505 C472 481 420 411 393 361 C360 439 353 452 325 507 L220 716 L117 716 L337 277 L280 0 Z " />
<glyph glyph-name="Z" unicode="Z" horiz-adv-x="611" d="M23 0 L553 0 L570 81 L234 81 L181 82 C174 82 167 81 154 79 L152 81 C168 96 180 111 210 147 C213 149 219 157 226 164 C233 173 240 182 243 184 L627 641 L635 716 L141 716 L124 635 L365 635 L445 636 C463 636 492 639 506 641 L508 639 C494 626 479 607 434 553 C419 535 403 515 390 500 L32 72 L23 0 Z " />
<glyph glyph-name="bracketleft" unicode="&#x5b;" horiz-adv-x="278" d="M5 -196 L200 -196 L215 -128 L107 -128 L269 648 L376 648 L390 716 L193 716 L5 -196 Z " />
<glyph glyph-name="backslash" unicode="&#x5c;" horiz-adv-x="278" d="M207 -24 L278 -24 L71 716 L0 716 L207 -24 Z " />
<glyph glyph-name="bracketright" unicode="&#x5d;" horiz-adv-x="278" d="M326 716 L131 716 L116 648 L224 648 L62 -128 L-45 -128 L-59 -196 L138 -196 L326 716 Z " />
<glyph glyph-name="asciicircum" unicode="&#x5e;" horiz-adv-x="469" d="M160 325 L278 617 L398 325 L487 325 L314 716 L243 716 L70 325 L160 325 Z " />
<glyph glyph-name="underscore" unicode="&#x5f;" horiz-adv-x="500" d="M-6 -125 L506 -125 L506 -75 L-6 -75 L-6 -125 Z " />
<glyph glyph-name="grave" unicode="&#x60;" horiz-adv-x="333" d="M241 581 L310 581 L253 716 L146 716 L241 581 Z " />
<glyph glyph-name="a" unicode="a" horiz-adv-x="556" d="M186 363 C212 438 272 458 329 458 C353 458 441 454 441 385 C441 375 437 348 430 325 C394 311 357 309 281 306 C222 304 46 296 46 138 C46 42 119 -12 206 -12 C296 -12 356 40 384 65 C385 54 387 25 395 0 L484 0 C484 1 483 6 482 7 C477 33 474 48 474 70 C474 104 480 138 487 171 L516 299 C528 354 529 391 529 396 C529 482 440 530 333 530 C274 530 186 517 129 436 C110 409 102 388 96 371 L186 363 Z M417 263 C408 211 398 168 373 132 C340 84 286 56 232 56 C157 56 134 104 134 142 C134 225 224 236 281 241 C361 248 384 250 417 263 L417 263 Z " />
<glyph glyph-name="b" unicode="b" horiz-adv-x="556" d="M35 0 L113 0 L132 98 L134 98 C140 82 148 62 166 41 C195 7 238 -12 285 -12 C406 -12 537 121 537 318 C537 514 403 530 368 530 C308 530 264 501 222 460 L220 462 L273 716 L185 716 L35 0 Z M166 213 C166 237 177 298 204 354 C232 410 276 458 341 458 C432 458 449 364 449 321 C449 248 408 60 277 60 C246 60 166 72 166 213 L166 213 Z " />
<glyph glyph-name="c" unicode="c" horiz-adv-x="500" d="M391 189 C373 135 328 56 247 56 C224 56 146 66 146 189 C146 240 166 458 321 458 C346 458 423 450 423 353 L511 358 C511 492 405 530 329 530 C123 530 56 327 56 195 C56 53 144 -12 246 -12 C345 -12 434 46 480 180 L391 189 Z " />
<glyph glyph-name="d" unicode="d" horiz-adv-x="556" d="M455 437 L453 437 C415 510 360 530 308 530 C173 530 54 382 54 201 C54 35 154 -12 226 -12 C292 -12 343 27 383 75 L385 73 L369 0 L451 0 L600 716 L512 716 L455 437 Z M142 217 C142 274 188 458 313 458 C366 458 426 422 426 326 C426 189 348 60 252 60 C142 60 142 187 142 217 L142 217 Z " />
<glyph glyph-name="e" unicode="e" horiz-adv-x="556" d="M414 176 C373 81 294 60 256 60 C195 60 141 110 141 210 C141 221 142 227 143 237 L525 237 C528 257 532 277 532 316 C532 405 487 530 328 530 C136 530 53 340 53 208 C53 64 144 -12 256 -12 C391 -12 479 96 500 167 L414 176 Z M157 305 C177 371 228 462 330 462 C385 462 442 429 448 345 C449 330 449 319 448 305 L157 305 Z " />
<glyph glyph-name="f" unicode="f" horiz-adv-x="278" d="M46 0 L134 0 L228 450 L327 450 L341 518 L242 518 L254 574 C263 619 270 649 317 649 C347 649 378 640 392 637 L408 714 C388 718 344 728 310 728 C198 728 184 662 169 592 L154 518 L75 518 L61 450 L140 450 L46 0 Z " />
<glyph glyph-name="g" unicode="g" horiz-adv-x="556" d="M31 -47 C29 -54 28 -61 28 -73 C28 -201 179 -207 225 -207 C413 -207 445 -56 460 17 L565 518 L484 518 L469 433 L467 433 C422 515 356 530 311 530 C168 530 51 377 51 222 C51 76 135 0 236 0 C276 0 326 13 380 70 L382 68 L373 28 C352 -67 339 -135 216 -135 C117 -135 119 -85 120 -55 L31 -47 Z M141 229 C141 298 194 458 313 458 C388 458 436 396 436 320 C436 223 374 72 253 72 C213 72 182 95 164 124 C144 156 141 183 141 229 L141 229 Z " />
<glyph glyph-name="h" unicode="h" horiz-adv-x="556" d="M35 0 L124 0 L170 222 C179 264 195 339 228 384 C260 425 312 458 375 458 C419 458 443 433 443 400 C443 382 433 335 429 314 L363 0 L452 0 L516 306 C521 332 531 379 531 407 C531 470 490 530 396 530 C312 530 253 477 218 441 L216 443 L273 716 L185 716 L35 0 Z " />
<glyph glyph-name="i" unicode="i" horiz-adv-x="222" d="M29 0 L117 0 L226 518 L137 518 L29 0 Z M157 616 L246 616 L267 716 L178 716 L157 616 Z " />
<glyph glyph-name="j" unicode="j" horiz-adv-x="222" d="M-121 -195 C-72 -208 -44 -208 -37 -208 C74 -208 95 -105 113 -21 L226 518 L137 518 L28 -5 C8 -99 -5 -128 -52 -128 C-75 -128 -93 -123 -106 -120 L-121 -195 Z M157 616 L246 616 L267 716 L178 716 L157 616 Z " />
<glyph glyph-name="k" unicode="k" horiz-adv-x="500" d="M34 0 L122 0 L159 173 L266 266 L369 0 L466 0 L332 325 L554 518 L437 518 L181 272 L179 274 L272 716 L184 716 L34 0 Z " />
<glyph glyph-name="l" unicode="l" horiz-adv-x="222" d="M26 0 L115 0 L264 716 L176 716 L26 0 Z " />
<glyph glyph-name="m" unicode="m" horiz-adv-x="833" d="M32 0 L121 0 L172 245 C180 281 192 342 229 388 C256 421 305 458 360 458 C398 458 417 431 417 401 C417 390 416 380 410 350 L337 0 L425 0 L478 252 C487 296 499 354 535 395 C554 417 601 458 662 458 C676 458 723 456 723 403 C723 391 721 378 714 343 L643 0 L731 0 L800 334 C808 371 811 389 811 413 C811 514 733 530 682 530 C651 530 579 522 507 433 C488 516 423 530 383 530 C300 530 250 477 213 433 L211 435 L229 518 L141 518 L32 0 Z " />
<glyph glyph-name="n" unicode="n" horiz-adv-x="556" d="M33 0 L122 0 L172 241 C187 311 210 366 236 394 C265 427 314 458 371 458 C400 458 440 446 440 399 C440 383 437 361 430 329 L361 0 L450 0 L515 314 C520 339 528 377 528 405 C528 515 431 530 393 530 C303 530 235 460 205 428 L203 430 L222 518 L142 518 L33 0 Z " />
<glyph glyph-name="o" unicode="o" horiz-adv-x="556" d="M51 197 C51 57 151 -12 263 -12 C416 -12 542 120 542 313 C542 448 457 530 333 530 C153 530 51 374 51 197 L51 197 Z M139 206 C139 316 202 462 330 462 C415 462 454 392 454 314 C454 203 384 56 264 56 C235 56 139 68 139 206 L139 206 Z " />
<glyph glyph-name="p" unicode="p" horiz-adv-x="556" d="M-8 -199 L80 -199 L138 83 L140 83 C171 22 217 -12 283 -12 C413 -12 537 133 537 321 C537 459 461 530 365 530 C298 530 253 493 210 446 L208 448 L223 518 L141 518 L-8 -199 Z M166 212 C166 243 178 304 206 358 C233 412 277 458 339 458 C415 458 449 391 449 321 C449 246 404 60 279 60 C263 60 231 63 205 87 C166 122 166 162 166 212 L166 212 Z " />
<glyph glyph-name="q" unicode="q" horiz-adv-x="556" d="M457 423 L455 423 C411 527 330 530 308 530 C167 530 51 386 51 200 C51 36 153 -12 223 -12 C262 -12 307 2 366 59 L368 57 L314 -199 L403 -199 L553 518 L476 518 L457 423 Z M139 211 C139 279 186 458 311 458 C379 458 424 400 424 322 C424 213 356 60 249 60 C239 60 214 62 189 80 C163 99 139 136 139 211 L139 211 Z " />
<glyph glyph-name="r" unicode="r" horiz-adv-x="333" d="M33 0 L117 0 L161 208 C178 287 201 344 220 372 C237 396 280 446 333 446 C351 446 368 441 383 429 L420 511 C398 522 378 530 354 530 C276 530 221 447 200 413 L198 415 L220 518 L142 518 L33 0 Z " />
<glyph glyph-name="s" unicode="s" horiz-adv-x="500" d="M38 177 C32 0 201 -12 250 -12 C395 -12 461 71 461 146 C461 240 386 272 291 313 C226 341 193 355 193 396 C193 426 226 462 290 462 C306 462 406 460 410 361 L498 366 C494 502 372 530 296 530 C158 530 111 443 111 381 C111 296 176 269 265 230 C327 203 372 181 372 135 C372 85 319 56 255 56 C129 56 127 155 127 183 L38 177 Z " />
<glyph glyph-name="t" unicode="t" horiz-adv-x="278" d="M240 72 C223 68 204 66 187 66 C159 66 149 79 149 98 C149 107 151 122 160 164 L220 450 L307 450 L321 518 L234 518 L274 707 L173 646 L146 518 L76 518 L62 450 L132 450 L69 149 C59 101 56 82 56 70 C56 6 124 -9 163 -9 C171 -9 198 -8 225 0 L240 72 Z " />
<glyph glyph-name="u" unicode="u" horiz-adv-x="556" d="M81 219 C72 174 64 140 64 107 C64 32 129 -12 198 -12 C276 -12 339 37 387 94 L389 92 L369 0 L451 0 L559 518 L471 518 L424 294 C410 225 396 163 342 112 C299 72 258 60 224 60 C212 60 152 61 152 123 C152 143 157 168 161 187 L231 518 L143 518 L81 219 Z " />
<glyph glyph-name="v" unicode="v" horiz-adv-x="500" d="M164 0 L262 0 L559 518 L465 518 L292 207 C283 191 275 175 267 159 C263 151 241 108 236 99 L228 80 L226 80 L226 98 C219 157 216 186 209 233 L165 518 L79 518 L164 0 Z " />
<glyph glyph-name="w" unicode="w" horiz-adv-x="722" d="M133 0 L226 0 L363 302 C377 332 392 366 409 415 L411 415 C411 395 412 318 413 304 L433 0 L525 0 L778 518 L690 518 L556 237 C523 167 510 133 500 101 L498 101 C498 181 495 237 494 259 L477 518 L381 518 L257 248 C227 182 219 163 200 96 L198 96 C198 127 198 141 197 156 C194 184 191 225 190 241 C189 258 188 280 187 285 L164 518 L79 518 L133 0 Z " />
<glyph glyph-name="x" unicode="x" horiz-adv-x="500" d="M-2 0 L109 0 L263 189 C274 164 285 139 301 105 L353 0 L450 0 L320 256 L538 518 L430 518 L280 327 C268 355 261 374 236 426 L192 518 L94 518 L224 263 L-2 0 Z " />
<glyph glyph-name="y" unicode="y" horiz-adv-x="500" d="M0 -200 C25 -209 46 -210 60 -210 C151 -210 194 -135 231 -69 L561 518 L469 518 L238 101 L236 101 C229 179 219 243 217 256 L178 518 L91 518 L177 -2 L149 -52 C115 -112 93 -125 58 -125 C33 -125 17 -121 5 -117 L0 -200 Z " />
<glyph glyph-name="z" unicode="z" horiz-adv-x="500" d="M20 0 L437 0 L453 78 L249 78 C233 78 209 78 186 76 L148 73 C171 96 195 120 219 147 L501 463 L512 518 L111 518 L96 446 L289 446 C303 446 326 447 348 449 L377 452 L379 450 C358 431 342 415 313 382 L34 68 L20 0 Z " />
<glyph glyph-name="braceleft" unicode="&#x7b;" horiz-adv-x="334" d="M335 728 C298 728 247 728 214 684 C182 641 182 591 181 488 C180 390 180 301 80 299 L80 219 C180 217 181 127 181 30 C181 -73 181 -122 214 -166 C247 -210 298 -210 335 -210 L362 -210 L362 -134 L347 -134 C263 -134 263 -119 263 38 C263 155 246 223 161 259 C263 308 263 371 263 551 C263 640 283 652 347 652 L362 652 L362 728 L335 728 Z " />
<glyph glyph-name="bar" unicode="&#x7c;" horiz-adv-x="260" d="M135 716 L135 -199 L211 -199 L211 716 L135 716 Z " />
<glyph glyph-name="braceright" unicode="&#x7d;" horiz-adv-x="334" d="M83 -210 C120 -210 171 -210 204 -166 C236 -123 236 -73 237 30 C238 128 238 217 338 219 L338 299 C238 301 237 391 237 488 C237 591 237 640 204 684 C171 728 120 728 83 728 L56 728 L56 652 L71 652 C155 652 155 637 155 480 C155 363 172 295 257 259 C155 210 155 147 155 -33 C155 -122 135 -134 71 -134 L56 -134 L56 -210 L83 -210 Z " />
<glyph glyph-name="asciitilde" unicode="&#x7e;" horiz-adv-x="584" d="M87 272 C118 302 156 338 214 338 C250 338 288 323 302 316 C306 315 328 305 332 303 C375 284 408 273 451 273 C518 273 557 302 586 329 L586 432 C577 422 523 365 460 365 C433 365 407 375 395 380 C390 382 362 394 356 397 C284 427 246 431 222 431 C180 431 126 417 87 372 L87 272 Z " />
<glyph glyph-name="exclamdown" unicode="&#xa1;" horiz-adv-x="333" d="M278 518 L178 518 L157 418 L257 418 L278 518 Z M222 337 L167 337 L63 -39 L30 -198 L137 -198 L168 -51 L222 337 Z " />
<glyph glyph-name="cent" unicode="&#xa2;" horiz-adv-x="556" d="M381 528 C374 529 365 530 350 530 C144 530 77 326 77 195 C77 138 91 57 167 13 L88 -176 L141 -199 L220 -7 C229 -9 244 -12 267 -12 C363 -12 454 43 500 180 L412 189 C394 136 349 56 268 56 C259 56 252 58 248 59 L405 439 C444 411 444 377 445 353 L532 358 C532 383 532 472 436 514 L514 704 L462 726 L381 528 Z M198 88 C187 100 167 124 167 191 C167 247 192 468 351 457 L198 88 Z " />
<glyph glyph-name="sterling" unicode="&#xa3;" horiz-adv-x="556" d="M43 -12 C97 21 135 36 196 36 C236 36 269 26 289 18 C344 -5 362 -12 400 -12 C410 -12 455 -12 530 24 L503 103 C451 73 406 73 396 73 C369 73 349 79 313 91 C278 103 252 106 204 106 C193 106 183 104 169 103 L166 104 C218 142 272 199 269 318 L392 318 L407 392 L266 392 C257 443 256 474 256 487 C256 620 349 658 401 658 C420 658 514 655 529 530 L609 538 C592 695 473 728 402 728 C276 728 166 638 166 503 C166 459 168 436 175 392 L90 392 L75 318 L183 318 C185 304 185 299 185 296 C185 180 76 102 33 74 L43 -12 Z " />
<glyph glyph-name="currency" unicode="&#xa4;" horiz-adv-x="556" d="M150 469 C120 423 115 380 115 354 C115 329 120 286 150 239 L82 173 L138 115 L206 183 C243 158 285 148 322 148 C359 148 401 158 438 183 L506 115 L562 173 L494 239 C524 286 528 329 528 354 C528 380 524 423 494 469 L562 536 L506 594 L438 526 C401 551 359 561 322 561 C285 561 243 551 206 526 L138 594 L82 536 L150 469 Z M195 354 C195 425 252 481 321 481 C391 481 448 424 448 354 C448 284 391 228 321 228 C252 228 195 284 195 354 L195 354 Z " />
<glyph glyph-name="yen" unicode="&#xa5;" horiz-adv-x="556" d="M205 0 L293 0 L327 160 L525 160 L539 227 L341 227 L358 310 L554 310 L568 377 L413 377 L669 716 L559 716 L389 482 C385 476 383 472 359 438 C341 412 334 396 327 377 L325 377 C310 435 291 476 271 537 C268 546 263 559 261 562 L205 716 L116 716 L245 377 L81 377 L68 310 L269 310 L252 227 L52 227 L38 160 L238 160 L205 0 Z " />
<glyph glyph-name="brokenbar" unicode="&#xa6;" horiz-adv-x="260" d="M211 716 L135 716 L135 342 L211 342 L211 716 Z M211 -199 L211 175 L135 175 L135 -199 L211 -199 Z " />
<glyph glyph-name="section" unicode="&#xa7;" horiz-adv-x="556" d="M32 -43 C58 -164 153 -210 249 -210 C373 -210 444 -128 444 -49 C444 -14 429 21 395 60 C496 108 531 171 531 227 C531 289 495 326 394 407 C312 473 261 515 261 570 C261 617 303 656 362 656 C381 656 468 653 469 552 L557 563 C549 614 531 728 367 728 C241 728 178 652 178 568 C178 531 193 497 216 469 C159 441 77 396 77 297 C77 223 128 182 191 130 L224 103 C335 13 359 -4 359 -49 C359 -96 314 -142 249 -142 C224 -142 139 -137 114 -23 L32 -43 Z M351 106 C347 109 340 115 338 116 C330 122 288 157 280 163 C276 167 255 184 242 194 C186 239 157 267 157 307 C157 372 225 411 251 426 C285 389 338 345 391 301 C436 264 449 246 449 216 C449 191 434 145 351 106 L351 106 Z " />
<glyph glyph-name="dieresis" unicode="&#xa8;" horiz-adv-x="333" d="M296 599 L388 599 L409 699 L317 699 L296 599 Z M116 599 L208 599 L229 699 L137 699 L116 599 Z " />
<glyph glyph-name="copyright" unicode="&#xa9;" horiz-adv-x="737" d="M531 300 C510 216 436 206 410 206 C343 206 287 253 287 357 C287 430 321 512 415 512 C432 512 497 511 526 437 L584 451 C560 531 493 566 417 566 C294 566 220 486 220 359 C220 226 301 148 414 148 C491 148 569 190 591 282 L531 300 Z M413 728 C211 728 44 565 44 360 C44 156 209 -9 413 -9 C617 -9 781 157 781 360 C781 564 615 728 413 728 L413 728 Z M412 667 C582 667 720 530 720 360 C720 190 582 52 412 52 C242 52 105 190 105 360 C105 530 242 667 412 667 L412 667 Z " />
<glyph glyph-name="ordfeminine" unicode="&#xaa;" horiz-adv-x="370" d="M182 610 C207 669 262 669 271 669 C303 669 338 653 338 618 C338 608 336 600 331 586 C302 580 287 578 246 576 C193 573 80 566 80 459 C80 425 103 359 189 359 C240 359 285 386 303 402 C306 382 306 379 309 370 L376 370 C371 380 367 389 367 417 C367 429 367 444 377 481 L385 512 C392 535 408 596 408 631 C408 694 348 728 272 728 C161 728 126 651 113 622 L182 610 Z M318 531 C294 420 219 418 203 418 C186 418 150 428 150 465 C150 504 194 514 224 517 C281 522 291 523 318 531 L318 531 Z " />
<glyph glyph-name="guillemotleft" unicode="&#xab;" horiz-adv-x="556" d="M365 257 L542 478 L469 478 L275 268 L377 35 L443 35 L365 257 Z M171 257 L348 478 L275 478 L81 268 L183 35 L249 35 L171 257 Z " />
<glyph glyph-name="logicalnot" unicode="&#xac;" horiz-adv-x="584" d="M572 203 L572 503 L98 503 L98 421 L490 421 L490 203 L572 203 Z " />
<glyph glyph-name="registered" unicode="&#xae;" horiz-adv-x="737" d="M251 156 L315 156 L315 324 L353 324 C404 324 423 304 471 218 L506 156 L584 156 L536 233 C487 312 467 324 444 332 L444 334 C526 339 557 401 557 445 C557 477 542 505 519 524 C486 552 434 552 388 552 L251 552 L251 156 Z M315 498 L388 498 C427 498 489 498 489 439 C489 379 423 379 393 379 L315 379 L315 498 Z M413 728 C211 728 44 565 44 360 C44 156 209 -9 413 -9 C617 -9 781 157 781 360 C781 564 615 728 413 728 L413 728 Z M412 667 C582 667 720 530 720 360 C720 190 582 52 412 52 C242 52 105 190 105 360 C105 530 242 667 412 667 L412 667 Z " />
<glyph glyph-name="macron" unicode="&#xaf;" horiz-adv-x="333" d="M98 615 L401 615 L416 683 L112 683 L98 615 Z " />
<glyph glyph-name="degree" unicode="&#xb0;" horiz-adv-x="400" d="M142 593 C142 517 203 457 277 457 C351 457 412 517 412 593 C412 667 352 728 277 728 C202 728 142 668 142 593 L142 593 Z M195 593 C195 638 231 675 277 675 C323 675 359 638 359 593 C359 547 322 510 277 510 C232 510 195 547 195 593 L195 593 Z " />
<glyph glyph-name="plusminus" unicode="&#xb1;" horiz-adv-x="584" d="M294 137 L376 137 L376 333 L572 333 L572 415 L376 415 L376 611 L294 611 L294 415 L98 415 L98 333 L294 333 L294 137 Z M572 0 L572 82 L98 82 L98 0 L572 0 Z " />
<glyph glyph-name="twosuperior" unicode="&#xb2;" horiz-adv-x="333" d="M184 610 C198 652 224 666 267 666 C309 666 327 643 327 620 C327 586 301 571 249 542 C120 468 90 412 74 358 L363 358 L375 417 L190 417 C209 441 231 454 298 494 C355 528 401 562 401 622 C401 670 367 725 265 725 C182 725 130 690 110 617 L184 610 Z " />
<glyph glyph-name="threesuperior" unicode="&#xb3;" horiz-adv-x="333" d="M82 454 C99 393 154 349 234 349 C323 349 383 401 383 460 C383 516 343 532 318 542 L318 544 C365 554 400 579 400 629 C400 692 338 725 265 725 C193 725 138 693 120 631 L192 622 C200 642 212 672 265 672 C296 672 325 657 325 626 C325 579 275 572 229 571 L218 518 L238 518 C255 518 306 518 306 469 C306 450 294 408 232 408 C174 408 158 447 152 462 L82 454 Z " />
<glyph glyph-name="acute" unicode="&#xb4;" horiz-adv-x="333" d="M169 581 L242 581 L372 716 L260 716 L169 581 Z " />
<glyph glyph-name="mu" unicode="&#xb5;" horiz-adv-x="556" d="M143 518 L-8 -198 L78 -198 L131 49 C149 28 181 -12 247 -12 C311 -12 352 20 375 41 L377 39 L369 0 L451 0 L559 518 L471 518 L412 239 C406 212 396 172 380 137 C358 89 304 62 257 62 C202 62 160 94 160 150 C160 164 162 201 176 261 C177 267 179 273 179 275 L231 518 L143 518 Z " />
<glyph glyph-name="paragraph" unicode="&#xb6;" horiz-adv-x="537" d="M265 -199 L346 -199 L346 635 L456 635 L456 -199 L537 -199 L537 635 L607 635 L607 716 L298 716 C263 716 228 716 176 693 C102 661 68 586 68 510 C68 410 130 319 265 311 L265 -199 Z " />
<glyph glyph-name="periodcentered" unicode="&#xb7;" horiz-adv-x="278" d="M119 302 L219 302 L240 402 L140 402 L119 302 Z " />
<glyph glyph-name="cedilla" unicode="&#xb8;" horiz-adv-x="333" d="M123 -73 C172 -73 203 -88 203 -114 C203 -148 134 -148 118 -148 C78 -148 65 -148 48 -147 L38 -202 C63 -206 96 -207 121 -207 C151 -207 288 -207 288 -121 C288 -111 285 -50 200 -38 L211 6 L143 6 L123 -73 Z " />
<glyph glyph-name="onesuperior" unicode="&#xb9;" horiz-adv-x="333" d="M204 358 L278 358 L354 724 L300 724 C251 666 168 636 149 630 L136 568 C166 574 212 585 259 618 L204 358 Z " />
<glyph glyph-name="ordmasculine" unicode="&#xba;" horiz-adv-x="365" d="M70 522 C70 490 71 434 118 396 C147 373 183 360 228 360 C292 360 338 395 368 439 C398 483 412 536 412 576 C412 654 360 728 259 728 C126 728 70 595 70 522 L70 522 Z M142 524 C142 567 180 664 259 664 C306 664 340 626 340 576 C340 510 295 424 220 424 C192 424 168 439 154 462 C147 474 142 487 142 524 L142 524 Z " />
<glyph glyph-name="guillemotright" unicode="&#xbb;" horiz-adv-x="556" d="M222 256 L45 35 L118 35 L312 245 L210 478 L144 478 L222 256 Z M416 256 L239 35 L312 35 L506 245 L404 478 L338 478 L416 256 Z " />
<glyph glyph-name="onequarter" unicode="&#xbc;" horiz-adv-x="834" d="M636 -17 L705 -17 L721 57 L769 57 L782 113 L733 113 L782 349 L724 349 L474 116 L462 57 L651 57 L636 -17 Z M554 113 L691 243 L693 241 L662 113 L554 113 Z M88 -25 L166 -25 L850 728 L765 728 L88 -25 Z M204 358 L278 358 L354 724 L300 724 C254 668 168 636 149 630 L136 568 C166 574 212 585 259 618 L204 358 Z " />
<glyph glyph-name="onehalf" unicode="&#xbd;" horiz-adv-x="834" d="M64 -25 L142 -25 L827 728 L742 728 L64 -25 Z M607 235 C621 277 647 291 690 291 C732 291 750 268 750 245 C750 211 724 197 672 167 C543 93 513 37 497 -17 L786 -17 L798 42 L613 42 C632 66 654 79 721 119 C778 153 824 187 824 247 C824 295 790 350 688 350 C605 350 553 315 533 242 L607 235 Z M204 358 L278 358 L354 724 L300 724 C251 666 168 636 149 630 L136 568 C166 574 212 585 259 618 L204 358 Z " />
<glyph glyph-name="threequarters" unicode="&#xbe;" horiz-adv-x="834" d="M636 -17 L705 -17 L721 57 L769 57 L782 113 L733 113 L782 349 L724 349 L474 116 L462 57 L651 57 L636 -17 Z M554 113 L691 243 L693 241 L662 113 L554 113 Z M82 454 C99 393 154 349 234 349 C323 349 383 401 383 460 C383 516 343 532 318 542 L318 544 C365 554 400 579 400 629 C400 692 338 725 265 725 C193 725 138 693 120 631 L192 622 C200 642 212 672 265 672 C296 672 325 657 325 626 C325 579 275 572 229 571 L218 518 L238 518 C255 518 306 518 306 469 C306 450 294 408 232 408 C174 408 158 447 152 462 L82 454 Z M102 -25 L180 -25 L864 728 L779 728 L102 -25 Z " />
<glyph glyph-name="questiondown" unicode="&#xbf;" horiz-adv-x="611" d="M399 13 C394 -24 377 -138 258 -138 C191 -138 142 -94 142 -41 C142 22 205 75 256 117 C335 181 393 229 405 339 L322 339 C312 279 302 254 211 181 C122 109 54 55 54 -35 C54 -131 137 -210 260 -210 C318 -210 373 -189 412 -153 C466 -104 480 -40 488 -2 L399 13 Z M449 518 L349 518 L328 418 L428 418 L449 518 Z " />
<glyph glyph-name="Agrave" unicode="&#xc0;" horiz-adv-x="667" d="M-20 0 L85 0 L200 206 L489 206 L524 0 L617 0 L499 716 L386 716 L-20 0 Z M358 492 C393 554 405 576 429 638 L431 638 C432 586 438 537 450 459 L477 280 L241 280 L358 492 Z M448 765 L517 765 L460 900 L353 900 L448 765 Z " />
<glyph glyph-name="Aacute" unicode="&#xc1;" horiz-adv-x="667" d="M-20 0 L85 0 L200 206 L489 206 L524 0 L617 0 L499 716 L386 716 L-20 0 Z M358 492 C393 554 405 576 429 638 L431 638 C432 586 438 537 450 459 L477 280 L241 280 L358 492 Z M376 765 L449 765 L579 900 L467 900 L376 765 Z " />
<glyph glyph-name="Acircumflex" unicode="&#xc2;" horiz-adv-x="667" d="M-20 0 L85 0 L200 206 L489 206 L524 0 L617 0 L499 716 L386 716 L-20 0 Z M358 492 C393 554 405 576 429 638 L431 638 C432 586 438 537 450 459 L477 280 L241 280 L358 492 Z M307 765 L398 765 L478 852 L517 765 L595 765 L534 900 L437 900 L307 765 Z " />
<glyph glyph-name="Atilde" unicode="&#xc3;" horiz-adv-x="667" d="M-20 0 L85 0 L200 206 L489 206 L524 0 L617 0 L499 716 L386 716 L-20 0 Z M358 492 C393 554 405 576 429 638 L431 638 C432 586 438 537 450 459 L477 280 L241 280 L358 492 Z M552 895 C548 881 542 857 517 857 C505 857 491 861 462 874 C424 891 406 898 380 898 C349 898 328 887 313 868 C298 848 289 821 281 789 L342 789 C347 813 358 830 382 830 C393 830 398 828 419 820 C444 810 445 810 465 801 C488 791 499 788 515 788 C573 788 606 842 611 895 L552 895 Z " />
<glyph glyph-name="Adieresis" unicode="&#xc4;" horiz-adv-x="667" d="M-20 0 L85 0 L200 206 L489 206 L524 0 L617 0 L499 716 L386 716 L-20 0 Z M358 492 C393 554 405 576 429 638 L431 638 C432 586 438 537 450 459 L477 280 L241 280 L358 492 Z M503 783 L595 783 L616 883 L524 883 L503 783 Z M323 783 L415 783 L436 883 L344 883 L323 783 Z " />
<glyph glyph-name="Aring" unicode="&#xc5;" horiz-adv-x="667" d="M-20 0 L85 0 L200 206 L489 206 L524 0 L617 0 L499 716 L386 716 L-20 0 Z M358 492 C393 554 405 576 429 638 L431 638 C432 586 438 537 450 459 L477 280 L241 280 L358 492 Z M367 847 C367 797 408 758 456 758 C504 758 545 797 545 847 C545 897 505 936 456 936 C407 936 367 897 367 847 L367 847 Z M404 846 C404 875 427 899 456 899 C485 899 508 876 508 846 C508 817 485 795 456 795 C428 795 404 817 404 846 L404 846 Z " />
<glyph glyph-name="AE" unicode="&#xc6;" horiz-adv-x="1000" d="M-40 0 L68 0 L191 204 L467 204 L424 0 L937 0 L954 81 L542 81 L594 331 L968 331 L985 412 L611 412 L657 635 L1027 635 L1044 716 L400 716 L-40 0 Z M454 635 L557 635 L484 285 L240 285 L454 635 Z " />
<glyph glyph-name="Ccedilla" unicode="&#xc7;" horiz-adv-x="722" d="M395 -12 C453 -8 619 16 699 239 L604 252 C587 196 526 67 383 67 C306 67 187 107 187 294 C187 470 289 649 470 649 C610 649 635 535 642 495 L732 503 C711 690 554 728 466 728 C244 728 92 534 92 296 C92 138 159 15 329 -9 L298 -75 C352 -76 369 -93 369 -111 C369 -152 300 -152 252 -152 C243 -152 239 -151 208 -150 L185 -205 C210 -209 243 -210 268 -210 C436 -210 454 -139 454 -110 C454 -52 400 -44 382 -41 L395 -12 Z " />
<glyph glyph-name="Egrave" unicode="&#xc8;" horiz-adv-x="667" d="M45 0 L591 0 L608 81 L158 81 L210 330 L619 330 L636 411 L227 411 L273 635 L694 635 L711 716 L195 716 L45 0 Z M448 765 L517 765 L460 900 L353 900 L448 765 Z " />
<glyph glyph-name="Eacute" unicode="&#xc9;" horiz-adv-x="667" d="M45 0 L591 0 L608 81 L158 81 L210 330 L619 330 L636 411 L227 411 L273 635 L694 635 L711 716 L195 716 L45 0 Z M376 765 L449 765 L579 900 L467 900 L376 765 Z " />
<glyph glyph-name="Ecircumflex" unicode="&#xca;" horiz-adv-x="667" d="M45 0 L591 0 L608 81 L158 81 L210 330 L619 330 L636 411 L227 411 L273 635 L694 635 L711 716 L195 716 L45 0 Z M307 765 L398 765 L478 852 L517 765 L595 765 L534 900 L437 900 L307 765 Z " />
<glyph glyph-name="Edieresis" unicode="&#xcb;" horiz-adv-x="667" d="M45 0 L591 0 L608 81 L158 81 L210 330 L619 330 L636 411 L227 411 L273 635 L694 635 L711 716 L195 716 L45 0 Z M503 783 L595 783 L616 883 L524 883 L503 783 Z M323 783 L415 783 L436 883 L344 883 L323 783 Z " />
<glyph glyph-name="Igrave" unicode="&#xcc;" horiz-adv-x="278" d="M56 0 L152 0 L301 716 L206 716 L56 0 Z M254 765 L323 765 L266 900 L159 900 L254 765 Z " />
<glyph glyph-name="Iacute" unicode="&#xcd;" horiz-adv-x="278" d="M56 0 L152 0 L301 716 L206 716 L56 0 Z M182 765 L255 765 L385 900 L273 900 L182 765 Z " />
<glyph glyph-name="Icircumflex" unicode="&#xce;" horiz-adv-x="278" d="M56 0 L152 0 L301 716 L206 716 L56 0 Z M113 765 L204 765 L284 852 L323 765 L401 765 L340 900 L243 900 L113 765 Z " />
<glyph glyph-name="Idieresis" unicode="&#xcf;" horiz-adv-x="278" d="M56 0 L152 0 L301 716 L206 716 L56 0 Z M309 783 L401 783 L422 883 L330 883 L309 783 Z M129 783 L221 783 L242 883 L150 883 L129 783 Z " />
<glyph glyph-name="Eth" unicode="&#xd0;" horiz-adv-x="722" d="M46 0 L303 0 C353 0 448 2 528 55 C605 106 713 231 713 424 C713 495 697 605 606 670 C542 716 478 716 411 716 L198 716 L133 411 L55 411 L38 330 L116 330 L46 0 Z M211 330 L413 330 L431 411 L228 411 L276 635 L401 635 C484 635 616 634 616 428 C616 270 539 171 480 127 C423 85 320 81 271 81 L158 81 L211 330 Z " />
<glyph glyph-name="Ntilde" unicode="&#xd1;" horiz-adv-x="722" d="M50 0 L143 0 L234 435 C242 474 256 547 261 606 L263 606 C271 579 289 523 336 413 L514 0 L608 0 L758 716 L665 716 L577 295 C559 212 556 197 544 109 L542 109 C519 190 501 251 413 447 L292 716 L199 716 L50 0 Z M600 895 C596 881 590 857 565 857 C553 857 539 861 510 874 C472 891 454 898 428 898 C397 898 376 887 361 868 C346 848 337 821 329 789 L390 789 C395 813 406 830 430 830 C441 830 446 828 467 820 C492 810 493 810 513 801 C536 791 547 788 563 788 C621 788 654 842 659 895 L600 895 Z " />
<glyph glyph-name="Ograve" unicode="&#xd2;" horiz-adv-x="778" d="M89 300 C89 132 202 -12 390 -12 C604 -12 771 176 771 407 C771 593 658 728 469 728 C267 728 89 566 89 300 L89 300 Z M184 295 C184 535 340 649 469 649 C575 649 676 568 676 415 C676 241 562 67 397 67 C291 67 184 147 184 295 L184 295 Z M474 765 L543 765 L486 900 L379 900 L474 765 Z " />
<glyph glyph-name="Oacute" unicode="&#xd3;" horiz-adv-x="778" d="M89 300 C89 132 202 -12 390 -12 C604 -12 771 176 771 407 C771 593 658 728 469 728 C267 728 89 566 89 300 L89 300 Z M184 295 C184 535 340 649 469 649 C575 649 676 568 676 415 C676 241 562 67 397 67 C291 67 184 147 184 295 L184 295 Z M412 765 L485 765 L615 900 L503 900 L412 765 Z " />
<glyph glyph-name="Ocircumflex" unicode="&#xd4;" horiz-adv-x="778" d="M89 300 C89 132 202 -12 390 -12 C604 -12 771 176 771 407 C771 593 658 728 469 728 C267 728 89 566 89 300 L89 300 Z M184 295 C184 535 340 649 469 649 C575 649 676 568 676 415 C676 241 562 67 397 67 C291 67 184 147 184 295 L184 295 Z M343 765 L434 765 L514 852 L553 765 L631 765 L570 900 L473 900 L343 765 Z " />
<glyph glyph-name="Otilde" unicode="&#xd5;" horiz-adv-x="778" d="M89 300 C89 132 202 -12 390 -12 C604 -12 771 176 771 407 C771 593 658 728 469 728 C267 728 89 566 89 300 L89 300 Z M184 295 C184 535 340 649 469 649 C575 649 676 568 676 415 C676 241 562 67 397 67 C291 67 184 147 184 295 L184 295 Z M598 895 C594 881 588 857 563 857 C551 857 537 861 508 874 C470 891 452 898 426 898 C395 898 374 887 359 868 C344 848 335 821 327 789 L388 789 C393 813 404 830 428 830 C439 830 444 828 465 820 C490 810 491 810 511 801 C534 791 545 788 561 788 C619 788 652 842 657 895 L598 895 Z " />
<glyph glyph-name="Odieresis" unicode="&#xd6;" horiz-adv-x="778" d="M89 300 C89 132 202 -12 390 -12 C604 -12 771 176 771 407 C771 593 658 728 469 728 C267 728 89 566 89 300 L89 300 Z M184 295 C184 535 340 649 469 649 C575 649 676 568 676 415 C676 241 562 67 397 67 C291 67 184 147 184 295 L184 295 Z M529 783 L621 783 L642 883 L550 883 L529 783 Z M349 783 L441 783 L462 883 L370 883 L349 783 Z " />
<glyph glyph-name="multiply" unicode="&#xd7;" horiz-adv-x="584" d="M128 200 L187 141 L341 295 L495 141 L554 201 L401 354 L553 507 L495 566 L342 413 L188 567 L129 507 L282 353 L128 200 Z " />
<glyph glyph-name="Oslash" unicode="&#xd8;" horiz-adv-x="778" d="M654 671 C580 726 493 728 467 728 C238 728 89 527 89 312 C89 245 104 158 165 86 L84 -12 L130 -50 L209 45 C261 6 325 -12 390 -12 C607 -12 771 180 771 405 C771 477 755 563 696 631 L775 726 L732 764 L654 671 Z M224 156 C195 200 184 253 184 306 C184 495 309 649 469 649 C522 649 567 627 596 603 L224 156 Z M636 559 C655 529 676 485 676 415 C676 241 563 67 397 67 C349 67 303 84 265 113 L636 559 Z " />
<glyph glyph-name="Ugrave" unicode="&#xd9;" horiz-adv-x="722" d="M200 716 L118 326 C106 271 98 235 98 197 C98 57 213 -12 357 -12 C604 -12 651 215 668 297 L756 716 L660 716 L578 324 C566 267 545 169 493 122 C452 85 400 69 352 69 C272 69 193 112 193 197 C193 223 202 265 205 278 L295 716 L200 716 Z M476 765 L545 765 L488 900 L381 900 L476 765 Z " />
<glyph glyph-name="Uacute" unicode="&#xda;" horiz-adv-x="722" d="M200 716 L118 326 C106 271 98 235 98 197 C98 57 213 -12 357 -12 C604 -12 651 215 668 297 L756 716 L660 716 L578 324 C566 267 545 169 493 122 C452 85 400 69 352 69 C272 69 193 112 193 197 C193 223 202 265 205 278 L295 716 L200 716 Z M404 765 L477 765 L607 900 L495 900 L404 765 Z " />
<glyph glyph-name="Ucircumflex" unicode="&#xdb;" horiz-adv-x="722" d="M200 716 L118 326 C106 271 98 235 98 197 C98 57 213 -12 357 -12 C604 -12 651 215 668 297 L756 716 L660 716 L578 324 C566 267 545 169 493 122 C452 85 400 69 352 69 C272 69 193 112 193 197 C193 223 202 265 205 278 L295 716 L200 716 Z M335 765 L426 765 L506 852 L545 765 L623 765 L562 900 L465 900 L335 765 Z " />
<glyph glyph-name="Udieresis" unicode="&#xdc;" horiz-adv-x="722" d="M200 716 L118 326 C106 271 98 235 98 197 C98 57 213 -12 357 -12 C604 -12 651 215 668 297 L756 716 L660 716 L578 324 C566 267 545 169 493 122 C452 85 400 69 352 69 C272 69 193 112 193 197 C193 223 202 265 205 278 L295 716 L200 716 Z M531 783 L623 783 L644 883 L552 883 L531 783 Z M351 783 L443 783 L464 883 L372 883 L351 783 Z " />
<glyph glyph-name="Yacute" unicode="&#xdd;" horiz-adv-x="667" d="M280 0 L375 0 L432 269 L773 716 L659 716 L491 505 C472 481 420 411 393 361 C360 439 353 452 325 507 L220 716 L117 716 L337 277 L280 0 Z M376 765 L449 765 L579 900 L467 900 L376 765 Z " />
<glyph glyph-name="Thorn" unicode="&#xde;" horiz-adv-x="667" d="M43 0 L139 0 L170 145 L349 145 C402 145 493 153 550 185 C633 232 668 329 668 395 C668 467 632 523 586 549 C556 566 517 571 462 571 L258 571 L289 716 L193 716 L43 0 Z M242 492 L426 492 C496 492 573 493 573 393 C573 329 535 279 493 254 C448 227 366 226 344 226 L187 226 L242 492 Z " />
<glyph glyph-name="germandbls" unicode="&#xdf;" horiz-adv-x="611" d="M34 0 L123 0 L226 494 C237 547 245 584 276 614 C308 645 352 660 384 660 C424 660 460 638 460 605 C460 572 429 534 414 515 C359 446 335 406 335 369 C335 329 366 297 387 277 L413 251 C461 204 476 189 476 161 C476 115 428 60 371 60 C316 60 287 116 273 143 L199 103 C261 -1 329 -12 372 -12 C476 -12 566 67 566 158 C566 212 540 238 481 299 C437 344 426 354 426 380 C426 409 444 431 482 480 C519 527 547 569 547 613 C547 664 491 728 387 728 C306 728 234 690 196 644 C162 602 150 554 140 504 L34 0 Z " />
<glyph glyph-name="agrave" unicode="&#xe0;" horiz-adv-x="556" d="M186 363 C212 438 272 458 329 458 C353 458 441 454 441 385 C441 375 437 348 430 325 C394 311 357 309 281 306 C222 304 46 296 46 138 C46 42 119 -12 206 -12 C296 -12 356 40 384 65 C385 54 387 25 395 0 L484 0 C484 1 483 6 482 7 C477 33 474 48 474 70 C474 104 480 138 487 171 L516 299 C528 354 529 391 529 396 C529 482 440 530 333 530 C274 530 186 517 129 436 C110 409 102 388 96 371 L186 363 Z M417 263 C408 211 398 168 373 132 C340 84 286 56 232 56 C157 56 134 104 134 142 C134 225 224 236 281 241 C361 248 384 250 417 263 L417 263 Z M353 581 L422 581 L365 716 L258 716 L353 581 Z " />
<glyph glyph-name="aacute" unicode="&#xe1;" horiz-adv-x="556" d="M186 363 C212 438 272 458 329 458 C353 458 441 454 441 385 C441 375 437 348 430 325 C394 311 357 309 281 306 C222 304 46 296 46 138 C46 42 119 -12 206 -12 C296 -12 356 40 384 65 C385 54 387 25 395 0 L484 0 C484 1 483 6 482 7 C477 33 474 48 474 70 C474 104 480 138 487 171 L516 299 C528 354 529 391 529 396 C529 482 440 530 333 530 C274 530 186 517 129 436 C110 409 102 388 96 371 L186 363 Z M417 263 C408 211 398 168 373 132 C340 84 286 56 232 56 C157 56 134 104 134 142 C134 225 224 236 281 241 C361 248 384 250 417 263 L417 263 Z M281 581 L354 581 L484 716 L372 716 L281 581 Z " />
<glyph glyph-name="acircumflex" unicode="&#xe2;" horiz-adv-x="556" d="M186 363 C212 438 272 458 329 458 C353 458 441 454 441 385 C441 375 437 348 430 325 C394 311 357 309 281 306 C222 304 46 296 46 138 C46 42 119 -12 206 -12 C296 -12 356 40 384 65 C385 54 387 25 395 0 L484 0 C484 1 483 6 482 7 C477 33 474 48 474 70 C474 104 480 138 487 171 L516 299 C528 354 529 391 529 396 C529 482 440 530 333 530 C274 530 186 517 129 436 C110 409 102 388 96 371 L186 363 Z M417 263 C408 211 398 168 373 132 C340 84 286 56 232 56 C157 56 134 104 134 142 C134 225 224 236 281 241 C361 248 384 250 417 263 L417 263 Z M212 581 L303 581 L383 668 L422 581 L500 581 L439 716 L342 716 L212 581 Z " />
<glyph glyph-name="atilde" unicode="&#xe3;" horiz-adv-x="556" d="M186 363 C212 438 272 458 329 458 C353 458 441 454 441 385 C441 375 437 348 430 325 C394 311 357 309 281 306 C222 304 46 296 46 138 C46 42 119 -12 206 -12 C296 -12 356 40 384 65 C385 54 387 25 395 0 L484 0 C484 1 483 6 482 7 C477 33 474 48 474 70 C474 104 480 138 487 171 L516 299 C528 354 529 391 529 396 C529 482 440 530 333 530 C274 530 186 517 129 436 C110 409 102 388 96 371 L186 363 Z M417 263 C408 211 398 168 373 132 C340 84 286 56 232 56 C157 56 134 104 134 142 C134 225 224 236 281 241 C361 248 384 250 417 263 L417 263 Z M477 711 C473 697 467 673 442 673 C430 673 416 677 387 690 C349 707 331 714 305 714 C274 714 253 703 238 684 C223 664 214 637 206 605 L267 605 C272 629 283 646 307 646 C318 646 323 644 344 636 C369 626 370 626 390 617 C413 607 424 604 440 604 C498 604 531 658 536 711 L477 711 Z " />
<glyph glyph-name="adieresis" unicode="&#xe4;" horiz-adv-x="556" d="M186 363 C212 438 272 458 329 458 C353 458 441 454 441 385 C441 375 437 348 430 325 C394 311 357 309 281 306 C222 304 46 296 46 138 C46 42 119 -12 206 -12 C296 -12 356 40 384 65 C385 54 387 25 395 0 L484 0 C484 1 483 6 482 7 C477 33 474 48 474 70 C474 104 480 138 487 171 L516 299 C528 354 529 391 529 396 C529 482 440 530 333 530 C274 530 186 517 129 436 C110 409 102 388 96 371 L186 363 Z M417 263 C408 211 398 168 373 132 C340 84 286 56 232 56 C157 56 134 104 134 142 C134 225 224 236 281 241 C361 248 384 250 417 263 L417 263 Z M408 599 L500 599 L521 699 L429 699 L408 599 Z M228 599 L320 599 L341 699 L249 699 L228 599 Z " />
<glyph glyph-name="aring" unicode="&#xe5;" horiz-adv-x="556" d="M186 363 C212 438 272 458 329 458 C353 458 441 454 441 385 C441 375 437 348 430 325 C394 311 357 309 281 306 C222 304 46 296 46 138 C46 42 119 -12 206 -12 C296 -12 356 40 384 65 C385 54 387 25 395 0 L484 0 C484 1 483 6 482 7 C477 33 474 48 474 70 C474 104 480 138 487 171 L516 299 C528 354 529 391 529 396 C529 482 440 530 333 530 C274 530 186 517 129 436 C110 409 102 388 96 371 L186 363 Z M417 263 C408 211 398 168 373 132 C340 84 286 56 232 56 C157 56 134 104 134 142 C134 225 224 236 281 241 C361 248 384 250 417 263 L417 263 Z M272 663 C272 613 313 574 361 574 C409 574 450 613 450 663 C450 713 410 752 361 752 C312 752 272 713 272 663 L272 663 Z M309 662 C309 691 332 715 361 715 C390 715 413 692 413 662 C413 633 390 611 361 611 C333 611 309 633 309 662 L309 662 Z " />
<glyph glyph-name="ae" unicode="&#xe6;" horiz-adv-x="889" d="M749 175 C706 89 645 61 595 61 C535 61 481 101 481 208 C481 222 481 229 482 237 L860 237 C862 252 867 285 867 314 C867 427 799 530 663 530 C599 530 537 506 493 459 C478 479 436 531 331 531 C224 531 132 484 95 371 L182 364 C193 391 220 462 329 462 C376 462 422 443 422 383 C422 381 422 358 410 323 C376 312 325 308 316 307 C226 300 195 298 155 286 C65 259 45 190 45 139 C45 73 82 -12 208 -12 C268 -12 314 13 335 27 C374 54 393 83 407 103 C415 87 426 67 449 45 C488 7 541 -12 593 -12 C753 -12 816 120 838 167 L749 175 Z M397 256 C388 202 353 57 229 57 C158 57 133 104 133 144 C133 225 211 231 271 237 C345 244 369 250 397 256 L397 256 Z M499 304 C525 399 597 462 667 462 C693 462 766 454 783 346 C785 333 784 325 784 304 L499 304 Z " />
<glyph glyph-name="ccedilla" unicode="&#xe7;" horiz-adv-x="500" d="M263 -11 C371 -3 442 71 479 180 L391 189 C373 136 328 56 247 56 C208 56 146 83 146 184 C146 261 174 458 321 458 C346 458 423 449 424 353 L510 358 C511 492 404 530 329 530 C127 530 56 333 56 194 C56 26 173 -1 208 -9 L182 -73 C209 -72 252 -71 252 -104 C252 -147 176 -145 131 -144 L113 -197 C130 -198 152 -199 170 -199 C207 -199 330 -187 330 -102 C330 -84 322 -40 252 -39 L263 -11 Z " />
<glyph glyph-name="egrave" unicode="&#xe8;" horiz-adv-x="556" d="M414 176 C373 81 294 60 256 60 C195 60 141 110 141 210 C141 221 142 227 143 237 L525 237 C528 257 532 277 532 316 C532 405 487 530 328 530 C136 530 53 340 53 208 C53 64 144 -12 256 -12 C391 -12 479 96 500 167 L414 176 Z M157 305 C177 371 228 462 330 462 C385 462 442 429 448 345 C449 330 449 319 448 305 L157 305 Z M353 581 L422 581 L365 716 L258 716 L353 581 Z " />
<glyph glyph-name="eacute" unicode="&#xe9;" horiz-adv-x="556" d="M414 176 C373 81 294 60 256 60 C195 60 141 110 141 210 C141 221 142 227 143 237 L525 237 C528 257 532 277 532 316 C532 405 487 530 328 530 C136 530 53 340 53 208 C53 64 144 -12 256 -12 C391 -12 479 96 500 167 L414 176 Z M157 305 C177 371 228 462 330 462 C385 462 442 429 448 345 C449 330 449 319 448 305 L157 305 Z M281 581 L354 581 L484 716 L372 716 L281 581 Z " />
<glyph glyph-name="ecircumflex" unicode="&#xea;" horiz-adv-x="556" d="M414 176 C373 81 294 60 256 60 C195 60 141 110 141 210 C141 221 142 227 143 237 L525 237 C528 257 532 277 532 316 C532 405 487 530 328 530 C136 530 53 340 53 208 C53 64 144 -12 256 -12 C391 -12 479 96 500 167 L414 176 Z M157 305 C177 371 228 462 330 462 C385 462 442 429 448 345 C449 330 449 319 448 305 L157 305 Z M212 581 L303 581 L383 668 L422 581 L500 581 L439 716 L342 716 L212 581 Z " />
<glyph glyph-name="edieresis" unicode="&#xeb;" horiz-adv-x="556" d="M414 176 C373 81 294 60 256 60 C195 60 141 110 141 210 C141 221 142 227 143 237 L525 237 C528 257 532 277 532 316 C532 405 487 530 328 530 C136 530 53 340 53 208 C53 64 144 -12 256 -12 C391 -12 479 96 500 167 L414 176 Z M157 305 C177 371 228 462 330 462 C385 462 442 429 448 345 C449 330 449 319 448 305 L157 305 Z M408 599 L500 599 L521 699 L429 699 L408 599 Z M228 599 L320 599 L341 699 L249 699 L228 599 Z " />
<glyph glyph-name="igrave" unicode="&#xec;" horiz-adv-x="278" d="M59 0 L147 0 L256 518 L167 518 L59 0 Z M214 581 L283 581 L226 716 L119 716 L214 581 Z " />
<glyph glyph-name="iacute" unicode="&#xed;" horiz-adv-x="278" d="M59 0 L147 0 L256 518 L167 518 L59 0 Z M142 581 L215 581 L345 716 L233 716 L142 581 Z " />
<glyph glyph-name="icircumflex" unicode="&#xee;" horiz-adv-x="278" d="M59 0 L147 0 L256 518 L167 518 L59 0 Z M73 581 L164 581 L244 668 L283 581 L361 581 L300 716 L203 716 L73 581 Z " />
<glyph glyph-name="idieresis" unicode="&#xef;" horiz-adv-x="278" d="M59 0 L147 0 L256 518 L167 518 L59 0 Z M269 599 L361 599 L382 699 L290 699 L269 599 Z M89 599 L181 599 L202 699 L110 699 L89 599 Z " />
<glyph glyph-name="eth" unicode="&#xf0;" horiz-adv-x="556" d="M308 716 C332 693 337 687 368 647 L276 606 L299 557 L399 602 C423 558 442 512 451 463 L449 461 C426 484 387 518 308 518 C169 518 51 373 51 200 C51 89 117 -12 263 -12 C493 -12 548 232 548 344 C548 503 496 589 468 634 L544 668 L522 716 L436 679 C433 684 415 702 400 716 L308 716 Z M454 309 C454 225 399 60 265 60 C162 60 141 144 141 203 C141 295 193 446 328 446 C388 446 454 412 454 309 L454 309 Z " />
<glyph glyph-name="ntilde" unicode="&#xf1;" horiz-adv-x="556" d="M33 0 L122 0 L172 241 C187 311 210 366 236 394 C265 427 314 458 371 458 C400 458 440 446 440 399 C440 383 437 361 430 329 L361 0 L450 0 L515 314 C520 339 528 377 528 405 C528 515 431 530 393 530 C303 530 235 460 205 428 L203 430 L222 518 L142 518 L33 0 Z M477 711 C473 697 467 673 442 673 C430 673 416 677 387 690 C349 707 331 714 305 714 C274 714 253 703 238 684 C223 664 214 637 206 605 L267 605 C272 629 283 646 307 646 C318 646 323 644 344 636 C369 626 370 626 390 617 C413 607 424 604 440 604 C498 604 531 658 536 711 L477 711 Z " />
<glyph glyph-name="ograve" unicode="&#xf2;" horiz-adv-x="556" d="M51 197 C51 57 151 -12 263 -12 C416 -12 542 120 542 313 C542 448 457 530 333 530 C153 530 51 374 51 197 L51 197 Z M139 206 C139 316 202 462 330 462 C415 462 454 392 454 314 C454 203 384 56 264 56 C235 56 139 68 139 206 L139 206 Z M353 581 L422 581 L365 716 L258 716 L353 581 Z " />
<glyph glyph-name="oacute" unicode="&#xf3;" horiz-adv-x="556" d="M51 197 C51 57 151 -12 263 -12 C416 -12 542 120 542 313 C542 448 457 530 333 530 C153 530 51 374 51 197 L51 197 Z M139 206 C139 316 202 462 330 462 C415 462 454 392 454 314 C454 203 384 56 264 56 C235 56 139 68 139 206 L139 206 Z M281 581 L354 581 L484 716 L372 716 L281 581 Z " />
<glyph glyph-name="ocircumflex" unicode="&#xf4;" horiz-adv-x="556" d="M51 197 C51 57 151 -12 263 -12 C416 -12 542 120 542 313 C542 448 457 530 333 530 C153 530 51 374 51 197 L51 197 Z M139 206 C139 316 202 462 330 462 C415 462 454 392 454 314 C454 203 384 56 264 56 C235 56 139 68 139 206 L139 206 Z M212 581 L303 581 L383 668 L422 581 L500 581 L439 716 L342 716 L212 581 Z " />
<glyph glyph-name="otilde" unicode="&#xf5;" horiz-adv-x="556" d="M51 197 C51 57 151 -12 263 -12 C416 -12 542 120 542 313 C542 448 457 530 333 530 C153 530 51 374 51 197 L51 197 Z M139 206 C139 316 202 462 330 462 C415 462 454 392 454 314 C454 203 384 56 264 56 C235 56 139 68 139 206 L139 206 Z M477 711 C473 697 467 673 442 673 C430 673 416 677 387 690 C349 707 331 714 305 714 C274 714 253 703 238 684 C223 664 214 637 206 605 L267 605 C272 629 283 646 307 646 C318 646 323 644 344 636 C369 626 370 626 390 617 C413 607 424 604 440 604 C498 604 531 658 536 711 L477 711 Z " />
<glyph glyph-name="odieresis" unicode="&#xf6;" horiz-adv-x="556" d="M51 197 C51 57 151 -12 263 -12 C416 -12 542 120 542 313 C542 448 457 530 333 530 C153 530 51 374 51 197 L51 197 Z M139 206 C139 316 202 462 330 462 C415 462 454 392 454 314 C454 203 384 56 264 56 C235 56 139 68 139 206 L139 206 Z M408 599 L500 599 L521 699 L429 699 L408 599 Z M228 599 L320 599 L341 699 L249 699 L228 599 Z " />
<glyph glyph-name="divide" unicode="&#xf7;" horiz-adv-x="584" d="M572 312 L572 394 L98 394 L98 312 L572 312 Z M285 460 L385 460 L385 560 L285 560 L285 460 Z M285 146 L385 146 L385 246 L285 246 L285 146 Z " />
<glyph glyph-name="oslash" unicode="&#xf8;" horiz-adv-x="611" d="M481 497 C468 505 429 530 360 530 C161 530 78 347 78 203 C78 122 105 80 127 54 L71 -16 L115 -50 L170 19 C190 8 230 -12 289 -12 C449 -12 569 127 569 311 C569 372 553 421 523 459 L580 531 L536 566 L481 497 Z M182 123 C170 147 166 173 166 204 C166 310 225 462 357 462 C401 462 424 443 432 436 L182 123 Z M467 389 C473 374 481 355 481 314 C481 202 411 56 290 56 C262 56 238 65 218 79 L467 389 Z " />
<glyph glyph-name="ugrave" unicode="&#xf9;" horiz-adv-x="556" d="M81 219 C72 174 64 140 64 107 C64 32 129 -12 198 -12 C276 -12 339 37 387 94 L389 92 L369 0 L451 0 L559 518 L471 518 L424 294 C410 225 396 163 342 112 C299 72 258 60 224 60 C212 60 152 61 152 123 C152 143 157 168 161 187 L231 518 L143 518 L81 219 Z M353 581 L422 581 L365 716 L258 716 L353 581 Z " />
<glyph glyph-name="uacute" unicode="&#xfa;" horiz-adv-x="556" d="M81 219 C72 174 64 140 64 107 C64 32 129 -12 198 -12 C276 -12 339 37 387 94 L389 92 L369 0 L451 0 L559 518 L471 518 L424 294 C410 225 396 163 342 112 C299 72 258 60 224 60 C212 60 152 61 152 123 C152 143 157 168 161 187 L231 518 L143 518 L81 219 Z M281 581 L354 581 L484 716 L372 716 L281 581 Z " />
<glyph glyph-name="ucircumflex" unicode="&#xfb;" horiz-adv-x="556" d="M81 219 C72 174 64 140 64 107 C64 32 129 -12 198 -12 C276 -12 339 37 387 94 L389 92 L369 0 L451 0 L559 518 L471 518 L424 294 C410 225 396 163 342 112 C299 72 258 60 224 60 C212 60 152 61 152 123 C152 143 157 168 161 187 L231 518 L143 518 L81 219 Z M212 581 L303 581 L383 668 L422 581 L500 581 L439 716 L342 716 L212 581 Z " />
<glyph glyph-name="udieresis" unicode="&#xfc;" horiz-adv-x="556" d="M81 219 C72 174 64 140 64 107 C64 32 129 -12 198 -12 C276 -12 339 37 387 94 L389 92 L369 0 L451 0 L559 518 L471 518 L424 294 C410 225 396 163 342 112 C299 72 258 60 224 60 C212 60 152 61 152 123 C152 143 157 168 161 187 L231 518 L143 518 L81 219 Z M408 599 L500 599 L521 699 L429 699 L408 599 Z M228 599 L320 599 L341 699 L249 699 L228 599 Z " />
<glyph glyph-name="yacute" unicode="&#xfd;" horiz-adv-x="500" d="M0 -200 C25 -209 46 -210 60 -210 C151 -210 194 -135 231 -69 L561 518 L469 518 L238 101 L236 101 C229 179 219 243 217 256 L178 518 L91 518 L177 -2 L149 -52 C115 -112 93 -125 58 -125 C33 -125 17 -121 5 -117 L0 -200 Z M253 581 L326 581 L456 716 L344 716 L253 581 Z " />
<glyph glyph-name="thorn" unicode="&#xfe;" horiz-adv-x="556" d="M-8 -199 L80 -199 L139 83 C172 22 216 -12 283 -12 C413 -12 537 133 537 321 C537 458 462 530 365 530 C315 530 271 510 219 456 L217 458 L272 716 L183 716 L-8 -199 Z M166 211 C166 242 178 304 206 358 C233 412 277 458 339 458 C414 458 449 392 449 320 C449 244 403 60 279 60 C264 60 231 63 205 87 C166 122 166 161 166 211 L166 211 Z " />
<glyph glyph-name="ydieresis" unicode="&#xff;" horiz-adv-x="500" d="M0 -200 C25 -209 46 -210 60 -210 C151 -210 194 -135 231 -69 L561 518 L469 518 L238 101 L236 101 C229 179 219 243 217 256 L178 518 L91 518 L177 -2 L149 -52 C115 -112 93 -125 58 -125 C33 -125 17 -121 5 -117 L0 -200 Z M380 599 L472 599 L493 699 L401 699 L380 599 Z M200 599 L292 599 L313 699 L221 699 L200 599 Z " />
<glyph glyph-name="dotlessi" unicode="&#x131;" horiz-adv-x="278" d="M59 0 L147 0 L256 518 L167 518 L59 0 Z " />
<glyph glyph-name="Lslash" unicode="&#x141;" horiz-adv-x="556" d="M105 294 L43 0 L509 0 L526 81 L156 81 L213 354 L404 461 L421 542 L230 437 L289 716 L193 716 L122 376 L31 326 L14 243 L105 294 Z " />
<glyph glyph-name="lslash" unicode="&#x142;" horiz-adv-x="222" d="M94 304 L30 0 L119 0 L193 357 L270 398 L286 474 L209 433 L268 716 L180 716 L110 380 L35 341 L20 265 L94 304 Z " />
<glyph glyph-name="OE" unicode="&#x152;" horiz-adv-x="1000" d="M620 631 C565 709 490 728 436 728 C237 728 80 539 80 289 C80 81 196 -12 334 -12 C431 -12 476 30 498 53 L500 51 L489 0 L931 0 L948 81 L601 81 L653 327 L966 327 L983 408 L670 408 L717 634 L1027 634 L1044 716 L638 716 L620 631 Z M175 300 C175 449 273 649 429 649 C508 649 585 590 585 490 C585 441 555 287 534 229 C523 199 476 67 342 67 C285 67 235 97 210 134 C188 167 175 206 175 300 L175 300 Z " />
<glyph glyph-name="oe" unicode="&#x153;" horiz-adv-x="944" d="M908 236 C912 255 917 292 917 316 C917 441 838 530 714 530 C609 530 555 474 516 433 C461 530 356 530 335 530 C150 530 61 358 61 204 C61 49 160 -12 265 -12 C382 -12 441 57 469 89 C508 15 575 -12 645 -12 C766 -12 850 84 886 167 L795 176 C777 135 724 60 646 60 C554 60 531 155 531 203 C531 219 532 227 533 236 L908 236 Z M147 209 C147 289 194 462 336 462 C428 462 455 375 455 323 C455 216 393 56 266 56 C147 56 147 181 147 209 L147 209 Z M547 304 C590 432 667 462 715 462 C735 462 844 458 831 304 L547 304 Z " />
<glyph glyph-name="Scaron" unicode="&#x160;" horiz-adv-x="667" d="M71 232 C71 172 82 129 98 98 C142 12 259 -12 347 -12 C517 -12 623 83 623 198 C623 315 540 352 403 412 C298 458 252 480 252 542 C252 634 360 649 406 649 C477 649 558 625 575 544 C577 532 578 530 578 506 L671 513 C676 607 612 728 410 728 C264 728 159 657 159 537 C159 417 264 373 369 327 C472 282 526 255 526 191 C526 128 467 67 350 67 C216 67 181 128 168 180 C163 200 163 209 164 240 L71 232 Z M603 900 L512 900 L432 813 L393 900 L315 900 L376 765 L473 765 L603 900 Z " />
<glyph glyph-name="scaron" unicode="&#x161;" horiz-adv-x="500" d="M38 177 C32 0 201 -12 250 -12 C395 -12 461 71 461 146 C461 240 386 272 291 313 C226 341 193 355 193 396 C193 426 226 462 290 462 C306 462 406 460 410 361 L498 366 C494 502 372 530 296 530 C158 530 111 443 111 381 C111 296 176 269 265 230 C327 203 372 181 372 135 C372 85 319 56 255 56 C129 56 127 155 127 183 L38 177 Z M500 716 L409 716 L329 629 L290 716 L212 716 L273 581 L370 581 L500 716 Z " />
<glyph glyph-name="Ydieresis" unicode="&#x178;" horiz-adv-x="667" d="M280 0 L375 0 L432 269 L773 716 L659 716 L491 505 C472 481 420 411 393 361 C360 439 353 452 325 507 L220 716 L117 716 L337 277 L280 0 Z M503 783 L595 783 L616 883 L524 883 L503 783 Z M323 783 L415 783 L436 883 L344 883 L323 783 Z " />
<glyph glyph-name="Zcaron" unicode="&#x17d;" horiz-adv-x="611" d="M23 0 L553 0 L570 81 L234 81 L181 82 C174 82 167 81 154 79 L152 81 C168 96 180 111 210 147 C213 149 219 157 226 164 C233 173 240 182 243 184 L627 641 L635 716 L141 716 L124 635 L365 635 L445 636 C463 636 492 639 506 641 L508 639 C494 626 479 607 434 553 C419 535 403 515 390 500 L32 72 L23 0 Z M575 900 L484 900 L404 813 L365 900 L287 900 L348 765 L445 765 L575 900 Z " />
<glyph glyph-name="zcaron" unicode="&#x17e;" horiz-adv-x="500" d="M20 0 L437 0 L453 78 L249 78 C233 78 209 78 186 76 L148 73 C171 96 195 120 219 147 L501 463 L512 518 L111 518 L96 446 L289 446 C303 446 326 447 348 449 L377 452 L379 450 C358 431 342 415 313 382 L34 68 L20 0 Z M500 716 L409 716 L329 629 L290 716 L212 716 L273 581 L370 581 L500 716 Z " />
<glyph glyph-name="florin" unicode="&#x192;" horiz-adv-x="556" d="M47 -198 C110 -210 149 -210 156 -210 C235 -210 268 -170 283 -83 L376 440 L476 440 L488 508 L388 508 L398 559 C408 611 415 637 462 637 C483 637 501 633 537 625 L554 700 L545 702 C519 710 488 719 449 719 C337 719 320 636 310 574 L299 508 L200 508 L189 440 L287 440 L200 -58 C193 -96 188 -133 138 -133 C122 -133 101 -130 63 -122 L47 -198 Z " />
<glyph glyph-name="circumflex" unicode="&#x2c6;" horiz-adv-x="333" d="M100 581 L191 581 L271 668 L310 581 L388 581 L327 716 L230 716 L100 581 Z " />
<glyph glyph-name="caron" unicode="&#x2c7;" horiz-adv-x="333" d="M416 716 L325 716 L245 629 L206 716 L128 716 L189 581 L286 581 L416 716 Z " />
<glyph glyph-name="breve" unicode="&#x2d8;" horiz-adv-x="333" d="M107 710 C110 641 153 582 238 582 C342 582 386 664 399 710 L341 710 C332 687 305 641 241 641 C208 641 190 653 179 667 C169 682 167 699 165 710 L107 710 Z " />
<glyph glyph-name="dotaccent" unicode="&#x2d9;" horiz-adv-x="333" d="M204 599 L296 599 L317 699 L225 699 L204 599 Z " />
<glyph glyph-name="ring" unicode="&#x2da;" horiz-adv-x="333" d="M160 663 C160 613 201 574 249 574 C297 574 338 613 338 663 C338 713 298 752 249 752 C200 752 160 713 160 663 L160 663 Z M197 662 C197 691 220 715 249 715 C278 715 301 692 301 662 C301 633 278 611 249 611 C221 611 197 633 197 662 L197 662 Z " />
<glyph glyph-name="ogonek" unicode="&#x2db;" horiz-adv-x="333" d="M97 13 C75 -32 61 -80 61 -118 C61 -146 69 -207 149 -207 C196 -207 234 -190 253 -180 L265 -121 C228 -136 202 -143 179 -143 C169 -143 123 -138 123 -85 C123 -51 145 -2 151 13 L97 13 Z " />
<glyph glyph-name="tilde" unicode="&#x2dc;" horiz-adv-x="333" d="M365 711 C361 697 355 673 330 673 C318 673 304 677 275 690 C237 707 219 714 193 714 C162 714 141 703 126 684 C111 664 102 637 94 605 L155 605 C160 629 171 646 195 646 C206 646 211 644 232 636 C257 626 258 626 278 617 C301 607 312 604 328 604 C386 604 419 658 424 711 L365 711 Z " />
<glyph glyph-name="hungarumlaut" unicode="&#x2dd;" horiz-adv-x="333" d="M86 581 L159 581 L289 716 L177 716 L86 581 Z M251 581 L324 581 L454 716 L342 716 L251 581 Z " />
<glyph glyph-name="endash" unicode="&#x2013;" horiz-adv-x="556" d="M18 224 L582 224 L582 295 L18 295 L18 224 Z " />
<glyph glyph-name="emdash" unicode="&#x2014;" horiz-adv-x="1000" d="M23 224 L1035 224 L1035 295 L23 295 L23 224 Z " />
<glyph glyph-name="quoteleft" unicode="&#x2018;" horiz-adv-x="222" d="M252 583 L197 583 C216 673 258 685 274 689 L282 728 C179 715 155 605 148 570 L130 483 L231 483 L252 583 Z " />
<glyph glyph-name="quoteright" unicode="&#x2019;" horiz-adv-x="222" d="M156 616 L211 616 C192 526 150 514 134 510 L126 471 C229 484 253 594 260 629 L278 716 L177 716 L156 616 Z " />
<glyph glyph-name="quotesinglbase" unicode="&#x201a;" horiz-adv-x="222" d="M24 0 L79 0 C60 -90 18 -102 2 -106 L-6 -145 C97 -132 120 -22 128 13 L146 100 L45 100 L24 0 Z " />
<glyph glyph-name="quotedblleft" unicode="&#x201c;" horiz-adv-x="333" d="M384 583 L329 583 C348 673 390 685 406 689 L414 728 C311 715 287 605 280 570 L262 483 L363 483 L384 583 Z M225 583 L170 583 C189 673 231 685 247 689 L255 728 C152 715 128 605 121 570 L103 483 L204 483 L225 583 Z " />
<glyph glyph-name="quotedblright" unicode="&#x201d;" horiz-adv-x="333" d="M136 616 L191 616 C172 526 130 514 114 510 L106 471 C209 484 233 594 240 629 L258 716 L157 716 L136 616 Z M295 616 L350 616 C331 526 289 514 273 510 L265 471 C368 484 392 594 399 629 L417 716 L316 716 L295 616 Z " />
<glyph glyph-name="quotedblbase" unicode="&#x201e;" horiz-adv-x="333" d="M11 0 L66 0 C47 -90 5 -102 -11 -106 L-19 -145 C84 -132 108 -22 115 13 L133 100 L32 100 L11 0 Z M170 0 L225 0 C206 -90 164 -102 148 -106 L140 -145 C243 -132 267 -22 274 13 L292 100 L191 100 L170 0 Z " />
<glyph glyph-name="dagger" unicode="&#x2020;" horiz-adv-x="556" d="M162 -170 L250 -170 L374 424 L568 424 L583 498 L390 498 L433 706 L345 706 L301 498 L106 498 L91 424 L286 424 L162 -170 Z " />
<glyph glyph-name="daggerdbl" unicode="&#x2021;" horiz-adv-x="556" d="M162 -170 L250 -170 L288 13 L481 13 L497 87 L304 87 L379 446 L571 446 L589 523 L395 523 L433 706 L345 706 L306 523 L111 523 L95 446 L290 446 L216 87 L21 87 L5 13 L200 13 L162 -170 Z M162 -170 L250 -170 L374 424 L568 424 L583 498 L390 498 L433 706 L345 706 L301 498 L106 498 L91 424 L286 424 L162 -170 Z M162 -170 L250 -170 L374 424 L568 424 L583 498 L390 498 L433 706 L345 706 L301 498 L106 498 L91 424 L286 424 L162 -170 Z " />
<glyph glyph-name="bullet" unicode="&#x2022;" horiz-adv-x="350" d="M220 475 C288 475 344 419 344 351 C344 283 288 227 220 227 C152 227 96 283 96 351 C96 419 152 475 220 475 L220 475 Z " />
<glyph glyph-name="ellipsis" unicode="&#x2026;" horiz-adv-x="1000" d="M478 0 L577 0 L598 100 L499 100 L478 0 Z M812 0 L911 0 L932 100 L833 100 L812 0 Z M144 0 L243 0 L264 100 L165 100 L144 0 Z " />
<glyph glyph-name="perthousand" unicode="&#x2030;" horiz-adv-x="1000" d="M137 485 C137 496 152 669 240 669 C293 669 293 613 293 603 C293 566 271 409 190 409 C137 409 137 461 137 485 L137 485 Z M98 -27 L171 -27 L636 728 L562 728 L98 -27 Z M65 487 C65 463 65 350 189 350 C341 350 365 552 365 600 C365 678 320 728 242 728 C159 728 114 673 91 615 C68 557 65 497 65 487 L65 487 Z M368 110 C368 86 368 -27 492 -27 C644 -27 668 175 668 223 C668 301 623 351 545 351 C462 351 417 296 394 238 C371 180 368 120 368 110 L368 110 Z M440 108 C440 119 455 292 543 292 C596 292 596 236 596 226 C596 189 574 32 493 32 C440 32 440 84 440 108 L440 108 Z M704 110 C704 86 704 -27 828 -27 C981 -27 1003 177 1003 223 C1003 302 957 351 881 351 C798 351 753 296 730 238 C707 180 704 120 704 110 L704 110 Z M776 108 C776 119 791 292 879 292 C931 292 931 236 931 226 C931 189 909 32 829 32 C776 32 776 84 776 108 L776 108 Z " />
<glyph glyph-name="guilsinglleft" unicode="&#x2039;" horiz-adv-x="333" d="M137 257 L314 478 L241 478 L47 268 L149 35 L215 35 L137 257 Z " />
<glyph glyph-name="guilsinglright" unicode="&#x203a;" horiz-adv-x="333" d="M196 256 L19 35 L92 35 L286 245 L184 478 L118 478 L196 256 Z " />
<glyph glyph-name="fraction" unicode="&#x2044;" horiz-adv-x="167" d="M-261 -30 L-183 -30 L505 728 L420 728 L-261 -30 Z " />
<glyph glyph-name="trademark" unicode="&#x2122;" horiz-adv-x="1000" d="M283 318 L349 318 L349 657 L479 657 L479 716 L154 716 L154 657 L283 657 L283 318 Z M524 318 L585 318 L585 657 L587 657 L692 318 L752 318 L852 652 L854 652 L854 318 L915 318 L915 716 L819 716 L723 398 L721 398 L622 716 L524 716 L524 318 Z " />
<glyph glyph-name="minus" unicode="&#x2212;" horiz-adv-x="584" d="M572 312 L572 394 L98 394 L98 312 L572 312 Z " />
<glyph glyph-name="fi" unicode="&#xfb01;" horiz-adv-x="500" d="M54 0 L142 0 L236 450 L335 450 L349 518 L250 518 L262 574 C272 619 278 649 325 649 C355 649 386 640 400 637 L416 714 C396 718 352 728 318 728 C206 728 191 662 177 592 L162 518 L83 518 L69 450 L148 450 L54 0 Z M307 0 L395 0 L504 518 L416 518 L307 0 Z M435 612 L523 612 L545 716 L457 716 L435 612 Z " />
<glyph glyph-name="fl" unicode="&#xfb02;" horiz-adv-x="500" d="M54 0 L142 0 L236 450 L335 450 L349 518 L250 518 L262 574 C272 619 278 649 325 649 C355 649 386 640 400 637 L416 714 C396 718 352 728 318 728 C206 728 191 662 177 592 L162 518 L83 518 L69 450 L148 450 L54 0 Z M307 0 L395 0 L545 716 L457 716 L307 0 Z " />
</font>
</svg>
