<?xml version="1.0" encoding="UTF-8"?>
<svg xmlns="http://www.w3.org/2000/svg" xmlns:xlink="http://www.w3.org/1999/xlink" version="1.2" >
<font id="Arial MT Medium">
<font-face  font-family="Arial MT" units-per-em="1000" ascent="750" descent="-250" font-style="normal" font-weight="500" font-stretch="normal" cap-height="750" x-height="500" underline-position="-75" underline-thickness="50" />
<missing-glyph  horiz-adv-x="276" d="" />
<glyph glyph-name="NULL" d="" />
<glyph glyph-name="CR" unicode="&#xd;" horiz-adv-x="250" d="" />
<glyph glyph-name="space" unicode="&#x20;" horiz-adv-x="276" d="M180 0 L180 0 Z " />
<glyph glyph-name="exclam" unicode="&#x21;" horiz-adv-x="302" d="M91 0 L209 0 L209 118 L91 118 L91 0 Z M117 181 L183 181 L213 553 L213 716 L86 716 L86 553 L117 181 Z " />
<glyph glyph-name="quotedbl" unicode="&#x22;" horiz-adv-x="406" d="M70 462 L147 462 L170 595 L170 716 L46 716 L46 595 L70 462 Z M260 462 L337 462 L360 595 L360 716 L236 716 L236 595 L260 462 Z " />
<glyph glyph-name="numbersign" unicode="&#x23;" horiz-adv-x="552" d="M43 -12 L134 -12 L174 188 L307 188 L266 -12 L357 -12 L397 188 L543 188 L543 277 L415 277 L449 438 L543 438 L543 527 L467 527 L507 728 L415 728 L375 527 L243 527 L283 728 L193 728 L153 527 L9 527 L9 438 L135 438 L102 277 L9 277 L9 188 L84 188 L43 -12 Z M225 438 L357 438 L324 277 L192 277 L225 438 Z " />
<glyph glyph-name="dollar" unicode="&#x24;" horiz-adv-x="552" d="M244 -102 L305 -102 L305 -12 C435 -2 511 96 511 208 C511 364 387 397 305 419 L305 643 C323 638 373 625 386 545 L492 559 C468 711 347 727 305 733 L305 778 L244 778 L244 733 C125 720 50 641 50 533 C50 399 153 351 244 325 L244 82 C200 94 157 120 141 214 L35 200 C55 13 199 -8 244 -14 L244 -102 Z M244 437 C181 459 155 494 155 540 C155 571 168 625 244 644 L244 437 Z M305 309 C360 294 407 266 407 197 C407 128 357 86 305 78 L305 309 Z " />
<glyph glyph-name="percent" unicode="&#x25;" horiz-adv-x="885" d="M206 660 C267 660 270 581 270 540 C270 498 268 419 206 419 C145 419 142 500 142 539 C142 577 145 660 206 660 L206 660 Z M678 728 L594 728 L207 -26 L294 -26 L678 728 Z M361 540 C361 576 356 632 324 674 C304 700 264 728 205 728 C169 728 108 716 77 658 C56 619 51 571 51 537 C51 411 116 351 205 351 C267 351 361 383 361 540 L361 540 Z M835 163 C835 185 833 240 807 283 C786 318 744 351 678 351 C538 351 524 217 524 159 C524 42 584 -26 678 -26 C739 -26 835 6 835 163 L835 163 Z M680 283 C740 283 744 206 744 163 C744 121 741 42 680 42 C618 42 615 124 615 162 C615 201 618 283 680 283 L680 283 Z " />
<glyph glyph-name="ampersand" unicode="&#x26;" horiz-adv-x="698" d="M520 340 C508 289 498 268 488 249 C464 277 370 394 368 396 C430 430 506 479 506 571 C506 655 438 728 323 728 C224 728 137 666 137 570 C137 523 160 478 212 411 C124 367 46 304 46 199 C46 105 117 -12 284 -12 C403 -12 468 46 490 72 C531 34 561 5 606 -18 L675 70 C619 108 587 135 562 163 C590 208 611 252 625 314 L520 340 Z M268 338 C289 311 365 212 419 151 C381 103 329 82 281 82 C202 82 164 144 164 202 C164 279 236 321 268 338 L268 338 Z M280 509 C275 515 247 547 247 579 C247 618 284 644 324 644 C377 644 402 602 402 574 C402 543 389 518 353 492 L317 466 L280 509 Z " />
<glyph glyph-name="quotesingle" unicode="&#x27;" horiz-adv-x="208" d="M66 462 L143 462 L166 595 L166 716 L42 716 L42 595 L66 462 Z " />
<glyph glyph-name="parenleft" unicode="&#x28;" horiz-adv-x="333" d="M298 -210 C205 -40 166 115 166 258 C166 472 238 611 299 728 L221 728 C190 684 162 637 138 589 C64 441 57 335 57 261 C57 169 69 105 103 14 C142 -94 184 -160 220 -210 L298 -210 Z " />
<glyph glyph-name="parenright" unicode="&#x29;" horiz-adv-x="333" d="M35 728 C128 558 167 403 167 260 C167 46 95 -93 34 -210 L112 -210 C143 -166 171 -119 195 -71 C269 77 276 183 276 257 C276 349 263 413 230 504 C191 612 149 678 113 728 L35 728 Z " />
<glyph glyph-name="asterisk" unicode="&#x2a;" horiz-adv-x="385" d="M24 577 C50 569 120 553 146 548 C117 520 98 500 59 455 L125 406 C154 448 185 504 190 514 C212 478 236 438 257 408 L323 453 C306 474 256 531 238 548 C286 555 328 565 361 574 L337 652 C295 637 276 628 218 602 C226 656 230 689 230 728 L152 728 C152 685 155 662 163 602 C123 626 62 650 49 655 L24 577 Z " />
<glyph glyph-name="plus" unicode="&#x2b;" horiz-adv-x="583" d="M240 110 L344 110 L344 301 L535 301 L535 405 L344 405 L344 596 L240 596 L240 405 L49 405 L49 301 L240 301 L240 110 Z " />
<glyph glyph-name="comma" unicode="&#x2c;" horiz-adv-x="281" d="M92 0 L149 0 C147 -68 119 -89 83 -104 L109 -150 C207 -110 209 -35 209 18 L209 118 L92 118 L92 0 Z " />
<glyph glyph-name="hyphen" unicode="&#x2d;" horiz-adv-x="333" d="M32 204 L301 204 L301 315 L32 315 L32 204 Z " />
<glyph glyph-name="period" unicode="&#x2e;" horiz-adv-x="281" d="M82 0 L200 0 L200 118 L82 118 L82 0 Z " />
<glyph glyph-name="slash" unicode="&#x2f;" horiz-adv-x="281" d="M0 -24 L85 -24 L281 716 L195 716 L0 -24 Z " />
<glyph glyph-name="zero" unicode="0" horiz-adv-x="552" d="M43 354 C43 252 49 -12 276 -12 C501 -12 509 250 509 353 C509 463 499 719 275 719 C48 719 43 448 43 354 L43 354 Z M159 352 C159 501 177 627 275 627 C373 627 393 500 393 370 C393 213 379 79 276 79 C178 79 159 201 159 352 L159 352 Z " />
<glyph glyph-name="one" unicode="1" horiz-adv-x="552" d="M382 0 L382 719 L300 719 C255 613 128 551 95 538 L95 435 C155 456 224 495 271 540 L271 0 L382 0 Z " />
<glyph glyph-name="two" unicode="2" horiz-adv-x="552" d="M504 105 L190 105 C213 142 271 194 317 234 C415 321 504 402 504 518 C504 589 462 719 273 719 C218 719 62 702 44 510 L156 498 C159 613 237 628 276 628 C333 628 390 593 390 517 C390 440 350 401 186 254 C136 209 31 114 27 0 L504 0 L504 105 Z " />
<glyph glyph-name="three" unicode="3" horiz-adv-x="552" d="M40 190 C51 81 134 -12 269 -12 C401 -12 512 79 512 213 C512 250 500 359 377 385 L377 387 C478 437 479 515 479 534 C479 631 394 719 266 719 C85 719 56 566 49 533 L155 514 C166 595 214 627 265 627 C316 627 365 595 365 531 C365 445 283 422 227 425 L215 331 C230 335 252 341 280 341 C346 341 396 287 396 214 C396 146 350 79 271 79 C170 79 153 178 149 203 L40 190 Z " />
<glyph glyph-name="four" unicode="4" horiz-adv-x="552" d="M317 0 L428 0 L428 157 L520 157 L520 258 L428 258 L428 717 L334 717 L15 258 L15 157 L317 157 L317 0 Z M121 258 L315 543 L317 543 L317 258 L121 258 Z " />
<glyph glyph-name="five" unicode="5" horiz-adv-x="552" d="M43 186 C58 55 160 -12 274 -12 C442 -12 521 122 521 242 C521 392 411 476 301 476 C258 476 221 465 184 442 L215 601 L488 601 L488 706 L129 706 L59 336 L155 323 C184 362 225 385 274 385 C337 385 405 345 405 233 C405 156 362 79 277 79 C247 79 171 91 156 197 L43 186 Z " />
<glyph glyph-name="six" unicode="6" horiz-adv-x="552" d="M502 541 C479 704 348 719 298 719 C43 719 39 413 39 339 C39 226 59 154 89 100 C121 43 191 -12 289 -12 C434 -12 515 103 515 231 C515 373 418 464 307 464 C277 464 205 459 155 386 L153 388 C155 438 160 628 292 628 C376 628 389 552 393 530 L502 541 Z M166 235 C166 333 227 375 286 375 C366 375 404 305 404 233 C404 163 375 79 291 79 C210 79 166 161 166 235 L166 235 Z " />
<glyph glyph-name="seven" unicode="7" horiz-adv-x="552" d="M45 602 L378 602 C293 503 149 256 143 0 L254 0 C270 314 440 550 511 623 L511 706 L45 706 L45 602 Z " />
<glyph glyph-name="eight" unicode="8" horiz-adv-x="552" d="M169 386 C68 357 41 268 41 205 C41 75 141 -12 278 -12 C420 -12 512 83 512 205 C512 229 512 342 383 387 C442 411 486 460 486 533 C486 628 415 719 274 719 C134 719 64 630 64 535 C64 427 148 395 169 388 L169 386 Z M173 529 C173 588 216 628 275 628 C334 628 377 588 377 528 C377 462 326 429 275 429 C223 429 173 463 173 529 L173 529 Z M152 209 C152 267 189 340 275 340 C346 340 400 287 400 208 C400 123 341 79 278 79 C197 79 152 143 152 209 L152 209 Z " />
<glyph glyph-name="nine" unicode="9" horiz-adv-x="552" d="M50 166 C54 142 59 105 89 62 C129 4 200 -12 252 -12 C511 -12 513 296 513 364 C513 491 488 557 461 605 C428 663 364 719 263 719 C130 719 37 619 37 477 C37 329 138 242 246 242 C326 242 377 291 397 320 L399 320 C399 270 388 221 379 189 C369 154 343 79 258 79 C173 79 161 155 157 177 L50 166 Z M387 472 C387 399 349 331 269 331 C195 331 148 392 148 476 C148 555 190 628 266 628 C346 628 387 549 387 472 L387 472 Z " />
<glyph glyph-name="colon" unicode="&#x3a;" horiz-adv-x="302" d="M92 0 L210 0 L210 118 L92 118 L92 0 Z M92 400 L210 400 L210 518 L92 518 L92 400 Z " />
<glyph glyph-name="semicolon" unicode="&#x3b;" horiz-adv-x="302" d="M92 0 L149 0 C147 -68 119 -89 83 -104 L109 -150 C207 -110 209 -35 209 18 L209 118 L92 118 L92 0 Z M92 400 L210 400 L210 518 L92 518 L92 400 Z " />
<glyph glyph-name="less" unicode="&#x3c;" horiz-adv-x="583" d="M533 97 L533 208 L173 355 L533 498 L533 610 L51 404 L51 305 L533 97 Z " />
<glyph glyph-name="equal" unicode="&#x3d;" horiz-adv-x="583" d="M535 409 L535 513 L49 513 L49 409 L535 409 Z M535 193 L535 297 L49 297 L49 193 L535 193 Z " />
<glyph glyph-name="greater" unicode="&#x3e;" horiz-adv-x="583" d="M50 610 L50 499 L410 352 L50 209 L50 97 L532 303 L532 402 L50 610 Z " />
<glyph glyph-name="question" unicode="&#x3f;" horiz-adv-x="583" d="M340 180 C339 268 354 285 414 337 C489 402 535 448 535 525 C535 642 428 726 291 726 C155 726 61 645 48 518 L155 505 C173 605 234 638 294 638 C366 638 424 590 424 525 C424 475 395 451 343 408 C236 319 234 268 237 180 L340 180 Z M234 0 L352 0 L352 118 L234 118 L234 0 Z " />
<glyph glyph-name="at" unicode="&#x40;" horiz-adv-x="1000" d="M627 449 C596 500 547 528 487 528 C347 528 230 368 230 208 C230 99 299 -2 410 -2 C444 -2 498 8 554 67 C558 41 567 -2 646 -2 C806 -2 953 161 953 351 C953 538 818 728 533 728 C180 728 45 446 45 233 C45 -1 188 -211 545 -211 C821 -211 938 -73 978 8 L882 8 C806 -97 671 -131 541 -131 C437 -131 333 -107 255 -50 C177 8 125 99 125 234 C125 330 155 434 221 513 C288 593 389 648 531 648 C746 648 873 514 873 353 C873 190 744 88 692 88 C682 88 666 97 666 116 C666 125 667 130 677 177 L749 515 L642 515 L627 449 Z M337 206 C337 300 392 448 498 448 C577 448 600 371 600 322 C600 206 529 78 435 78 C371 78 337 138 337 206 L337 206 Z " />
<glyph glyph-name="A" unicode="A" horiz-adv-x="698" d="M3 0 L128 0 L198 191 L491 191 L564 0 L695 0 L406 716 L279 716 L3 0 Z M302 477 C320 525 328 548 339 598 L341 598 C356 550 371 508 387 466 L453 289 L233 289 L302 477 Z " />
<glyph glyph-name="B" unicode="B" horiz-adv-x="698" d="M76 0 L335 0 C373 0 473 0 527 23 C595 52 644 122 644 207 C644 248 631 345 509 381 C609 429 609 520 609 534 C609 596 575 655 521 685 C486 705 444 716 352 716 L76 716 L76 0 Z M194 322 L336 322 C409 322 522 322 522 211 C522 101 417 101 351 101 L194 101 L194 322 Z M194 615 L309 615 C388 615 440 615 466 589 C485 570 494 544 494 519 C494 423 400 423 321 423 L194 423 L194 615 Z " />
<glyph glyph-name="C" unicode="C" horiz-adv-x="719" d="M670 519 C646 599 581 728 385 728 C187 728 49 591 49 359 C49 161 149 -12 380 -12 C429 -12 540 -1 611 86 C654 138 670 196 677 223 L561 257 C543 176 494 89 376 89 C299 89 240 127 208 181 C176 237 171 320 171 361 C171 458 198 627 380 627 C474 627 528 575 553 491 L670 519 Z " />
<glyph glyph-name="D" unicode="D" horiz-adv-x="719" d="M76 0 L341 0 C422 0 515 15 575 76 C632 134 672 224 672 358 C672 498 632 568 598 613 C521 714 419 716 331 716 L76 716 L76 0 Z M194 615 L304 615 C377 615 434 615 480 575 C539 523 550 436 550 363 C550 104 423 101 326 101 L194 101 L194 615 Z " />
<glyph glyph-name="E" unicode="E" horiz-adv-x="667" d="M76 0 L615 0 L615 101 L194 101 L194 323 L573 323 L573 424 L194 424 L194 615 L600 615 L600 716 L76 716 L76 0 Z " />
<glyph glyph-name="F" unicode="F" horiz-adv-x="615" d="M76 0 L194 0 L194 316 L513 316 L513 417 L194 417 L194 615 L563 615 L563 716 L76 716 L76 0 Z " />
<glyph glyph-name="G" unicode="G" horiz-adv-x="781" d="M409 272 L598 272 L598 159 C577 137 500 89 407 89 C238 89 172 213 172 368 C172 467 215 627 406 627 C475 627 562 603 593 492 L706 517 C673 658 572 728 406 728 C127 728 51 508 51 357 C51 144 185 -12 412 -12 C523 -12 631 28 716 99 L716 373 L409 373 L409 272 Z " />
<glyph glyph-name="H" unicode="H" horiz-adv-x="719" d="M76 0 L194 0 L194 326 L525 326 L525 0 L643 0 L643 716 L525 716 L525 427 L194 427 L194 716 L76 716 L76 0 Z " />
<glyph glyph-name="I" unicode="I" horiz-adv-x="281" d="M82 0 L200 0 L200 716 L82 716 L82 0 Z " />
<glyph glyph-name="J" unicode="J" horiz-adv-x="531" d="M449 716 L331 716 L331 237 C331 172 331 89 233 89 C141 89 137 177 135 225 L26 212 C25 129 51 71 81 41 C111 11 153 -12 232 -12 C450 -12 449 172 449 244 L449 716 Z " />
<glyph glyph-name="K" unicode="K" horiz-adv-x="688" d="M76 716 L76 0 L194 0 L194 236 L293 341 L531 0 L680 0 L373 422 L654 716 L504 716 L194 373 L194 716 L76 716 Z " />
<glyph glyph-name="L" unicode="L" horiz-adv-x="583" d="M76 0 L550 0 L550 101 L194 101 L194 716 L76 716 L76 0 Z " />
<glyph glyph-name="M" unicode="M" horiz-adv-x="865" d="M609 716 L436 155 L434 155 L264 716 L71 716 L71 0 L185 0 L185 627 L187 627 L377 0 L487 0 L677 627 L679 627 L679 0 L793 0 L793 716 L609 716 Z " />
<glyph glyph-name="N" unicode="N" horiz-adv-x="719" d="M77 0 L186 0 L186 476 C186 491 183 518 182 527 L184 529 C187 521 190 514 198 502 L523 0 L641 0 L641 716 L532 716 L532 263 C532 226 534 190 535 181 L533 179 C518 211 514 215 494 247 L194 716 L77 716 L77 0 Z " />
<glyph glyph-name="O" unicode="O" horiz-adv-x="781" d="M46 360 C46 144 173 -12 389 -12 C612 -12 735 145 735 358 C735 568 612 728 391 728 C150 728 46 547 46 360 L46 360 Z M168 358 C168 560 282 627 391 627 C532 627 613 522 613 360 C613 271 592 222 576 193 C546 140 484 89 391 89 C280 89 168 163 168 358 L168 358 Z " />
<glyph glyph-name="P" unicode="P" horiz-adv-x="667" d="M76 0 L194 0 L194 281 L336 281 C366 281 447 282 499 303 C592 341 623 427 623 502 C623 535 617 634 528 685 C478 714 416 716 328 716 L76 716 L76 0 Z M194 615 L324 615 C384 615 415 615 449 598 C482 581 501 541 501 501 C501 384 384 382 329 382 L194 382 L194 615 Z " />
<glyph glyph-name="Q" unicode="Q" horiz-adv-x="781" d="M755 20 C703 39 661 66 636 83 C687 142 735 220 735 358 C735 575 608 728 391 728 C175 728 46 577 46 358 C46 141 175 -12 390 -12 C448 -12 508 0 559 26 C649 -37 659 -44 715 -63 L755 20 Z M376 145 C408 136 447 116 467 102 C456 98 435 89 394 89 C271 89 168 171 168 356 C168 577 300 627 391 627 C528 627 613 525 613 357 C613 301 604 210 543 150 C499 185 449 208 407 220 L376 145 Z " />
<glyph glyph-name="R" unicode="R" horiz-adv-x="719" d="M76 0 L194 0 L194 309 L266 309 C357 309 376 293 469 152 L569 0 L713 0 L606 169 C536 280 495 302 459 320 L459 322 C495 326 655 350 655 518 C655 591 618 668 540 697 C489 716 444 716 387 716 L76 716 L76 0 Z M194 615 L367 615 C423 615 533 615 533 511 C533 410 434 406 353 406 L194 406 L194 615 Z " />
<glyph glyph-name="S" unicode="S" horiz-adv-x="667" d="M41 231 C49 123 114 -12 336 -12 C557 -12 617 113 617 207 C617 371 461 406 348 432 C224 460 181 482 181 536 C181 600 254 627 326 627 C464 627 475 539 479 505 L596 512 C590 663 472 728 323 728 C151 728 68 633 68 529 C68 378 222 341 325 316 C432 290 500 272 500 200 C500 130 432 89 338 89 C318 89 232 92 185 157 C162 189 157 225 155 241 L41 231 Z " />
<glyph glyph-name="T" unicode="T" horiz-adv-x="615" d="M248 0 L366 0 L366 615 L591 615 L591 716 L23 716 L23 615 L248 615 L248 0 Z " />
<glyph glyph-name="U" unicode="U" horiz-adv-x="719" d="M76 716 L76 317 C76 184 78 -12 360 -12 C642 -12 642 186 642 320 L642 716 L524 716 L524 309 C524 197 520 89 359 89 C194 89 194 211 194 313 L194 716 L76 716 Z " />
<glyph glyph-name="V" unicode="V" horiz-adv-x="667" d="M664 716 L540 716 L355 191 C352 183 341 152 336 129 L334 129 C330 148 327 158 315 191 L131 716 L3 716 L270 0 L395 0 L664 716 Z " />
<glyph glyph-name="W" unicode="W" horiz-adv-x="948" d="M315 0 L462 540 L472 585 L474 585 C477 572 477 569 485 540 L632 0 L753 0 L938 716 L820 716 L708 237 C696 184 695 178 691 154 L689 154 C685 188 677 224 660 289 L547 716 L405 716 L272 229 C265 205 259 182 256 158 L254 158 L239 236 L130 716 L9 716 L190 0 L315 0 Z " />
<glyph glyph-name="X" unicode="X" horiz-adv-x="667" d="M3 0 L145 0 L314 249 C323 261 326 267 333 277 C337 269 338 267 349 252 L519 0 L663 0 L405 374 L642 716 L509 716 L366 507 C348 481 344 475 337 464 C330 475 328 479 306 510 L170 716 L31 716 L264 373 L3 0 Z " />
<glyph glyph-name="Y" unicode="Y" horiz-adv-x="667" d="M664 716 L528 716 L376 471 C347 425 344 420 335 404 C322 428 316 436 296 468 L143 716 L2 716 L271 302 L271 0 L389 0 L389 302 L664 716 Z " />
<glyph glyph-name="Z" unicode="Z" horiz-adv-x="615" d="M21 0 L594 0 L594 101 L161 101 C167 109 173 115 183 128 L581 618 L581 716 L63 716 L63 615 L432 615 C424 607 414 597 393 570 L21 108 L21 0 Z " />
<glyph glyph-name="bracketleft" unicode="&#x5b;" horiz-adv-x="302" d="M68 -200 L285 -200 L285 -111 L176 -111 L176 627 L285 627 L285 716 L68 716 L68 -200 Z " />
<glyph glyph-name="backslash" unicode="&#x5c;" horiz-adv-x="281" d="M281 -24 L86 716 L0 716 L196 -24 L281 -24 Z " />
<glyph glyph-name="bracketright" unicode="&#x5d;" horiz-adv-x="302" d="M234 -200 L234 716 L17 716 L17 627 L126 627 L126 -111 L17 -111 L17 -200 L234 -200 Z " />
<glyph glyph-name="asciicircum" unicode="&#x5e;" horiz-adv-x="521" d="M153 325 L260 592 L369 325 L482 325 L306 716 L217 716 L39 325 L153 325 Z " />
<glyph glyph-name="underscore" unicode="&#x5f;" horiz-adv-x="500" d="M-6 -125 L506 -125 L506 -75 L-6 -75 L-6 -125 Z " />
<glyph glyph-name="grave" unicode="&#x60;" horiz-adv-x="333" d="M233 583 L166 724 L32 724 L155 583 L233 583 Z " />
<glyph glyph-name="a" unicode="a" horiz-adv-x="552" d="M155 360 C169 410 188 443 278 443 C298 443 369 437 377 381 C379 365 379 348 378 333 C339 319 269 307 233 302 C177 293 36 271 36 139 C36 49 103 -12 213 -12 C307 -12 364 39 387 61 C390 44 394 28 405 0 L518 0 C507 21 489 54 488 148 L489 333 C489 421 478 452 450 479 C412 516 355 530 282 530 C115 530 74 447 51 379 L155 360 Z M378 255 C378 188 378 161 361 132 C337 92 291 70 244 70 C169 70 150 118 150 147 C150 208 215 219 255 226 C297 233 344 242 378 255 L378 255 Z " />
<glyph glyph-name="b" unicode="b" horiz-adv-x="583" d="M173 0 L173 70 L175 70 C222 -2 292 -12 326 -12 C428 -12 546 71 546 263 C546 430 455 530 327 530 C239 530 195 477 182 459 L180 459 L180 716 L69 716 L69 0 L173 0 Z M176 255 C176 267 176 314 192 358 C208 402 240 443 305 443 C414 443 432 324 432 259 C432 119 361 79 306 79 C264 79 176 103 176 255 L176 255 Z " />
<glyph glyph-name="c" unicode="c" horiz-adv-x="531" d="M404 194 C399 165 385 79 287 79 C171 79 157 204 157 265 C157 314 170 439 290 439 C377 439 393 366 400 337 L508 355 C503 379 496 415 463 457 C410 524 322 530 288 530 C117 530 43 407 43 259 C43 186 67 -12 284 -12 C430 -12 496 85 513 177 L404 194 Z " />
<glyph glyph-name="d" unicode="d" horiz-adv-x="583" d="M514 716 L403 716 L403 459 L401 459 C367 504 312 530 254 530 C132 530 37 437 37 258 C37 109 122 -12 256 -12 C273 -12 356 -12 408 71 L410 71 L410 0 L514 0 L514 716 Z M280 443 C357 443 407 375 407 255 C407 102 321 79 280 79 C237 79 151 104 151 261 C151 289 151 443 280 443 L280 443 Z " />
<glyph glyph-name="e" unicode="e" horiz-adv-x="552" d="M515 228 C519 400 446 530 273 530 C102 530 35 388 35 256 C35 149 80 -12 282 -12 C410 -12 482 55 510 149 L398 166 C387 133 363 75 285 75 C201 75 152 139 149 228 L515 228 Z M149 307 C151 330 167 443 277 443 C380 443 398 353 401 307 L149 307 Z " />
<glyph glyph-name="f" unicode="f" horiz-adv-x="302" d="M196 518 L196 561 C196 593 196 635 259 635 C268 635 291 635 318 629 L334 715 C310 721 277 728 237 728 C86 728 85 621 85 566 L85 518 L9 518 L9 431 L85 431 L85 0 L196 0 L196 431 L298 431 L298 518 L196 518 Z " />
<glyph glyph-name="g" unicode="g" horiz-adv-x="583" d="M55 -39 C49 -191 199 -210 285 -210 C357 -210 429 -190 474 -135 C511 -90 517 -10 517 62 L517 518 L414 518 L414 451 L412 451 C395 475 351 530 258 530 C123 530 37 423 37 262 C37 134 108 0 254 0 C344 0 388 54 404 75 L406 75 C406 -25 406 -42 390 -71 C366 -116 298 -123 271 -123 C185 -123 177 -76 174 -54 L55 -39 Z M278 443 C385 443 410 336 410 271 C410 249 408 168 369 130 C355 115 324 91 278 91 C189 91 151 172 151 262 C151 340 177 443 278 443 L278 443 Z " />
<glyph glyph-name="h" unicode="h" horiz-adv-x="583" d="M69 0 L180 0 L180 272 C180 319 183 352 201 386 C219 418 262 441 306 441 C404 441 404 358 404 303 L404 0 L515 0 L515 317 C515 374 512 419 487 461 C457 511 389 530 337 530 C304 530 239 525 180 456 L180 716 L69 716 L69 0 Z " />
<glyph glyph-name="i" unicode="i" horiz-adv-x="250" d="M69 0 L180 0 L180 518 L69 518 L69 0 Z M69 603 L180 603 L180 716 L69 716 L69 603 Z " />
<glyph glyph-name="j" unicode="j" horiz-adv-x="250" d="M70 -3 C70 -71 70 -110 17 -110 C0 -110 -13 -106 -23 -104 L-43 -199 C-13 -206 14 -210 45 -210 C181 -210 181 -99 181 -5 L181 518 L70 518 L70 -3 Z M70 603 L181 603 L181 716 L70 716 L70 603 Z " />
<glyph glyph-name="k" unicode="k" horiz-adv-x="531" d="M69 0 L180 0 L180 187 L243 250 L395 0 L522 0 L317 328 L506 518 L366 518 L180 321 L180 716 L69 716 L69 0 Z " />
<glyph glyph-name="l" unicode="l" horiz-adv-x="250" d="M69 0 L180 0 L180 716 L69 716 L69 0 Z " />
<glyph glyph-name="m" unicode="m" horiz-adv-x="854" d="M62 0 L173 0 L173 261 C173 319 176 354 194 389 C209 417 248 441 291 441 C371 441 372 363 372 312 L372 0 L483 0 L483 277 C483 322 485 352 504 388 C520 419 560 441 598 441 C682 441 682 367 682 313 L682 0 L793 0 L793 345 C793 385 793 530 630 530 C531 530 487 469 469 443 C433 526 349 530 323 530 C250 530 198 495 165 447 L163 447 L163 518 L62 518 L62 0 Z " />
<glyph glyph-name="n" unicode="n" horiz-adv-x="583" d="M69 0 L180 0 L180 261 C180 316 185 351 201 383 C217 415 260 441 306 441 C404 441 404 355 404 291 L404 0 L515 0 L515 303 C515 374 515 409 490 456 C465 503 400 530 339 530 C272 530 209 499 173 444 L171 444 L171 518 L69 518 L69 0 Z " />
<glyph glyph-name="o" unicode="o" horiz-adv-x="583" d="M37 253 C37 66 167 -12 291 -12 C439 -12 546 94 546 260 C546 421 444 530 292 530 C159 530 37 445 37 253 L37 253 Z M151 259 C151 397 229 439 292 439 C365 439 432 383 432 262 C432 109 342 79 292 79 C231 79 151 121 151 259 L151 259 Z " />
<glyph glyph-name="p" unicode="p" horiz-adv-x="583" d="M69 -198 L180 -198 L180 59 L182 59 C196 39 240 -12 324 -12 C439 -12 546 82 546 263 C546 415 464 530 327 530 C228 530 185 467 173 447 L171 447 L171 518 L69 518 L69 -198 Z M174 254 C174 385 235 443 305 443 C369 443 432 393 432 262 C432 215 422 79 303 79 C243 79 174 126 174 254 L174 254 Z " />
<glyph glyph-name="q" unicode="q" horiz-adv-x="583" d="M514 -198 L514 518 L412 518 L412 446 L410 446 C397 469 355 530 257 530 C136 530 39 436 39 264 C39 93 138 -12 257 -12 C314 -12 369 13 401 59 L403 59 L403 -198 L514 -198 Z M410 265 C410 124 341 79 281 79 C200 79 153 153 153 263 C153 423 242 443 281 443 C349 443 410 389 410 265 L410 265 Z " />
<glyph glyph-name="r" unicode="r" horiz-adv-x="354" d="M174 219 C174 303 182 425 267 425 C300 425 321 412 335 404 L371 503 C352 514 323 530 278 530 C218 530 185 477 167 442 L165 442 L165 518 L63 518 L63 0 L174 0 L174 219 Z " />
<glyph glyph-name="s" unicode="s" horiz-adv-x="531" d="M474 388 C449 518 317 530 248 530 C144 530 53 476 53 375 C53 265 148 238 308 201 C364 188 379 170 379 144 C379 75 285 73 269 73 C231 73 161 84 147 169 L37 152 C52 76 114 -12 270 -12 C431 -12 493 79 493 160 C493 265 402 293 280 321 C188 342 158 356 158 389 C158 437 226 445 259 445 C292 445 356 437 368 370 L474 388 Z " />
<glyph glyph-name="t" unicode="t" horiz-adv-x="302" d="M190 701 L79 635 L79 518 L15 518 L15 431 L79 431 L79 167 C79 71 79 -9 209 -9 C251 -9 275 -1 292 5 L280 96 C271 93 252 87 230 87 C190 87 190 115 190 173 L190 431 L281 431 L281 518 L190 518 L190 701 Z " />
<glyph glyph-name="u" unicode="u" horiz-adv-x="583" d="M511 0 L511 518 L400 518 L400 269 C400 198 395 166 380 135 C365 105 322 79 276 79 C254 79 216 85 195 121 C180 147 178 179 178 255 L178 518 L67 518 L67 194 C67 147 69 106 92 62 C116 17 180 -12 242 -12 C272 -12 353 -5 408 77 L410 77 L410 0 L511 0 Z " />
<glyph glyph-name="v" unicode="v" horiz-adv-x="531" d="M518 518 L404 518 L296 226 C287 201 273 160 266 134 L264 134 C261 148 239 215 234 230 L129 518 L12 518 L215 0 L317 0 L518 518 Z " />
<glyph glyph-name="w" unicode="w" horiz-adv-x="750" d="M166 0 L277 0 L360 320 C367 346 367 348 371 370 L373 370 L471 0 L581 0 L745 518 L636 518 L542 200 C536 179 533 166 528 141 L526 141 C523 156 521 166 513 199 L431 518 L321 518 L236 198 C227 167 226 162 222 141 L220 141 C219 149 208 191 205 200 L116 518 L5 518 L166 0 Z " />
<glyph glyph-name="x" unicode="x" horiz-adv-x="531" d="M10 0 L142 0 L247 159 C252 166 252 166 264 185 C270 176 271 173 279 161 L385 0 L522 0 L329 274 L507 518 L375 518 L263 356 C257 366 257 367 244 387 L158 518 L21 518 L198 268 L10 0 Z " />
<glyph glyph-name="y" unicode="y" horiz-adv-x="531" d="M15 518 L212 -1 C183 -89 161 -114 105 -114 C80 -114 62 -110 50 -107 L61 -201 C71 -204 98 -210 133 -210 C249 -210 275 -138 327 4 L517 518 L404 518 L270 132 L268 132 L134 518 L15 518 Z " />
<glyph glyph-name="z" unicode="z" horiz-adv-x="500" d="M19 0 L480 0 L480 91 L253 91 C221 91 191 90 160 87 L158 89 C180 114 203 137 223 160 L465 442 L465 518 L39 518 L39 427 L237 427 C244 427 284 427 319 430 C309 420 305 415 286 394 L19 88 L19 0 Z " />
<glyph glyph-name="braceleft" unicode="&#x7b;" horiz-adv-x="365" d="M339 728 C262 728 220 728 180 688 C139 647 136 591 136 495 C136 377 129 313 32 308 L32 210 C132 204 136 135 136 17 C136 -52 137 -105 159 -144 C196 -210 260 -210 339 -210 L339 -115 C250 -115 239 -102 239 -13 C239 144 229 216 142 259 C174 276 237 310 237 443 L237 502 C244 633 256 633 339 633 L339 728 Z " />
<glyph glyph-name="bar" unicode="&#x7c;" horiz-adv-x="271" d="M90 -198 L181 -198 L181 716 L90 716 L90 -198 Z " />
<glyph glyph-name="braceright" unicode="&#x7d;" horiz-adv-x="365" d="M26 -210 C103 -210 145 -210 185 -170 C226 -129 229 -73 229 23 C229 141 236 205 333 210 L333 308 C233 314 229 383 229 501 C229 570 228 623 206 662 C169 728 105 728 26 728 L26 633 C115 633 126 620 126 531 C126 374 136 302 223 259 C191 242 128 208 128 75 L128 16 C121 -115 109 -115 26 -115 L26 -210 Z " />
<glyph glyph-name="asciitilde" unicode="&#x7e;" horiz-adv-x="583" d="M37 265 C98 325 135 332 167 332 C203 332 224 323 307 289 C329 280 361 266 405 266 C460 266 508 289 546 326 L546 443 C506 400 460 374 414 374 C390 374 351 390 325 401 C246 435 209 440 178 440 C94 440 50 391 37 378 L37 265 Z " />
<glyph glyph-name="exclamdown" unicode="&#xa1;" horiz-adv-x="302" d="M211 518 L93 518 L93 400 L211 400 L211 518 Z M185 337 L119 337 L89 -35 L89 -198 L216 -198 L216 -35 L185 337 Z " />
<glyph glyph-name="cent" unicode="&#xa2;" horiz-adv-x="552" d="M344 527 C333 529 322 530 301 530 C131 530 53 413 53 256 C53 94 145 24 190 7 L134 -182 L191 -198 L248 -9 C258 -11 271 -12 295 -12 C434 -12 508 80 523 177 L414 194 C405 127 369 79 297 79 C284 79 281 80 274 82 L372 413 C393 391 401 373 410 337 L518 355 C517 383 486 472 402 512 L456 697 L400 713 L344 527 Z M220 107 C171 147 167 240 167 269 C167 309 176 451 318 437 L220 107 Z " />
<glyph glyph-name="sterling" unicode="&#xa3;" horiz-adv-x="552" d="M55 -12 C75 2 119 31 183 31 C213 31 238 25 255 20 C348 -7 368 -12 404 -12 C422 -12 483 -8 537 23 L495 119 C474 108 444 92 393 92 C374 92 362 94 348 97 C274 114 258 118 226 118 C197 118 169 113 151 109 L149 111 C173 133 229 189 229 288 C229 301 228 307 226 315 L359 315 L359 402 L206 402 C196 432 180 483 180 533 C180 578 214 637 290 637 C342 637 391 606 403 526 L512 542 C492 669 402 728 293 728 C181 728 68 664 68 520 C68 482 74 455 90 402 L14 402 L14 315 L113 315 C115 302 117 286 117 267 C117 176 57 119 10 87 L55 -12 Z " />
<glyph glyph-name="currency" unicode="&#xa4;" horiz-adv-x="552" d="M96 465 C87 451 64 416 64 356 C64 296 88 257 96 244 L30 178 L99 109 L165 175 C200 154 236 143 277 143 C318 143 352 154 387 175 L455 108 L523 178 L456 244 C464 258 487 296 487 355 C487 413 465 451 456 466 L522 532 L454 601 L387 534 C352 555 317 566 275 566 C216 566 178 543 164 534 L97 602 L29 530 L96 465 Z M276 468 C338 468 389 418 389 355 C389 292 339 241 276 241 C213 241 162 292 162 355 C162 418 214 468 276 468 L276 468 Z " />
<glyph glyph-name="yen" unicode="&#xa5;" horiz-adv-x="552" d="M524 233 L331 233 L331 300 L524 300 L524 387 L375 387 L552 716 L426 716 L309 487 C286 443 281 430 276 412 L274 412 C272 422 265 443 243 485 L122 716 L0 716 L176 387 L28 387 L28 300 L220 300 L220 233 L28 233 L28 146 L220 146 L220 0 L331 0 L331 146 L524 146 L524 233 Z " />
<glyph glyph-name="brokenbar" unicode="&#xa6;" horiz-adv-x="271" d="M181 716 L90 716 L90 336 L181 336 L181 716 Z M181 182 L90 182 L90 -198 L181 -198 L181 182 Z " />
<glyph glyph-name="section" unicode="&#xa7;" horiz-adv-x="552" d="M65 -34 C80 -146 163 -210 284 -210 C409 -210 486 -139 486 -44 C486 13 445 62 417 85 C448 103 516 141 516 231 C516 329 442 377 334 444 C228 510 191 534 191 577 C191 616 230 641 274 641 C353 641 361 576 365 549 L477 561 C462 670 385 728 266 728 C149 728 80 655 80 573 C80 519 111 482 137 457 C81 434 36 380 36 311 C36 218 104 169 148 139 C167 126 263 63 285 49 C359 0 375 -18 375 -49 C375 -84 347 -123 283 -123 C198 -123 181 -48 175 -19 L65 -34 Z M195 409 C219 391 326 319 347 304 C383 277 415 249 415 212 C415 180 389 150 358 130 C345 140 254 199 228 216 C182 246 137 279 137 327 C137 365 164 391 195 409 L195 409 Z " />
<glyph glyph-name="dieresis" unicode="&#xa8;" horiz-adv-x="333" d="M17 616 L121 616 L121 724 L17 724 L17 616 Z M212 616 L316 616 L316 724 L212 724 L212 616 Z " />
<glyph glyph-name="copyright" unicode="&#xa9;" horiz-adv-x="740" d="M540 447 C510 540 437 564 375 564 C275 564 182 507 182 349 C182 232 256 147 372 147 C447 147 520 185 544 277 L475 299 C452 213 384 210 367 210 C265 210 257 323 257 360 C257 404 274 503 373 503 C414 503 451 484 472 431 L540 447 Z M370 728 C167 728 -1 564 -1 357 C-1 152 165 -14 370 -14 C575 -14 741 153 741 357 C741 563 574 728 370 728 L370 728 Z M370 661 C536 661 674 527 674 357 C674 189 537 53 370 53 C203 53 66 189 66 357 C66 527 204 661 370 661 L370 661 Z " />
<glyph glyph-name="ordfeminine" unicode="&#xaa;" horiz-adv-x="375" d="M113 610 C120 641 134 663 186 663 C246 663 246 632 247 598 C221 590 212 588 131 574 C96 568 20 554 20 470 C20 394 83 364 138 364 C184 364 222 381 255 411 C257 398 258 389 266 372 L350 372 C345 380 338 390 335 420 C334 430 334 549 334 569 C334 607 333 668 308 690 C276 718 246 728 189 728 C140 728 51 721 34 628 L113 610 Z M247 537 C247 517 247 492 236 470 C226 449 197 429 163 429 C129 429 107 449 107 473 C107 507 140 514 153 517 C168 520 234 532 247 537 L247 537 Z " />
<glyph glyph-name="guillemotleft" unicode="&#xab;" horiz-adv-x="552" d="M403 480 L249 258 L403 35 L492 35 L364 258 L492 480 L403 480 Z M212 480 L58 258 L212 35 L301 35 L173 258 L301 480 L212 480 Z " />
<glyph glyph-name="logicalnot" unicode="&#xac;" horiz-adv-x="583" d="M535 193 L535 513 L49 513 L49 409 L431 409 L431 193 L535 193 Z " />
<glyph glyph-name="registered" unicode="&#xae;" horiz-adv-x="740" d="M205 155 L277 155 L277 321 L307 321 C349 321 369 311 421 218 L456 155 L544 155 L496 234 C451 309 435 320 408 329 L408 331 C498 341 518 408 518 442 C518 485 492 520 466 534 C432 552 404 552 315 552 L205 552 L205 155 Z M277 494 L330 494 C382 494 442 494 442 437 C442 379 378 379 333 379 L277 379 L277 494 Z M370 728 C167 728 -1 564 -1 357 C-1 152 165 -14 370 -14 C575 -14 741 153 741 357 C741 564 573 728 370 728 L370 728 Z M370 661 C537 661 674 527 674 357 C674 189 538 53 370 53 C202 53 66 189 66 357 C66 527 204 661 370 661 L370 661 Z " />
<glyph glyph-name="macron" unicode="&#xaf;" horiz-adv-x="333" d="M12 611 L321 611 L321 692 L12 692 L12 611 Z " />
<glyph glyph-name="degree" unicode="&#xb0;" horiz-adv-x="396" d="M198 728 C119 728 53 664 53 583 C53 503 118 438 198 438 C278 438 343 503 343 583 C343 664 277 728 198 728 L198 728 Z M198 662 C241 662 277 627 277 583 C277 540 242 504 198 504 C154 504 119 540 119 583 C119 627 155 662 198 662 L198 662 Z " />
<glyph glyph-name="plusminus" unicode="&#xb1;" horiz-adv-x="583" d="M240 154 L344 154 L344 345 L535 345 L535 449 L344 449 L344 640 L240 640 L240 449 L49 449 L49 345 L240 345 L240 154 Z M535 0 L535 104 L49 104 L49 0 L535 0 Z " />
<glyph glyph-name="twosuperior" unicode="&#xb2;" horiz-adv-x="333" d="M104 606 C111 636 120 661 170 661 C196 661 227 649 227 616 C227 594 216 579 198 562 C184 549 110 495 94 482 C46 441 17 400 12 357 L313 357 L313 424 L141 424 C152 436 164 446 206 477 C275 527 311 567 311 622 C311 664 282 725 171 725 C45 725 29 649 22 613 L104 606 Z " />
<glyph glyph-name="threesuperior" unicode="&#xb3;" horiz-adv-x="333" d="M18 458 C34 359 124 349 166 349 C243 349 314 392 314 465 C314 533 252 551 238 554 L238 556 C287 573 296 611 296 630 C296 674 259 725 162 725 C56 725 35 661 24 626 L102 614 C108 633 116 663 162 663 C187 663 212 652 212 625 C212 581 153 580 140 580 L129 520 C138 521 152 524 168 524 C184 524 229 517 229 472 C229 439 203 413 163 413 C110 413 102 448 98 467 L18 458 Z " />
<glyph glyph-name="acute" unicode="&#xb4;" horiz-adv-x="333" d="M178 583 L301 724 L167 724 L100 583 L178 583 Z " />
<glyph glyph-name="mu" unicode="&#xb5;" horiz-adv-x="583" d="M514 518 L403 518 L403 290 C403 250 403 185 391 154 C374 110 336 82 289 82 C246 82 209 107 193 153 C181 188 181 248 181 292 L181 518 L70 518 L70 -199 L181 -199 L181 57 L183 57 C201 27 227 -12 293 -12 C368 -12 399 39 411 62 L413 62 L413 0 L514 0 L514 518 Z " />
<glyph glyph-name="paragraph" unicode="&#xb6;" horiz-adv-x="542" d="M193 -198 L291 -198 L291 612 L382 612 L382 -198 L480 -198 L480 612 L543 612 L543 716 L242 716 C186 716 149 716 90 685 C21 649 -3 570 -3 511 C-3 440 31 323 193 313 L193 -198 Z " />
<glyph glyph-name="periodcentered" unicode="&#xb7;" horiz-adv-x="281" d="M82 294 L200 294 L200 412 L82 412 L82 294 Z " />
<glyph glyph-name="cedilla" unicode="&#xb8;" horiz-adv-x="333" d="M36 -198 C48 -201 70 -205 109 -205 C251 -205 273 -140 273 -107 C273 -64 237 -23 167 -27 L178 3 L107 3 L87 -72 C92 -70 103 -67 122 -67 C139 -67 186 -72 186 -103 C186 -145 116 -145 110 -145 C86 -145 62 -143 39 -141 L36 -198 Z " />
<glyph glyph-name="onesuperior" unicode="&#xb9;" horiz-adv-x="333" d="M237 357 L237 725 L173 725 C142 670 71 640 48 633 L48 566 C102 580 138 605 156 618 L156 357 L237 357 Z " />
<glyph glyph-name="ordmasculine" unicode="&#xba;" horiz-adv-x="375" d="M23 545 C23 442 79 363 187 363 C292 363 352 438 352 545 C352 645 298 728 187 728 C82 728 23 653 23 545 L23 545 Z M110 547 C110 569 110 657 187 657 C258 657 265 577 265 543 C265 527 265 434 187 434 C117 434 110 512 110 547 L110 547 Z " />
<glyph glyph-name="guillemotright" unicode="&#xbb;" horiz-adv-x="552" d="M149 35 L303 257 L149 480 L60 480 L188 257 L60 35 L149 35 Z M340 35 L494 257 L340 480 L251 480 L379 257 L251 35 L340 35 Z " />
<glyph glyph-name="onequarter" unicode="&#xbc;" horiz-adv-x="833" d="M770 -18 L770 56 L821 56 L821 117 L770 117 L770 350 L702 350 L510 120 L510 56 L692 56 L692 -18 L770 -18 Z M590 117 L692 237 L692 117 L590 117 Z M237 357 L237 725 L173 725 C142 670 71 640 48 633 L48 566 C102 580 138 605 156 618 L156 357 L237 357 Z M220 -27 L704 726 L627 726 L143 -27 L220 -27 Z " />
<glyph glyph-name="onehalf" unicode="&#xbd;" horiz-adv-x="833" d="M604 231 C611 261 620 286 670 286 C696 286 727 274 727 241 C727 219 716 204 698 187 C684 174 610 120 594 107 C546 66 517 25 512 -18 L813 -18 L813 49 L641 49 C652 61 664 71 706 102 C775 152 811 192 811 247 C811 289 782 350 671 350 C545 350 529 274 522 238 L604 231 Z M237 357 L237 725 L173 725 C142 670 71 640 48 633 L48 566 C102 580 138 605 156 618 L156 357 L237 357 Z M220 -27 L704 726 L627 726 L143 -27 L220 -27 Z " />
<glyph glyph-name="threequarters" unicode="&#xbe;" horiz-adv-x="833" d="M770 -18 L770 56 L821 56 L821 117 L770 117 L770 350 L702 350 L510 120 L510 56 L692 56 L692 -18 L770 -18 Z M590 117 L692 237 L692 117 L590 117 Z M18 458 C34 359 124 349 166 349 C243 349 314 392 314 465 C314 533 252 551 238 554 L238 556 C287 573 296 611 296 630 C296 674 259 725 162 725 C56 725 35 661 24 626 L102 614 C108 633 116 663 162 663 C187 663 212 652 212 625 C212 581 153 580 140 580 L129 520 C138 521 152 524 168 524 C184 524 229 517 229 472 C229 439 203 413 163 413 C110 413 102 448 98 467 L18 458 Z M220 -27 L704 726 L627 726 L143 -27 L220 -27 Z " />
<glyph glyph-name="questiondown" unicode="&#xbf;" horiz-adv-x="583" d="M243 338 C244 250 229 233 169 181 C94 116 48 70 48 -7 C48 -124 155 -208 292 -208 C428 -208 522 -127 535 0 L428 13 C410 -87 349 -120 289 -120 C217 -120 159 -72 159 -7 C159 43 188 67 240 110 C347 199 349 250 346 338 L243 338 Z M349 518 L231 518 L231 400 L349 400 L349 518 Z " />
<glyph glyph-name="Agrave" unicode="&#xc0;" horiz-adv-x="698" d="M3 0 L128 0 L198 191 L491 191 L564 0 L695 0 L406 716 L279 716 L3 0 Z M302 477 C320 525 328 548 339 598 L341 598 C356 550 371 508 387 466 L453 289 L233 289 L302 477 Z M416 765 L349 906 L215 906 L338 765 L416 765 Z " />
<glyph glyph-name="Aacute" unicode="&#xc1;" horiz-adv-x="698" d="M3 0 L128 0 L198 191 L491 191 L564 0 L695 0 L406 716 L279 716 L3 0 Z M302 477 C320 525 328 548 339 598 L341 598 C356 550 371 508 387 466 L453 289 L233 289 L302 477 Z M361 765 L484 906 L350 906 L283 765 L361 765 Z " />
<glyph glyph-name="Acircumflex" unicode="&#xc2;" horiz-adv-x="698" d="M3 0 L128 0 L198 191 L491 191 L564 0 L695 0 L406 716 L279 716 L3 0 Z M302 477 C320 525 328 548 339 598 L341 598 C356 550 371 508 387 466 L453 289 L233 289 L302 477 Z M349 844 L404 765 L509 765 L403 906 L294 906 L190 765 L295 765 L349 844 Z " />
<glyph glyph-name="Atilde" unicode="&#xc3;" horiz-adv-x="698" d="M3 0 L128 0 L198 191 L491 191 L564 0 L695 0 L406 716 L279 716 L3 0 Z M302 477 C320 525 328 548 339 598 L341 598 C356 550 371 508 387 466 L453 289 L233 289 L302 477 Z M451 892 C447 864 437 850 412 850 C395 850 372 861 363 865 C310 890 294 891 277 891 C232 891 180 861 183 774 L247 774 C247 786 247 819 282 819 C295 819 305 817 348 797 C380 782 402 776 422 776 C513 776 514 871 515 892 L451 892 Z " />
<glyph glyph-name="Adieresis" unicode="&#xc4;" horiz-adv-x="698" d="M3 0 L128 0 L198 191 L491 191 L564 0 L695 0 L406 716 L279 716 L3 0 Z M302 477 C320 525 328 548 339 598 L341 598 C356 550 371 508 387 466 L453 289 L233 289 L302 477 Z M200 798 L304 798 L304 906 L200 906 L200 798 Z M395 798 L499 798 L499 906 L395 906 L395 798 Z " />
<glyph glyph-name="Aring" unicode="&#xc5;" horiz-adv-x="698" d="M3 0 L128 0 L198 191 L491 191 L564 0 L695 0 L406 716 L279 716 L3 0 Z M302 477 C320 525 328 548 339 598 L341 598 C356 550 371 508 387 466 L453 289 L233 289 L302 477 Z M350 895 C377 895 399 873 399 846 C399 819 377 797 350 797 C323 797 301 819 301 846 C301 873 323 895 350 895 L350 895 Z M350 938 C299 938 258 897 258 846 C258 795 299 754 350 754 C401 754 442 795 442 846 C442 897 401 938 350 938 L350 938 Z " />
<glyph glyph-name="AE" unicode="&#xc6;" horiz-adv-x="1000" d="M-19 0 L110 0 L196 189 L460 189 L460 0 L948 0 L948 101 L578 101 L578 322 L909 322 L909 423 L578 423 L578 615 L935 615 L935 716 L320 716 L-19 0 Z M396 620 L460 620 L460 292 L243 292 L396 620 Z " />
<glyph glyph-name="Ccedilla" unicode="&#xc7;" horiz-adv-x="719" d="M389 -12 C604 -8 660 155 678 223 L561 257 C545 184 500 89 376 89 C300 89 239 128 208 182 C172 244 171 340 171 359 C171 406 173 627 380 627 C505 627 539 536 554 491 L670 519 C646 601 580 728 385 728 C203 728 49 610 49 353 C49 223 100 29 321 -8 L303 -72 C308 -70 319 -67 339 -67 C356 -67 403 -72 403 -103 C403 -145 333 -145 326 -145 C303 -145 279 -143 256 -141 L253 -198 C264 -201 286 -205 326 -205 C468 -205 490 -140 490 -107 C490 -64 453 -23 383 -27 L389 -12 Z " />
<glyph glyph-name="Egrave" unicode="&#xc8;" horiz-adv-x="667" d="M76 0 L615 0 L615 101 L194 101 L194 323 L573 323 L573 424 L194 424 L194 615 L600 615 L600 716 L76 716 L76 0 Z M400 765 L333 906 L199 906 L322 765 L400 765 Z " />
<glyph glyph-name="Eacute" unicode="&#xc9;" horiz-adv-x="667" d="M76 0 L615 0 L615 101 L194 101 L194 323 L573 323 L573 424 L194 424 L194 615 L600 615 L600 716 L76 716 L76 0 Z M345 765 L468 906 L334 906 L267 765 L345 765 Z " />
<glyph glyph-name="Ecircumflex" unicode="&#xca;" horiz-adv-x="667" d="M76 0 L615 0 L615 101 L194 101 L194 323 L573 323 L573 424 L194 424 L194 615 L600 615 L600 716 L76 716 L76 0 Z M333 844 L388 765 L493 765 L387 906 L278 906 L174 765 L279 765 L333 844 Z " />
<glyph glyph-name="Edieresis" unicode="&#xcb;" horiz-adv-x="667" d="M76 0 L615 0 L615 101 L194 101 L194 323 L573 323 L573 424 L194 424 L194 615 L600 615 L600 716 L76 716 L76 0 Z M184 798 L288 798 L288 906 L184 906 L184 798 Z M379 798 L483 798 L483 906 L379 906 L379 798 Z " />
<glyph glyph-name="Igrave" unicode="&#xcc;" horiz-adv-x="281" d="M82 0 L200 0 L200 716 L82 716 L82 0 Z M207 765 L140 906 L6 906 L129 765 L207 765 Z " />
<glyph glyph-name="Iacute" unicode="&#xcd;" horiz-adv-x="281" d="M82 0 L200 0 L200 716 L82 716 L82 0 Z M152 765 L275 906 L141 906 L74 765 L152 765 Z " />
<glyph glyph-name="Icircumflex" unicode="&#xce;" horiz-adv-x="281" d="M82 0 L200 0 L200 716 L82 716 L82 0 Z M140 844 L195 765 L300 765 L194 906 L85 906 L-19 765 L86 765 L140 844 Z " />
<glyph glyph-name="Idieresis" unicode="&#xcf;" horiz-adv-x="281" d="M82 0 L200 0 L200 716 L82 716 L82 0 Z M-9 798 L95 798 L95 906 L-9 906 L-9 798 Z M186 798 L290 798 L290 906 L186 906 L186 798 Z " />
<glyph glyph-name="Eth" unicode="&#xd0;" horiz-adv-x="719" d="M76 0 L341 0 C387 0 502 0 577 78 C634 137 672 228 672 358 C672 482 640 544 622 576 C543 715 423 716 331 716 L76 716 L76 396 L-1 396 L-1 319 L76 319 L76 0 Z M194 319 L371 319 L371 396 L194 396 L194 615 L304 615 C382 615 442 615 489 566 C533 520 550 452 550 362 C550 103 423 101 326 101 L194 101 L194 319 Z " />
<glyph glyph-name="Ntilde" unicode="&#xd1;" horiz-adv-x="719" d="M77 0 L186 0 L186 476 C186 491 183 518 182 527 L184 529 C187 521 190 514 198 502 L523 0 L641 0 L641 716 L532 716 L532 263 C532 226 534 190 535 181 L533 179 C518 211 514 215 494 247 L194 716 L77 716 L77 0 Z M461 892 C457 864 447 850 422 850 C405 850 382 861 373 865 C320 890 304 891 287 891 C242 891 190 861 193 774 L257 774 C257 786 257 819 292 819 C305 819 315 817 358 797 C390 782 412 776 432 776 C523 776 524 871 525 892 L461 892 Z " />
<glyph glyph-name="Ograve" unicode="&#xd2;" horiz-adv-x="781" d="M46 360 C46 144 173 -12 389 -12 C612 -12 735 145 735 358 C735 568 612 728 391 728 C150 728 46 547 46 360 L46 360 Z M168 358 C168 560 282 627 391 627 C532 627 613 522 613 360 C613 271 592 222 576 193 C546 140 484 89 391 89 C280 89 168 163 168 358 L168 358 Z M457 765 L390 906 L256 906 L379 765 L457 765 Z " />
<glyph glyph-name="Oacute" unicode="&#xd3;" horiz-adv-x="781" d="M46 360 C46 144 173 -12 389 -12 C612 -12 735 145 735 358 C735 568 612 728 391 728 C150 728 46 547 46 360 L46 360 Z M168 358 C168 560 282 627 391 627 C532 627 613 522 613 360 C613 271 592 222 576 193 C546 140 484 89 391 89 C280 89 168 163 168 358 L168 358 Z M402 765 L525 906 L391 906 L324 765 L402 765 Z " />
<glyph glyph-name="Ocircumflex" unicode="&#xd4;" horiz-adv-x="781" d="M46 360 C46 144 173 -12 389 -12 C612 -12 735 145 735 358 C735 568 612 728 391 728 C150 728 46 547 46 360 L46 360 Z M168 358 C168 560 282 627 391 627 C532 627 613 522 613 360 C613 271 592 222 576 193 C546 140 484 89 391 89 C280 89 168 163 168 358 L168 358 Z M390 844 L445 765 L550 765 L444 906 L335 906 L231 765 L336 765 L390 844 Z " />
<glyph glyph-name="Otilde" unicode="&#xd5;" horiz-adv-x="781" d="M46 360 C46 144 173 -12 389 -12 C612 -12 735 145 735 358 C735 568 612 728 391 728 C150 728 46 547 46 360 L46 360 Z M168 358 C168 560 282 627 391 627 C532 627 613 522 613 360 C613 271 592 222 576 193 C546 140 484 89 391 89 C280 89 168 163 168 358 L168 358 Z M492 892 C488 864 478 850 453 850 C436 850 413 861 404 865 C351 890 335 891 318 891 C273 891 221 861 224 774 L288 774 C288 786 288 819 323 819 C336 819 346 817 389 797 C421 782 443 776 463 776 C554 776 555 871 556 892 L492 892 Z " />
<glyph glyph-name="Odieresis" unicode="&#xd6;" horiz-adv-x="781" d="M46 360 C46 144 173 -12 389 -12 C612 -12 735 145 735 358 C735 568 612 728 391 728 C150 728 46 547 46 360 L46 360 Z M168 358 C168 560 282 627 391 627 C532 627 613 522 613 360 C613 271 592 222 576 193 C546 140 484 89 391 89 C280 89 168 163 168 358 L168 358 Z M241 798 L345 798 L345 906 L241 906 L241 798 Z M436 798 L540 798 L540 906 L436 906 L436 798 Z " />
<glyph glyph-name="multiply" unicode="&#xd7;" horiz-adv-x="583" d="M67 202 L140 129 L291 280 L442 129 L516 203 L365 354 L515 505 L442 577 L292 427 L141 578 L67 504 L218 353 L67 202 Z " />
<glyph glyph-name="Oslash" unicode="&#xd8;" horiz-adv-x="781" d="M608 657 C573 684 509 728 391 728 C168 728 46 571 46 355 C46 243 77 174 121 111 L36 16 L94 -34 L175 56 C216 27 278 -12 388 -12 C608 -12 735 143 735 360 C735 484 690 562 662 603 L745 696 L687 746 L608 657 Z M202 202 C189 227 168 278 168 356 C168 417 174 470 207 526 C238 579 294 627 391 627 C464 627 505 600 535 575 L202 202 Z M581 512 C593 488 613 440 613 356 C613 181 515 89 394 89 C318 89 275 119 249 140 L581 512 Z " />
<glyph glyph-name="Ugrave" unicode="&#xd9;" horiz-adv-x="719" d="M76 716 L76 317 C76 184 78 -12 360 -12 C642 -12 642 186 642 320 L642 716 L524 716 L524 309 C524 197 520 89 359 89 C194 89 194 211 194 313 L194 716 L76 716 Z M426 765 L359 906 L225 906 L348 765 L426 765 Z " />
<glyph glyph-name="Uacute" unicode="&#xda;" horiz-adv-x="719" d="M76 716 L76 317 C76 184 78 -12 360 -12 C642 -12 642 186 642 320 L642 716 L524 716 L524 309 C524 197 520 89 359 89 C194 89 194 211 194 313 L194 716 L76 716 Z M371 765 L494 906 L360 906 L293 765 L371 765 Z " />
<glyph glyph-name="Ucircumflex" unicode="&#xdb;" horiz-adv-x="719" d="M76 716 L76 317 C76 184 78 -12 360 -12 C642 -12 642 186 642 320 L642 716 L524 716 L524 309 C524 197 520 89 359 89 C194 89 194 211 194 313 L194 716 L76 716 Z M359 844 L414 765 L519 765 L413 906 L304 906 L200 765 L305 765 L359 844 Z " />
<glyph glyph-name="Udieresis" unicode="&#xdc;" horiz-adv-x="719" d="M76 716 L76 317 C76 184 78 -12 360 -12 C642 -12 642 186 642 320 L642 716 L524 716 L524 309 C524 197 520 89 359 89 C194 89 194 211 194 313 L194 716 L76 716 Z M210 798 L314 798 L314 906 L210 906 L210 798 Z M405 798 L509 798 L509 906 L405 906 L405 798 Z " />
<glyph glyph-name="Yacute" unicode="&#xdd;" horiz-adv-x="667" d="M664 716 L528 716 L376 471 C347 425 344 420 335 404 C322 428 316 436 296 468 L143 716 L2 716 L271 302 L271 0 L389 0 L389 302 L664 716 Z M345 765 L468 906 L334 906 L267 765 L345 765 Z " />
<glyph glyph-name="Thorn" unicode="&#xde;" horiz-adv-x="667" d="M76 0 L194 0 L194 141 L336 141 C366 141 447 142 499 163 C592 201 623 287 623 362 C623 395 617 494 528 545 C478 574 416 576 328 576 L194 576 L194 716 L76 716 L76 0 Z M194 475 L324 475 C384 475 415 475 449 458 C482 441 501 401 501 361 C501 244 384 242 329 242 L194 242 L194 475 Z " />
<glyph glyph-name="germandbls" unicode="&#xdf;" horiz-adv-x="615" d="M72 0 L183 0 L183 475 C183 548 183 639 281 639 C320 639 360 617 360 573 C360 546 338 503 322 474 C291 419 288 397 288 377 C288 327 334 288 407 230 C440 204 466 183 466 148 C466 110 434 79 396 79 C359 79 337 107 319 140 L234 94 C251 58 307 -12 401 -12 C505 -12 578 62 578 153 C578 224 543 265 453 331 C438 342 404 370 404 396 C404 417 418 443 430 464 C461 520 471 546 471 585 C471 657 411 728 283 728 C252 728 149 722 102 639 C77 595 72 546 72 477 L72 0 Z " />
<glyph glyph-name="agrave" unicode="&#xe0;" horiz-adv-x="552" d="M155 360 C169 410 188 443 278 443 C298 443 369 437 377 381 C379 365 379 348 378 333 C339 319 269 307 233 302 C177 293 36 271 36 139 C36 49 103 -12 213 -12 C307 -12 364 39 387 61 C390 44 394 28 405 0 L518 0 C507 21 489 54 488 148 L489 333 C489 421 478 452 450 479 C412 516 355 530 282 530 C115 530 74 447 51 379 L155 360 Z M378 255 C378 188 378 161 361 132 C337 92 291 70 244 70 C169 70 150 118 150 147 C150 208 215 219 255 226 C297 233 344 242 378 255 L378 255 Z M343 585 L276 726 L142 726 L265 585 L343 585 Z " />
<glyph glyph-name="aacute" unicode="&#xe1;" horiz-adv-x="552" d="M155 360 C169 410 188 443 278 443 C298 443 369 437 377 381 C379 365 379 348 378 333 C339 319 269 307 233 302 C177 293 36 271 36 139 C36 49 103 -12 213 -12 C307 -12 364 39 387 61 C390 44 394 28 405 0 L518 0 C507 21 489 54 488 148 L489 333 C489 421 478 452 450 479 C412 516 355 530 282 530 C115 530 74 447 51 379 L155 360 Z M378 255 C378 188 378 161 361 132 C337 92 291 70 244 70 C169 70 150 118 150 147 C150 208 215 219 255 226 C297 233 344 242 378 255 L378 255 Z M288 585 L411 726 L277 726 L210 585 L288 585 Z " />
<glyph glyph-name="acircumflex" unicode="&#xe2;" horiz-adv-x="552" d="M155 360 C169 410 188 443 278 443 C298 443 369 437 377 381 C379 365 379 348 378 333 C339 319 269 307 233 302 C177 293 36 271 36 139 C36 49 103 -12 213 -12 C307 -12 364 39 387 61 C390 44 394 28 405 0 L518 0 C507 21 489 54 488 148 L489 333 C489 421 478 452 450 479 C412 516 355 530 282 530 C115 530 74 447 51 379 L155 360 Z M378 255 C378 188 378 161 361 132 C337 92 291 70 244 70 C169 70 150 118 150 147 C150 208 215 219 255 226 C297 233 344 242 378 255 L378 255 Z M276 664 L331 585 L436 585 L330 726 L221 726 L117 585 L222 585 L276 664 Z " />
<glyph glyph-name="atilde" unicode="&#xe3;" horiz-adv-x="552" d="M155 360 C169 410 188 443 278 443 C298 443 369 437 377 381 C379 365 379 348 378 333 C339 319 269 307 233 302 C177 293 36 271 36 139 C36 49 103 -12 213 -12 C307 -12 364 39 387 61 C390 44 394 28 405 0 L518 0 C507 21 489 54 488 148 L489 333 C489 421 478 452 450 479 C412 516 355 530 282 530 C115 530 74 447 51 379 L155 360 Z M378 255 C378 188 378 161 361 132 C337 92 291 70 244 70 C169 70 150 118 150 147 C150 208 215 219 255 226 C297 233 344 242 378 255 L378 255 Z M378 712 C374 684 364 670 339 670 C322 670 299 681 290 685 C237 710 221 711 204 711 C159 711 107 681 110 594 L174 594 C174 606 174 639 209 639 C222 639 232 637 275 617 C307 602 329 596 349 596 C440 596 441 691 442 712 L378 712 Z " />
<glyph glyph-name="adieresis" unicode="&#xe4;" horiz-adv-x="552" d="M155 360 C169 410 188 443 278 443 C298 443 369 437 377 381 C379 365 379 348 378 333 C339 319 269 307 233 302 C177 293 36 271 36 139 C36 49 103 -12 213 -12 C307 -12 364 39 387 61 C390 44 394 28 405 0 L518 0 C507 21 489 54 488 148 L489 333 C489 421 478 452 450 479 C412 516 355 530 282 530 C115 530 74 447 51 379 L155 360 Z M378 255 C378 188 378 161 361 132 C337 92 291 70 244 70 C169 70 150 118 150 147 C150 208 215 219 255 226 C297 233 344 242 378 255 L378 255 Z M127 618 L231 618 L231 726 L127 726 L127 618 Z M322 618 L426 618 L426 726 L322 726 L322 618 Z " />
<glyph glyph-name="aring" unicode="&#xe5;" horiz-adv-x="552" d="M155 360 C169 410 188 443 278 443 C298 443 369 437 377 381 C379 365 379 348 378 333 C339 319 269 307 233 302 C177 293 36 271 36 139 C36 49 103 -12 213 -12 C307 -12 364 39 387 61 C390 44 394 28 405 0 L518 0 C507 21 489 54 488 148 L489 333 C489 421 478 452 450 479 C412 516 355 530 282 530 C115 530 74 447 51 379 L155 360 Z M378 255 C378 188 378 161 361 132 C337 92 291 70 244 70 C169 70 150 118 150 147 C150 208 215 219 255 226 C297 233 344 242 378 255 L378 255 Z M277 715 C304 715 326 693 326 666 C326 639 304 617 277 617 C250 617 228 639 228 666 C228 693 250 715 277 715 L277 715 Z M277 758 C226 758 185 717 185 666 C185 615 226 574 277 574 C328 574 369 615 369 666 C369 717 328 758 277 758 L277 758 Z " />
<glyph glyph-name="ae" unicode="&#xe6;" horiz-adv-x="885" d="M845 228 C851 399 773 530 609 530 C516 530 469 486 452 471 C435 490 401 530 277 530 C111 530 70 442 52 376 L156 359 C165 397 178 443 279 443 C377 443 374 377 373 332 C333 319 321 317 223 300 C170 291 37 269 37 139 C37 83 73 -12 214 -12 C310 -12 383 36 423 73 C459 33 508 -12 613 -12 C724 -12 807 42 841 151 L729 168 C717 127 688 76 613 76 C563 76 521 104 504 134 C485 167 485 203 485 228 L845 228 Z M374 254 C374 222 375 176 364 148 C346 102 297 71 242 71 C170 71 151 118 151 146 C151 206 212 218 256 225 C268 227 335 240 374 254 L374 254 Z M486 307 C492 397 541 443 608 443 C722 443 731 341 734 307 L486 307 Z " />
<glyph glyph-name="ccedilla" unicode="&#xe7;" horiz-adv-x="531" d="M239 -8 L221 -72 C232 -69 237 -67 257 -67 C274 -67 321 -72 321 -103 C321 -145 250 -145 244 -145 C220 -145 197 -143 173 -141 L171 -198 C182 -201 204 -205 243 -205 C385 -205 408 -140 408 -107 C408 -64 371 -23 301 -27 L308 -10 C406 -7 491 61 513 177 L404 194 C399 165 385 79 287 79 C171 79 157 204 157 265 C157 314 170 439 290 439 C377 439 393 366 400 337 L508 355 C503 379 496 415 463 457 C410 524 322 530 288 530 C117 530 43 407 43 259 C43 105 123 7 239 -8 L239 -8 Z " />
<glyph glyph-name="egrave" unicode="&#xe8;" horiz-adv-x="552" d="M515 228 C519 400 446 530 273 530 C102 530 35 388 35 256 C35 149 80 -12 282 -12 C410 -12 482 55 510 149 L398 166 C387 133 363 75 285 75 C201 75 152 139 149 228 L515 228 Z M149 307 C151 330 167 443 277 443 C380 443 398 353 401 307 L149 307 Z M343 585 L276 726 L142 726 L265 585 L343 585 Z " />
<glyph glyph-name="eacute" unicode="&#xe9;" horiz-adv-x="552" d="M515 228 C519 400 446 530 273 530 C102 530 35 388 35 256 C35 149 80 -12 282 -12 C410 -12 482 55 510 149 L398 166 C387 133 363 75 285 75 C201 75 152 139 149 228 L515 228 Z M149 307 C151 330 167 443 277 443 C380 443 398 353 401 307 L149 307 Z M288 585 L411 726 L277 726 L210 585 L288 585 Z " />
<glyph glyph-name="ecircumflex" unicode="&#xea;" horiz-adv-x="552" d="M515 228 C519 400 446 530 273 530 C102 530 35 388 35 256 C35 149 80 -12 282 -12 C410 -12 482 55 510 149 L398 166 C387 133 363 75 285 75 C201 75 152 139 149 228 L515 228 Z M149 307 C151 330 167 443 277 443 C380 443 398 353 401 307 L149 307 Z M276 664 L331 585 L436 585 L330 726 L221 726 L117 585 L222 585 L276 664 Z " />
<glyph glyph-name="edieresis" unicode="&#xeb;" horiz-adv-x="552" d="M515 228 C519 400 446 530 273 530 C102 530 35 388 35 256 C35 149 80 -12 282 -12 C410 -12 482 55 510 149 L398 166 C387 133 363 75 285 75 C201 75 152 139 149 228 L515 228 Z M149 307 C151 330 167 443 277 443 C380 443 398 353 401 307 L149 307 Z M127 618 L231 618 L231 726 L127 726 L127 618 Z M322 618 L426 618 L426 726 L322 726 L322 618 Z " />
<glyph glyph-name="igrave" unicode="&#xec;" horiz-adv-x="250" d="M70 0 L181 0 L181 518 L70 518 L70 0 Z M192 585 L125 726 L-9 726 L114 585 L192 585 Z " />
<glyph glyph-name="iacute" unicode="&#xed;" horiz-adv-x="250" d="M70 0 L181 0 L181 518 L70 518 L70 0 Z M137 585 L260 726 L126 726 L59 585 L137 585 Z " />
<glyph glyph-name="icircumflex" unicode="&#xee;" horiz-adv-x="250" d="M70 0 L181 0 L181 518 L70 518 L70 0 Z M125 664 L180 585 L285 585 L179 726 L70 726 L-34 585 L71 585 L125 664 Z " />
<glyph glyph-name="idieresis" unicode="&#xef;" horiz-adv-x="250" d="M70 0 L181 0 L181 518 L70 518 L70 0 Z M-24 618 L80 618 L80 726 L-24 726 L-24 618 Z M171 618 L275 618 L275 726 L171 726 L171 618 Z " />
<glyph glyph-name="eth" unicode="&#xf0;" horiz-adv-x="583" d="M157 716 C204 683 220 670 260 633 L148 581 L170 532 L298 592 C335 548 345 532 368 490 L366 488 C339 503 312 518 262 518 C158 518 39 437 39 254 C39 76 159 -12 288 -12 C455 -12 544 112 544 256 C544 402 479 522 379 630 L456 667 L434 716 L337 669 C315 688 307 695 280 716 L157 716 Z M290 79 C228 79 153 122 153 253 C153 385 223 431 288 431 C362 431 430 374 430 256 C430 138 364 79 290 79 L290 79 Z " />
<glyph glyph-name="ntilde" unicode="&#xf1;" horiz-adv-x="583" d="M69 0 L180 0 L180 261 C180 316 185 351 201 383 C217 415 260 441 306 441 C404 441 404 355 404 291 L404 0 L515 0 L515 303 C515 374 515 409 490 456 C465 503 400 530 339 530 C272 530 209 499 173 444 L171 444 L171 518 L69 518 L69 0 Z M393 712 C389 684 379 670 354 670 C337 670 314 681 305 685 C252 710 236 711 219 711 C174 711 122 681 125 594 L189 594 C189 606 189 639 224 639 C237 639 247 637 290 617 C322 602 344 596 364 596 C455 596 456 691 457 712 L393 712 Z " />
<glyph glyph-name="ograve" unicode="&#xf2;" horiz-adv-x="583" d="M37 253 C37 66 167 -12 291 -12 C439 -12 546 94 546 260 C546 421 444 530 292 530 C159 530 37 445 37 253 L37 253 Z M151 259 C151 397 229 439 292 439 C365 439 432 383 432 262 C432 109 342 79 292 79 C231 79 151 121 151 259 L151 259 Z M358 585 L291 726 L157 726 L280 585 L358 585 Z " />
<glyph glyph-name="oacute" unicode="&#xf3;" horiz-adv-x="583" d="M37 253 C37 66 167 -12 291 -12 C439 -12 546 94 546 260 C546 421 444 530 292 530 C159 530 37 445 37 253 L37 253 Z M151 259 C151 397 229 439 292 439 C365 439 432 383 432 262 C432 109 342 79 292 79 C231 79 151 121 151 259 L151 259 Z M303 585 L426 726 L292 726 L225 585 L303 585 Z " />
<glyph glyph-name="ocircumflex" unicode="&#xf4;" horiz-adv-x="583" d="M37 253 C37 66 167 -12 291 -12 C439 -12 546 94 546 260 C546 421 444 530 292 530 C159 530 37 445 37 253 L37 253 Z M151 259 C151 397 229 439 292 439 C365 439 432 383 432 262 C432 109 342 79 292 79 C231 79 151 121 151 259 L151 259 Z M291 664 L346 585 L451 585 L345 726 L236 726 L132 585 L237 585 L291 664 Z " />
<glyph glyph-name="otilde" unicode="&#xf5;" horiz-adv-x="583" d="M37 253 C37 66 167 -12 291 -12 C439 -12 546 94 546 260 C546 421 444 530 292 530 C159 530 37 445 37 253 L37 253 Z M151 259 C151 397 229 439 292 439 C365 439 432 383 432 262 C432 109 342 79 292 79 C231 79 151 121 151 259 L151 259 Z M393 712 C389 684 379 670 354 670 C337 670 314 681 305 685 C252 710 236 711 219 711 C174 711 122 681 125 594 L189 594 C189 606 189 639 224 639 C237 639 247 637 290 617 C322 602 344 596 364 596 C455 596 456 691 457 712 L393 712 Z " />
<glyph glyph-name="odieresis" unicode="&#xf6;" horiz-adv-x="583" d="M37 253 C37 66 167 -12 291 -12 C439 -12 546 94 546 260 C546 421 444 530 292 530 C159 530 37 445 37 253 L37 253 Z M151 259 C151 397 229 439 292 439 C365 439 432 383 432 262 C432 109 342 79 292 79 C231 79 151 121 151 259 L151 259 Z M142 618 L246 618 L246 726 L142 726 L142 618 Z M337 618 L441 618 L441 726 L337 726 L337 618 Z " />
<glyph glyph-name="divide" unicode="&#xf7;" horiz-adv-x="583" d="M535 301 L535 405 L49 405 L49 301 L535 301 Z M233 463 L351 463 L351 581 L233 581 L233 463 Z M233 125 L351 125 L351 243 L233 243 L233 125 Z " />
<glyph glyph-name="oslash" unicode="&#xf8;" horiz-adv-x="583" d="M438 488 C412 504 368 530 290 530 C140 530 37 423 37 257 C37 235 37 143 98 70 L44 3 L93 -37 L147 28 C165 17 210 -12 290 -12 C435 -12 546 91 546 259 C546 280 546 369 486 445 L538 509 L488 549 L438 488 Z M169 156 C163 168 150 200 150 258 C150 410 241 439 292 439 C337 439 357 422 374 410 L169 156 Z M413 357 C419 338 431 321 431 261 C431 134 366 79 289 79 C251 79 225 95 211 106 L413 357 Z " />
<glyph glyph-name="ugrave" unicode="&#xf9;" horiz-adv-x="583" d="M511 0 L511 518 L400 518 L400 269 C400 198 395 166 380 135 C365 105 322 79 276 79 C254 79 216 85 195 121 C180 147 178 179 178 255 L178 518 L67 518 L67 194 C67 147 69 106 92 62 C116 17 180 -12 242 -12 C272 -12 353 -5 408 77 L410 77 L410 0 L511 0 Z M358 585 L291 726 L157 726 L280 585 L358 585 Z " />
<glyph glyph-name="uacute" unicode="&#xfa;" horiz-adv-x="583" d="M511 0 L511 518 L400 518 L400 269 C400 198 395 166 380 135 C365 105 322 79 276 79 C254 79 216 85 195 121 C180 147 178 179 178 255 L178 518 L67 518 L67 194 C67 147 69 106 92 62 C116 17 180 -12 242 -12 C272 -12 353 -5 408 77 L410 77 L410 0 L511 0 Z M303 585 L426 726 L292 726 L225 585 L303 585 Z " />
<glyph glyph-name="ucircumflex" unicode="&#xfb;" horiz-adv-x="583" d="M511 0 L511 518 L400 518 L400 269 C400 198 395 166 380 135 C365 105 322 79 276 79 C254 79 216 85 195 121 C180 147 178 179 178 255 L178 518 L67 518 L67 194 C67 147 69 106 92 62 C116 17 180 -12 242 -12 C272 -12 353 -5 408 77 L410 77 L410 0 L511 0 Z M291 664 L346 585 L451 585 L345 726 L236 726 L132 585 L237 585 L291 664 Z " />
<glyph glyph-name="udieresis" unicode="&#xfc;" horiz-adv-x="583" d="M511 0 L511 518 L400 518 L400 269 C400 198 395 166 380 135 C365 105 322 79 276 79 C254 79 216 85 195 121 C180 147 178 179 178 255 L178 518 L67 518 L67 194 C67 147 69 106 92 62 C116 17 180 -12 242 -12 C272 -12 353 -5 408 77 L410 77 L410 0 L511 0 Z M142 618 L246 618 L246 726 L142 726 L142 618 Z M337 618 L441 618 L441 726 L337 726 L337 618 Z " />
<glyph glyph-name="yacute" unicode="&#xfd;" horiz-adv-x="531" d="M15 518 L212 -1 C183 -89 161 -114 105 -114 C80 -114 62 -110 50 -107 L61 -201 C71 -204 98 -210 133 -210 C249 -210 275 -138 327 4 L517 518 L404 518 L270 132 L268 132 L134 518 L15 518 Z M277 585 L400 726 L266 726 L199 585 L277 585 Z " />
<glyph glyph-name="thorn" unicode="&#xfe;" horiz-adv-x="583" d="M69 -198 L180 -198 L180 59 C217 21 250 -12 324 -12 C431 -12 546 73 546 266 C546 435 448 530 326 530 C247 530 212 494 180 461 L180 716 L69 716 L69 -198 Z M174 254 C174 385 235 443 305 443 C369 443 432 393 432 262 C432 215 422 79 303 79 C243 79 174 126 174 254 L174 254 Z " />
<glyph glyph-name="ydieresis" unicode="&#xff;" horiz-adv-x="531" d="M15 518 L212 -1 C183 -89 161 -114 105 -114 C80 -114 62 -110 50 -107 L61 -201 C71 -204 98 -210 133 -210 C249 -210 275 -138 327 4 L517 518 L404 518 L270 132 L268 132 L134 518 L15 518 Z M116 618 L220 618 L220 726 L116 726 L116 618 Z M311 618 L415 618 L415 726 L311 726 L311 618 Z " />
<glyph glyph-name="dotlessi" unicode="&#x131;" horiz-adv-x="250" d="M70 0 L181 0 L181 518 L70 518 L70 0 Z " />
<glyph glyph-name="Lslash" unicode="&#x141;" horiz-adv-x="583" d="M76 260 L76 0 L551 0 L551 101 L194 101 L194 359 L355 495 L355 594 L194 457 L194 716 L76 716 L76 358 L3 296 L3 198 L76 260 Z " />
<glyph glyph-name="lslash" unicode="&#x142;" horiz-adv-x="250" d="M69 270 L69 0 L180 0 L180 365 L246 421 L246 505 L180 449 L180 716 L69 716 L69 355 L4 300 L4 215 L69 270 Z " />
<glyph glyph-name="OE" unicode="&#x152;" horiz-adv-x="1000" d="M528 716 L528 628 L526 628 C495 679 433 728 331 728 C125 728 50 543 50 357 C50 207 105 -12 336 -12 C407 -12 483 13 527 94 L529 94 L529 0 L969 0 L969 101 L635 101 L635 322 L928 322 L928 423 L635 423 L635 615 L954 615 L954 716 L528 716 Z M517 367 C517 266 502 89 345 89 C188 89 172 274 172 359 C172 411 172 632 347 632 C433 632 473 576 495 514 C517 453 517 386 517 367 L517 367 Z " />
<glyph glyph-name="oe" unicode="&#x153;" horiz-adv-x="948" d="M905 228 C905 261 907 344 862 424 C835 472 769 530 666 530 C594 530 525 501 483 444 C454 482 391 530 292 530 C132 530 41 413 41 259 C41 95 144 -12 291 -12 C367 -12 433 16 482 74 C505 48 557 -12 676 -12 C799 -12 867 56 898 151 L788 168 C777 132 760 75 674 75 C607 75 541 113 541 228 L905 228 Z M293 439 C382 439 431 363 431 262 C431 139 367 79 293 79 C221 79 155 139 155 256 C155 355 200 439 293 439 L293 439 Z M544 307 C555 436 642 443 669 443 C783 443 792 330 794 307 L544 307 Z " />
<glyph glyph-name="Scaron" unicode="&#x160;" horiz-adv-x="667" d="M41 231 C49 123 114 -12 336 -12 C557 -12 617 113 617 207 C617 371 461 406 348 432 C224 460 181 482 181 536 C181 600 254 627 326 627 C464 627 475 539 479 505 L596 512 C590 663 472 728 323 728 C151 728 68 633 68 529 C68 378 222 341 325 316 C432 290 500 272 500 200 C500 130 432 89 338 89 C318 89 232 92 185 157 C162 189 157 225 155 241 L41 231 Z M334 827 L279 906 L174 906 L280 765 L389 765 L493 906 L388 906 L334 827 Z " />
<glyph glyph-name="scaron" unicode="&#x161;" horiz-adv-x="531" d="M474 388 C449 518 317 530 248 530 C144 530 53 476 53 375 C53 265 148 238 308 201 C364 188 379 170 379 144 C379 75 285 73 269 73 C231 73 161 84 147 169 L37 152 C52 76 114 -12 270 -12 C431 -12 493 79 493 160 C493 265 402 293 280 321 C188 342 158 356 158 389 C158 437 226 445 259 445 C292 445 356 437 368 370 L474 388 Z M266 647 L211 726 L106 726 L212 585 L321 585 L425 726 L320 726 L266 647 Z " />
<glyph glyph-name="Ydieresis" unicode="&#x178;" horiz-adv-x="667" d="M664 716 L528 716 L376 471 C347 425 344 420 335 404 C322 428 316 436 296 468 L143 716 L2 716 L271 302 L271 0 L389 0 L389 302 L664 716 Z M184 798 L288 798 L288 906 L184 906 L184 798 Z M379 798 L483 798 L483 906 L379 906 L379 798 Z " />
<glyph glyph-name="Zcaron" unicode="&#x17d;" horiz-adv-x="615" d="M21 0 L594 0 L594 101 L161 101 C167 109 173 115 183 128 L581 618 L581 716 L63 716 L63 615 L432 615 C424 607 414 597 393 570 L21 108 L21 0 Z M308 827 L253 906 L148 906 L254 765 L363 765 L467 906 L362 906 L308 827 Z " />
<glyph glyph-name="zcaron" unicode="&#x17e;" horiz-adv-x="500" d="M19 0 L480 0 L480 91 L253 91 C221 91 191 90 160 87 L158 89 C180 114 203 137 223 160 L465 442 L465 518 L39 518 L39 427 L237 427 C244 427 284 427 319 430 C309 420 305 415 286 394 L19 88 L19 0 Z M251 647 L196 726 L91 726 L197 585 L306 585 L410 726 L305 726 L251 647 Z " />
<glyph glyph-name="florin" unicode="&#x192;" horiz-adv-x="552" d="M8 -203 C59 -217 110 -219 133 -219 C239 -219 261 -148 273 -82 L362 425 L462 425 L476 509 L376 509 L384 549 C393 596 402 621 442 621 C473 621 505 613 522 609 L543 700 C525 706 479 719 421 719 C302 719 288 640 274 564 L264 509 L165 509 L151 425 L249 425 L169 -45 C162 -87 156 -124 111 -124 C81 -124 50 -117 30 -113 L8 -203 Z " />
<glyph glyph-name="circumflex" unicode="&#x2c6;" horiz-adv-x="333" d="M166 662 L221 583 L326 583 L220 724 L111 724 L7 583 L112 583 L166 662 Z " />
<glyph glyph-name="caron" unicode="&#x2c7;" horiz-adv-x="333" d="M167 645 L112 724 L7 724 L113 583 L222 583 L326 724 L221 724 L167 645 Z " />
<glyph glyph-name="breve" unicode="&#x2d8;" horiz-adv-x="333" d="M251 721 C247 699 240 653 165 653 C91 653 84 705 81 721 L18 721 C32 590 142 587 166 587 C213 587 302 606 314 721 L251 721 Z " />
<glyph glyph-name="dotaccent" unicode="&#x2d9;" horiz-adv-x="333" d="M106 591 L228 591 L228 709 L106 709 L106 591 Z " />
<glyph glyph-name="ring" unicode="&#x2da;" horiz-adv-x="333" d="M167 713 C194 713 216 691 216 664 C216 637 194 615 167 615 C140 615 118 637 118 664 C118 691 140 713 167 713 L167 713 Z M167 756 C116 756 75 715 75 664 C75 613 116 572 167 572 C218 572 259 613 259 664 C259 715 218 756 167 756 L167 756 Z " />
<glyph glyph-name="ogonek" unicode="&#x2db;" horiz-adv-x="333" d="M103 12 C93 -24 84 -59 84 -99 C84 -176 142 -209 193 -209 C217 -209 256 -204 300 -184 L300 -122 C285 -128 260 -139 224 -139 C180 -139 155 -107 155 -64 C155 -38 160 -12 169 12 L103 12 Z " />
<glyph glyph-name="tilde" unicode="&#x2dc;" horiz-adv-x="333" d="M268 710 C264 682 254 668 229 668 C212 668 189 679 180 683 C127 708 111 709 94 709 C49 709 -3 679 0 592 L64 592 C64 604 64 637 99 637 C112 637 122 635 165 615 C197 600 219 594 239 594 C330 594 331 689 332 710 L268 710 Z " />
<glyph glyph-name="hungarumlaut" unicode="&#x2dd;" horiz-adv-x="333" d="M214 584 L292 584 L405 725 L277 725 L214 584 Z M37 584 L115 584 L228 725 L100 725 L37 584 Z " />
<glyph glyph-name="endash" unicode="&#x2013;" horiz-adv-x="500" d="M-6 295 L-6 205 L506 205 L506 295 L-6 295 Z " />
<glyph glyph-name="emdash" unicode="&#x2014;" horiz-adv-x="1000" d="M-6 295 L-6 205 L1006 205 L1006 295 L-6 295 Z " />
<glyph glyph-name="quoteleft" unicode="&#x2018;" horiz-adv-x="250" d="M183 583 L128 583 C129 638 148 666 193 683 L169 728 C69 687 69 610 69 553 L69 464 L183 464 L183 583 Z " />
<glyph glyph-name="quoteright" unicode="&#x2019;" horiz-adv-x="250" d="M67 597 L122 597 C120 540 100 513 57 497 L81 452 C181 493 181 569 181 627 L181 716 L67 716 L67 597 Z " />
<glyph glyph-name="quotesinglbase" unicode="&#x201a;" horiz-adv-x="250" d="M64 0 L121 0 C119 -68 91 -89 55 -104 L81 -150 C179 -110 181 -35 181 18 L181 118 L64 118 L64 0 Z " />
<glyph glyph-name="quotedblleft" unicode="&#x201c;" horiz-adv-x="417" d="M356 583 L301 583 C303 640 323 667 366 683 L342 728 C242 687 242 611 242 553 L242 464 L356 464 L356 583 Z M168 583 L113 583 C114 638 133 666 178 683 L154 728 C54 687 54 610 54 553 L54 464 L168 464 L168 583 Z " />
<glyph glyph-name="quotedblright" unicode="&#x201d;" horiz-adv-x="417" d="M61 597 L116 597 C114 540 94 513 51 497 L75 452 C175 493 175 569 175 627 L175 716 L61 716 L61 597 Z M249 597 L304 597 C303 542 284 514 239 497 L263 452 C363 493 363 570 363 627 L363 716 L249 716 L249 597 Z " />
<glyph glyph-name="quotedblbase" unicode="&#x201e;" horiz-adv-x="417" d="M57 0 L112 0 C110 -57 90 -84 47 -100 L71 -145 C171 -104 171 -28 171 30 L171 119 L57 119 L57 0 Z M245 0 L300 0 C299 -55 280 -83 235 -100 L259 -145 C359 -104 359 -27 359 30 L359 119 L245 119 L245 0 Z " />
<glyph glyph-name="dagger" unicode="&#x2020;" horiz-adv-x="552" d="M222 -167 L329 -167 L329 417 L517 417 L517 512 L329 512 L329 706 L222 706 L222 512 L35 512 L35 417 L222 417 L222 -167 Z " />
<glyph glyph-name="daggerdbl" unicode="&#x2021;" horiz-adv-x="552" d="M222 -171 L329 -171 L329 1 L517 1 L517 96 L329 96 L329 435 L517 435 L517 530 L329 530 L329 706 L222 706 L222 530 L35 530 L35 435 L222 435 L222 96 L35 96 L35 1 L222 1 L222 -171 Z " />
<glyph glyph-name="bullet" unicode="&#x2022;" horiz-adv-x="354" d="M177 485 C103 485 43 426 43 352 C43 278 103 218 177 218 C250 218 310 278 310 352 C310 426 250 485 177 485 L177 485 Z " />
<glyph glyph-name="ellipsis" unicode="&#x2026;" horiz-adv-x="1000" d="M774 0 L892 0 L892 118 L774 118 L774 0 Z M441 0 L559 0 L559 118 L441 118 L441 0 Z M108 0 L226 0 L226 118 L108 118 L108 0 Z " />
<glyph glyph-name="perthousand" unicode="&#x2030;" horiz-adv-x="1000" d="M93 547 C93 568 94 660 151 660 C201 660 208 596 208 540 C208 484 203 420 152 420 C96 420 93 494 93 547 L93 547 Z M147 -26 L226 -26 L522 728 L443 728 L147 -26 Z M10 538 C10 506 10 352 151 352 C291 352 291 505 291 542 C291 607 274 728 150 728 C25 728 10 603 10 538 L10 538 Z M464 168 C464 190 465 282 522 282 C572 282 579 216 579 162 C579 103 573 42 523 42 C467 42 464 117 464 168 L464 168 Z M381 159 C381 119 385 -26 521 -26 C659 -26 662 121 662 164 C662 229 645 350 521 350 C396 350 381 227 381 159 L381 159 Z M709 160 C709 128 710 -26 850 -26 C989 -26 990 125 990 164 C990 229 974 350 849 350 C724 350 709 225 709 160 L709 160 Z M851 282 C900 282 908 218 908 162 C908 106 902 42 851 42 C806 42 792 95 792 165 C792 231 805 282 851 282 L851 282 Z " />
<glyph glyph-name="guilsinglleft" unicode="&#x2039;" horiz-adv-x="365" d="M213 480 L59 258 L213 35 L302 35 L174 258 L302 480 L213 480 Z " />
<glyph glyph-name="guilsinglright" unicode="&#x203a;" horiz-adv-x="365" d="M152 35 L306 257 L152 480 L63 480 L191 257 L63 35 L152 35 Z " />
<glyph glyph-name="fraction" unicode="&#x2044;" horiz-adv-x="167" d="M-120 -27 L364 726 L287 726 L-197 -27 L-120 -27 Z " />
<glyph glyph-name="trademark" unicode="&#x2122;" horiz-adv-x="1000" d="M235 317 L308 317 L308 652 L433 652 L433 716 L108 716 L108 652 L235 652 L235 317 Z M479 317 L547 317 L547 646 L549 646 L644 317 L711 317 L804 644 L806 644 L806 317 L874 317 L874 716 L764 716 L679 418 L677 418 L590 716 L479 716 L479 317 Z " />
<glyph glyph-name="minus" unicode="&#x2212;" horiz-adv-x="583" d="M535 301 L535 405 L49 405 L49 301 L535 301 Z " />
<glyph glyph-name="fi" unicode="&#xfb01;" horiz-adv-x="552" d="M371 0 L482 0 L482 518 L371 518 L371 0 Z M371 603 L482 603 L482 716 L371 716 L371 603 Z M201 518 L201 561 C201 593 201 635 264 635 C273 635 296 635 323 629 L339 715 C315 721 282 728 242 728 C91 728 90 621 90 566 L90 518 L14 518 L14 431 L90 431 L90 0 L201 0 L201 431 L303 431 L303 518 L201 518 Z " />
<glyph glyph-name="fl" unicode="&#xfb02;" horiz-adv-x="552" d="M371 0 L482 0 L482 716 L371 716 L371 0 Z M201 518 L201 561 C201 593 201 635 264 635 C273 635 296 635 323 629 L339 715 C315 721 282 728 242 728 C91 728 90 621 90 566 L90 518 L14 518 L14 431 L90 431 L90 0 L201 0 L201 431 L303 431 L303 518 L201 518 Z " />
</font>
</svg>
