<?xml version="1.0" encoding="utf-8"?>
<!-- Generator: Adobe Illustrator 16.0.0, SVG Export Plug-In . SVG Version: 6.00 Build 0)  -->
<!DOCTYPE svg PUBLIC "-//W3C//DTD SVG 1.1//EN" "http://www.w3.org/Graphics/SVG/1.1/DTD/svg11.dtd">
<svg version="1.1" xmlns="http://www.w3.org/2000/svg" xmlns:xlink="http://www.w3.org/1999/xlink" x="0px" y="0px"
	 width="292.112px" height="68.008px" viewBox="0 0 292.112 68.008" enable-background="new 0 0 292.112 68.008"
	 xml:space="preserve">
<g id="Layer_2">
	<g>
		<path d="M241,10.781C222,0,146,0,146,0S70.028,0,51.028,10.781c-2,9.951,1.028,24.049,5.028,32.342C71.556,36.074,146,34,146,34
			s74.5,2.074,90,9.123C240,34.83,243,20.732,241,10.781z"/>
		<path d="M292.112,41.545c0,0-30.445-17.496-47.175-19.103c-1.438,14.185-5.191,21.262-7.438,24.412L215,48.099
			c29.667,4.976,57.334,19.909,57.334,19.909l-9.727-22.799L292.112,41.545z"/>
		<path d="M47.175,22.442C30.445,24.049,0,41.545,0,41.545l29.505,3.664l-9.727,22.799c0,0,27.667-14.934,57.334-19.909l-22.5-1.244
			C52.366,43.704,48.612,36.627,47.175,22.442z"/>
	</g>
</g>
<g id="Layer_4" display="none">
	<g display="inline">
		<g>
			<path fill="#FFFFFF" d="M73.657,17.918c1.114-0.194,1.672-0.291,2.788-0.478c1.801,1.826,2.692,2.744,4.459,4.588
				c-0.329-2.072-0.493-3.108-0.822-5.181c1.122-0.178,1.683-0.265,2.806-0.435c0.568,3.75,0.852,5.625,1.42,9.375
				c-1.103,0.167-1.652,0.252-2.753,0.427c-1.739-1.833-2.617-2.744-4.39-4.558c0.344,2.053,0.515,3.08,0.859,5.133
				c-1.095,0.184-1.642,0.277-2.736,0.468C74.635,23.522,74.31,21.655,73.657,17.918z"/>
			<path fill="#FFFFFF" d="M87.581,15.716c3.205-0.448,4.808-0.655,8.019-1.042c0.098,0.81,0.146,1.215,0.243,2.025
				c-1.999,0.24-2.998,0.366-4.994,0.631c0.08,0.599,0.12,0.898,0.199,1.497c1.845-0.245,2.767-0.361,4.614-0.585
				c0.092,0.763,0.139,1.143,0.231,1.905c-1.838,0.223-2.757,0.339-4.593,0.582c0.099,0.746,0.148,1.119,0.248,1.864
				c2.03-0.269,3.044-0.396,5.076-0.64c0.102,0.852,0.154,1.278,0.256,2.13c-3.196,0.383-4.792,0.591-7.982,1.037
				C88.37,21.359,88.108,19.478,87.581,15.716z"/>
			<path fill="#FFFFFF" d="M99.051,14.286c1.132-0.126,1.698-0.188,2.831-0.307c0.633,2.064,0.948,3.097,1.571,5.163
				c0.373-2.168,0.561-3.252,0.949-5.42c1.139-0.112,1.71-0.166,2.85-0.271c0.796,2.055,1.19,3.082,1.971,5.141
				c0.221-2.146,0.334-3.219,0.565-5.366c1.129-0.097,1.694-0.144,2.823-0.232c-0.554,3.849-0.823,5.773-1.338,9.624
				c-1.151,0.097-1.725,0.147-2.876,0.252c-0.879-2.314-1.325-3.469-2.224-5.778c-0.452,2.438-0.672,3.656-1.104,6.095
				c-1.145,0.114-1.716,0.173-2.86,0.295C100.965,19.799,100.334,17.96,99.051,14.286z"/>
			<path fill="#FFFFFF" d="M129.827,19.907c-1.345,0.051-2.018,0.08-3.362,0.142c-0.152,0.638-0.228,0.958-0.379,1.596
				c-1.201,0.057-1.802,0.087-3.003,0.153c1.216-3.866,1.841-5.796,3.124-9.652c1.316-0.061,1.975-0.087,3.292-0.138
				c1.609,3.735,2.397,5.605,3.939,9.355c-1.229,0.036-1.843,0.056-3.071,0.101C130.151,20.84,130.043,20.53,129.827,19.907z
				 M129.132,17.893c-0.478-1.343-0.717-2.016-1.202-3.358c-0.37,1.378-0.553,2.067-0.916,3.446
				C127.861,17.943,128.285,17.927,129.132,17.893z"/>
			<path fill="#FFFFFF" d="M136.868,11.791c2.133-0.044,3.2-0.058,5.333-0.075c0.517-0.004,1.202,0.077,1.647,0.176
				c0.363,0.081,0.709,0.266,1.009,0.528c0.514,0.45,0.8,1.124,0.799,1.865c0,0.914-0.299,1.591-0.93,2.107
				c-0.407,0.333-1.384,0.613-1.384,0.613c-0.001,0.029,1.267,0.685,1.669,1.439c0.569,1.096,0.851,1.646,1.412,2.744
				c-1.33-0.003-1.995-0.003-3.325,0.004c-0.629-1.157-0.946-1.735-1.584-2.889c-0.409-0.725-0.706-0.947-1.283-0.939
				c-0.107,0.001-0.161,0.002-0.268,0.004c0.021,1.542,0.031,2.312,0.051,3.854c-1.181,0.016-1.772,0.026-2.953,0.05
				C136.985,17.479,136.947,15.583,136.868,11.791z M139.915,13.66c0.01,0.768,0.016,1.152,0.026,1.92
				c0.506-0.007,0.76-0.009,1.267-0.015c0.904-0.009,1.466-0.384,1.462-0.993c-0.004-0.649-0.438-0.937-1.346-0.928
				C140.761,13.649,140.479,13.652,139.915,13.66z"/>
			<path fill="#FFFFFF" d="M150.173,11.729c2.133,0.024,3.202,0.044,5.334,0.096c0.518,0.013,1.198,0.115,1.641,0.229
				c0.36,0.092,0.7,0.287,0.991,0.559c0.499,0.466,0.765,1.15,0.74,1.892c-0.029,0.914-0.351,1.58-0.997,2.075
				c-0.417,0.319-1.402,0.569-1.402,0.569c-0.002,0.029,1.243,0.724,1.621,1.491c0.533,1.114,0.8,1.671,1.325,2.787
				c-1.329-0.045-1.993-0.066-3.323-0.101c-0.592-1.176-0.893-1.764-1.493-2.938c-0.386-0.737-0.673-0.968-1.25-0.979
				c-0.107-0.002-0.165-0.003-0.272-0.005c-0.028,1.541-0.042,2.312-0.071,3.853c-1.181-0.022-1.771-0.029-2.951-0.043
				C150.11,17.42,150.131,15.522,150.173,11.729z M153.158,13.696c-0.015,0.768-0.021,1.152-0.035,1.92
				c0.507,0.009,0.761,0.015,1.268,0.025c0.903,0.02,1.479-0.337,1.494-0.945c0.017-0.649-0.412-0.953-1.319-0.973
				C154.002,13.711,153.722,13.706,153.158,13.696z"/>
			<path fill="#FFFFFF" d="M163.611,12.1c1.208,0.053,1.812,0.081,3.019,0.143c-0.192,3.788-0.288,5.683-0.483,9.471
				c-1.18-0.06-1.77-0.088-2.95-0.14C163.364,17.784,163.446,15.889,163.611,12.1z"/>
			<path fill="#FFFFFF" d="M170.485,12.456c1.256,0.076,1.886,0.116,3.141,0.201c0.691,2.786,1.03,4.181,1.69,6.97
				c1.05-2.664,1.58-3.996,2.656-6.653c1.222,0.096,1.832,0.146,3.053,0.25c-1.767,3.655-2.633,5.488-4.337,9.162
				c-1.274-0.098-1.911-0.146-3.186-0.233C172.333,18.27,171.727,16.33,170.485,12.456z"/>
			<path fill="#FFFFFF" d="M189.077,21.943c-1.34-0.144-2.008-0.213-3.349-0.346c-0.243,0.609-0.365,0.916-0.607,1.525
				c-1.198-0.117-1.797-0.175-2.995-0.283c1.764-3.65,2.66-5.469,4.487-9.099c1.312,0.13,1.97,0.197,3.281,0.337
				c1.055,3.927,1.563,5.893,2.549,9.827c-1.223-0.142-1.835-0.21-3.059-0.343C189.263,22.915,189.201,22.591,189.077,21.943z
				 M188.68,19.851c-0.279-1.398-0.418-2.099-0.704-3.497c-0.565,1.31-0.847,1.967-1.405,3.279
				C187.415,19.718,187.835,19.761,188.68,19.851z"/>
			<path fill="#FFFFFF" d="M197.217,14.93c1.201,0.15,1.802,0.227,3.002,0.386c-0.375,2.836-0.565,4.253-0.94,7.089
				c1.834,0.243,2.752,0.371,4.583,0.634c-0.133,0.923-0.2,1.383-0.333,2.306c-2.993-0.431-4.489-0.631-7.488-1.006
				C196.512,20.575,196.747,18.693,197.217,14.93z"/>
			<path fill="#FFFFFF" d="M213.592,20.182c-0.006-0.874-0.384-1.313-1.257-1.456c-0.631-0.103-1.082,0.12-1.153,0.565
				c-0.061,0.379,0.221,0.616,1.082,0.953c1.669,0.654,2.569,1.137,3.145,1.708c0.572,0.569,0.824,1.419,0.677,2.268
				c-0.157,0.9-0.703,1.675-1.482,2.11c-0.904,0.504-1.849,0.596-3.243,0.368c-1.409-0.231-2.401-0.615-2.975-1.187
				c-0.305-0.303-0.559-0.703-0.727-1.184c-0.207-0.592-0.23-0.868-0.191-1.572c1.132,0.104,1.698,0.158,2.83,0.27
				c-0.038,1.094,0.433,1.704,1.397,1.862c0.768,0.126,1.375-0.188,1.469-0.75c0.101-0.601-0.299-0.979-1.632-1.505
				c-1.846-0.729-2.666-1.35-3.031-2.344c-0.135-0.368-0.169-0.777-0.108-1.17c0.112-0.733,0.589-1.4,1.251-1.762
				c0.84-0.459,1.814-0.561,3.27-0.322c2.507,0.411,3.586,1.49,3.493,3.45C215.281,20.359,214.716,20.299,213.592,20.182z"/>
		</g>
	</g>
</g>
<g id="Layer_5">
</g>
<g id="Layer_7">
	<g>
		<g>
			<path fill="#FFFFFF" d="M86.73,14.375c3.263-0.331,5.314,1.318,5.607,4.486c0.162,1.749-0.172,3.02-1.055,4.027
				c-0.812,0.927-1.927,1.412-3.557,1.577c-1.672,0.169-2.876-0.103-3.897-0.945c-0.991-0.818-1.55-1.957-1.725-3.538
				C81.748,16.765,83.425,14.71,86.73,14.375z M87.498,22.225c1.389-0.141,1.976-1.106,1.794-2.963
				c-0.118-1.202-0.414-1.875-0.98-2.288c-0.362-0.263-0.823-0.374-1.365-0.318c-1.402,0.142-1.987,1.13-1.789,3.013
				C85.351,21.511,86.136,22.363,87.498,22.225z"/>
			<path fill="#FFFFFF" d="M102.841,13.133c1.229-0.09,1.844-0.134,3.073-0.218c0.159,2.337,0.238,3.508,0.397,5.846
				c0.078,1.149-0.209,2.2-0.82,2.958c-0.751,0.933-1.754,1.361-3.346,1.482c-2.113,0.16-3.098-0.06-4.04-0.918
				c-0.719-0.655-1.165-1.651-1.262-2.799c-0.197-2.335-0.296-3.502-0.493-5.837c1.228-0.104,1.842-0.154,3.07-0.252
				c0.189,2.391,0.284,3.586,0.474,5.978c0.086,1.08,0.755,1.658,1.83,1.576c1.061-0.081,1.635-0.754,1.556-1.834
				C103.104,16.721,103.017,15.524,102.841,13.133z"/>
			<path fill="#FFFFFF" d="M110.771,12.604c2.191-0.131,3.288-0.19,5.479-0.301c0.531-0.027,1.237,0.025,1.7,0.108
				c0.377,0.067,0.741,0.245,1.06,0.502c0.547,0.442,0.876,1.126,0.91,1.894c0.042,0.946-0.235,1.661-0.861,2.224
				c-0.404,0.363-1.398,0.697-1.398,0.697c0,0.031,1.336,0.651,1.786,1.414c0.637,1.108,0.955,1.663,1.585,2.773
				c-1.375,0.059-2.062,0.091-3.437,0.158c-0.701-1.169-1.054-1.755-1.762-2.922c-0.454-0.732-0.771-0.948-1.366-0.916
				c-0.11,0.006-0.166,0.008-0.276,0.014c0.087,1.595,0.129,2.392,0.216,3.986c-1.22,0.066-1.831,0.104-3.051,0.176
				C111.122,18.489,111.004,16.526,110.771,12.604z M113.981,14.414c0.043,0.794,0.065,1.192,0.108,1.987
				c0.521-0.028,0.782-0.042,1.303-0.07c0.931-0.048,1.496-0.46,1.464-1.09c-0.033-0.671-0.494-0.952-1.427-0.904
				C114.851,14.367,114.561,14.382,113.981,14.414z"/>
			<path fill="#FFFFFF" d="M132.106,21.548c-0.09-3.929-0.138-5.893-0.229-9.821c2.311-0.054,3.466-0.075,5.777-0.106
				c1.147-0.016,1.917,0.266,2.458,0.903c0.34,0.402,0.553,0.942,0.557,1.436c0.008,0.946-0.422,1.723-1.163,2.068
				c-0.094,0.044-0.429,0.171-0.429,0.171c0.004,0.06,2.076,1.105,2.086,2.463c0.009,1.194-0.817,2.265-1.92,2.543
				c-0.383,0.097-0.898,0.167-1.512,0.225c-0.191,0.018-0.316,0.019-0.386,0.02C135.25,21.479,134.202,21.499,132.106,21.548z
				 M135.052,15.517c0.534-0.01,0.801-0.015,1.335-0.023c0.904-0.014,1.288-0.307,1.278-0.979c-0.009-0.63-0.401-0.9-1.294-0.886
				c-0.542,0.009-0.812,0.013-1.354,0.022C135.031,14.398,135.038,14.771,135.052,15.517z M135.12,19.372
				c0.624-0.011,0.938-0.018,1.562-0.027c0.967-0.015,1.431-0.348,1.422-1.048c-0.008-0.659-0.47-0.97-1.454-0.955
				c-0.626,0.01-0.938,0.015-1.563,0.026C135.101,18.169,135.106,18.571,135.12,19.372z"/>
			<path fill="#FFFFFF" d="M146,11.566c2,0,3.074,0.006,5.269,0.027c0.531,0.005,1.126,0.1,1.583,0.21
				c0.372,0.09,0.672,0.287,0.975,0.563c0.52,0.474,0.776,1.179,0.765,1.947c-0.015,0.947-0.345,1.642-1.003,2.166
				c-0.425,0.338-1.443,0.614-1.443,0.614c-0.002,0.03,1.293,0.729,1.696,1.517c0.57,1.145,0.851,1.718,1.415,2.864
				c-1.376-0.023-2.066-0.034-3.442-0.049c-0.63-1.209-0.946-1.814-1.583-3.021c-0.409-0.757-0.714-0.992-1.309-0.995
				c-0.11,0-0.165-0.001-0.276-0.002c-0.008,1.597,0.202,2.396,0.193,3.993c-1.222-0.006-1.838-0.009-2.838-0.009
				C146,17.461,146,15.495,146,11.566z M148.664,13.564c-0.004,0.796-0.005,1.193-0.01,1.989c0.522,0.003,0.783,0.005,1.305,0.009
				c0.932,0.007,1.52-0.369,1.525-1c0.007-0.672-0.437-0.98-1.371-0.988C149.534,13.569,149.244,13.567,148.664,13.564z"/>
			<path fill="#FFFFFF" d="M165.096,20.091c-1.391-0.047-2.086-0.069-3.477-0.108c-0.206,0.647-0.308,0.973-0.513,1.62
				c-1.243-0.034-1.865-0.049-3.108-0.076c1.561-3.896,2.354-5.843,3.963-9.729c1.354,0.038,2.03,0.06,3.384,0.106
				c1.372,3.978,2.046,5.969,3.365,9.956c-1.271-0.051-1.903-0.076-3.175-0.12C165.36,21.08,165.271,20.75,165.096,20.091z
				 M164.532,17.957c-0.391-1.424-0.588-2.135-0.984-3.559c-0.483,1.396-0.725,2.093-1.203,3.49
				C163.22,17.914,163.657,17.928,164.532,17.957z"/>
			<path fill="#FFFFFF" d="M172.92,12.21c1.158,0.054,1.738,0.083,2.896,0.143c1.396,2.249,2.087,3.375,3.454,5.632
				c0.127-2.17,0.193-3.254,0.32-5.423c1.163,0.068,1.742,0.104,2.904,0.177c-0.249,3.92-0.374,5.881-0.624,9.803
				c-1.148-0.073-1.722-0.106-2.87-0.174c-1.347-2.239-2.025-3.358-3.4-5.589c-0.111,2.154-0.169,3.233-0.281,5.387
				c-1.144-0.06-1.716-0.089-2.859-0.143C172.644,18.098,172.736,16.135,172.92,12.21z"/>
			<path fill="#FFFFFF" d="M187.364,13.068c1.832,0.132,2.75,0.202,4.581,0.348c3.085,0.246,4.458,2.039,4.168,5.347
				c-0.15,1.708-0.627,2.782-1.574,3.568c-0.433,0.359-0.915,0.621-1.391,0.738c-0.513,0.126-1.423,0.171-1.986,0.126
				c-1.801-0.144-2.7-0.213-4.502-0.342C186.942,18.939,187.083,16.981,187.364,13.068z M190.295,15.515
				c-0.165,2.14-0.249,3.21-0.414,5.35c0.292,0.022,0.437,0.035,0.729,0.058c0.882,0.069,1.352-0.004,1.659-0.268
				c0.463-0.396,0.691-1.003,0.788-2.179c0.167-2.023-0.357-2.772-2.012-2.902C190.744,15.551,190.596,15.538,190.295,15.515z"/>
			<path fill="#FFFFFF" d="M205.984,17.659c-0.059-0.903-0.476-1.332-1.379-1.424c-0.653-0.067-1.102,0.191-1.148,0.655
				c-0.04,0.396,0.261,0.625,1.166,0.919c1.753,0.572,2.71,1.011,3.335,1.564c0.623,0.551,0.937,1.413,0.839,2.299
				c-0.104,0.942-0.614,1.778-1.389,2.277c-0.898,0.58-1.866,0.739-3.318,0.589c-1.466-0.15-2.513-0.487-3.139-1.045
				c-0.331-0.294-0.612-0.693-0.814-1.182c-0.248-0.601-0.288-0.881-0.289-1.612c1.171,0.039,1.753,0.06,2.924,0.104
				c0.026,1.133,0.55,1.737,1.553,1.84c0.798,0.082,1.404-0.281,1.466-0.868c0.065-0.627-0.37-0.991-1.771-1.451
				c-1.941-0.638-2.822-1.233-3.255-2.238c-0.16-0.373-0.219-0.792-0.18-1.201c0.073-0.765,0.522-1.486,1.18-1.901
				c0.833-0.525,1.826-0.689,3.332-0.534c2.594,0.266,3.766,1.308,3.795,3.34C207.729,17.735,207.146,17.709,205.984,17.659z"/>
		</g>
	</g>
</g>
<g id="Layer_6">
	<polygon points="146.254,45.334 148.085,51 154.035,51 149.229,54.289 151.047,59.865 146.254,56.309 141.433,59.799 
		143.304,54.292 138.473,51 144.421,51 	"/>
	<polygon points="165.374,51.88 166.383,55 169.66,55 167.012,56.797 168.014,59.861 165.374,57.898 162.719,59.818 163.749,56.8 
		161.088,55 164.364,55 	"/>
	<polygon points="127.251,51.88 128.26,55 131.537,55 128.889,56.797 129.891,59.861 127.251,57.898 124.596,59.818 125.626,56.8 
		122.966,55 126.242,55 	"/>
	<g>
	</g>
	<g>
	</g>
	<g>
	</g>
	<g>
	</g>
	<g>
	</g>
	<g>
	</g>
	<g>
	</g>
	<g>
	</g>
	<g>
	</g>
	<g>
	</g>
	<g>
	</g>
	<g>
	</g>
	<g>
	</g>
	<g>
	</g>
	<g>
	</g>
</g>
</svg>
