<?xml version="1.0" encoding="utf-8"?>
<!-- Generator: Adobe Illustrator 16.0.0, SVG Export Plug-In . SVG Version: 6.00 Build 0)  -->
<!DOCTYPE svg PUBLIC "-//W3C//DTD SVG 1.1//EN" "http://www.w3.org/Graphics/SVG/1.1/DTD/svg11.dtd">
<svg version="1.1" xmlns="http://www.w3.org/2000/svg" xmlns:xlink="http://www.w3.org/1999/xlink" x="0px" y="0px"
	 width="292.112px" height="68.008px" viewBox="0 0 292.112 68.008" enable-background="new 0 0 292.112 68.008"
	 xml:space="preserve">
<g id="Layer_2">
	<g>
		<path d="M241,10.781C222,0,146,0,146,0S70.028,0,51.028,10.781c-2,9.951,1.028,24.049,5.028,32.342C71.556,36.074,146,34,146,34
			s74.5,2.074,90,9.123C240,34.83,243,20.732,241,10.781z"/>
		<path d="M292.112,41.545c0,0-30.445-17.496-47.175-19.103c-1.438,14.185-5.191,21.262-7.438,24.412L215,48.099
			c29.667,4.976,57.334,19.909,57.334,19.909l-9.727-22.799L292.112,41.545z"/>
		<path d="M47.175,22.442C30.445,24.049,0,41.545,0,41.545l29.505,3.664l-9.727,22.799c0,0,27.667-14.934,57.334-19.909l-22.5-1.244
			C52.366,43.704,48.612,36.627,47.175,22.442z"/>
	</g>
</g>
<g id="Layer_4">
	<g>
		<g>
			<path fill="#FFFFFF" d="M73.657,17.918c1.114-0.194,1.672-0.291,2.788-0.478c1.801,1.826,2.692,2.744,4.459,4.588
				c-0.329-2.072-0.493-3.108-0.822-5.181c1.122-0.178,1.683-0.265,2.806-0.435c0.568,3.75,0.852,5.625,1.42,9.375
				c-1.103,0.167-1.652,0.252-2.753,0.427c-1.739-1.833-2.617-2.744-4.39-4.558c0.344,2.053,0.515,3.08,0.859,5.133
				c-1.095,0.184-1.642,0.277-2.736,0.468C74.635,23.522,74.31,21.655,73.657,17.918z"/>
			<path fill="#FFFFFF" d="M87.581,15.716c3.205-0.448,4.808-0.655,8.019-1.042c0.098,0.81,0.146,1.215,0.243,2.025
				c-1.999,0.24-2.998,0.366-4.994,0.631c0.08,0.599,0.12,0.898,0.199,1.497c1.845-0.245,2.767-0.361,4.614-0.585
				c0.092,0.763,0.139,1.143,0.231,1.905c-1.838,0.223-2.757,0.339-4.593,0.582c0.099,0.746,0.148,1.119,0.248,1.864
				c2.03-0.269,3.044-0.396,5.076-0.64c0.102,0.852,0.154,1.278,0.256,2.13c-3.196,0.383-4.792,0.591-7.982,1.037
				C88.37,21.359,88.108,19.478,87.581,15.716z"/>
			<path fill="#FFFFFF" d="M99.051,14.286c1.132-0.126,1.698-0.188,2.831-0.307c0.633,2.064,0.948,3.097,1.571,5.163
				c0.373-2.168,0.561-3.252,0.949-5.42c1.139-0.112,1.71-0.166,2.85-0.271c0.796,2.055,1.19,3.082,1.971,5.141
				c0.221-2.146,0.334-3.219,0.565-5.366c1.129-0.097,1.694-0.144,2.823-0.232c-0.554,3.849-0.823,5.773-1.338,9.624
				c-1.151,0.097-1.725,0.147-2.876,0.252c-0.879-2.314-1.325-3.469-2.224-5.778c-0.452,2.438-0.672,3.656-1.104,6.095
				c-1.145,0.114-1.716,0.173-2.86,0.295C100.965,19.799,100.334,17.96,99.051,14.286z"/>
			<path fill="#FFFFFF" d="M129.827,19.907c-1.345,0.051-2.018,0.08-3.362,0.142c-0.152,0.638-0.228,0.958-0.379,1.596
				c-1.201,0.057-1.802,0.087-3.003,0.153c1.216-3.866,1.841-5.796,3.124-9.652c1.316-0.061,1.975-0.087,3.292-0.138
				c1.609,3.735,2.397,5.605,3.939,9.355c-1.229,0.036-1.843,0.056-3.071,0.101C130.151,20.84,130.043,20.53,129.827,19.907z
				 M129.132,17.893c-0.478-1.343-0.717-2.016-1.202-3.358c-0.37,1.378-0.553,2.067-0.916,3.446
				C127.861,17.943,128.285,17.927,129.132,17.893z"/>
			<path fill="#FFFFFF" d="M136.868,11.791c2.133-0.044,3.2-0.058,5.333-0.075c0.517-0.004,1.202,0.077,1.647,0.176
				c0.363,0.081,0.709,0.266,1.009,0.528c0.514,0.45,0.8,1.124,0.799,1.865c0,0.914-0.299,1.591-0.93,2.107
				c-0.407,0.333-1.384,0.613-1.384,0.613c-0.001,0.029,1.267,0.685,1.669,1.439c0.569,1.096,0.851,1.646,1.412,2.744
				c-1.33-0.003-1.995-0.003-3.325,0.004c-0.629-1.157-0.946-1.735-1.584-2.889c-0.409-0.725-0.706-0.947-1.283-0.939
				c-0.107,0.001-0.161,0.002-0.268,0.004c0.021,1.542,0.031,2.312,0.051,3.854c-1.181,0.016-1.772,0.026-2.953,0.05
				C136.985,17.479,136.947,15.583,136.868,11.791z M139.915,13.66c0.01,0.768,0.016,1.152,0.026,1.92
				c0.506-0.007,0.76-0.009,1.267-0.015c0.904-0.009,1.466-0.384,1.462-0.993c-0.004-0.649-0.438-0.937-1.346-0.928
				C140.761,13.649,140.479,13.652,139.915,13.66z"/>
			<path fill="#FFFFFF" d="M150.173,11.729c2.133,0.024,3.202,0.044,5.334,0.096c0.518,0.013,1.198,0.115,1.641,0.229
				c0.36,0.092,0.7,0.287,0.991,0.559c0.499,0.466,0.765,1.15,0.74,1.892c-0.029,0.914-0.351,1.58-0.997,2.075
				c-0.417,0.319-1.402,0.569-1.402,0.569c-0.002,0.029,1.243,0.724,1.621,1.491c0.533,1.114,0.8,1.671,1.325,2.787
				c-1.329-0.045-1.993-0.066-3.323-0.101c-0.592-1.176-0.893-1.764-1.493-2.938c-0.386-0.737-0.673-0.968-1.25-0.979
				c-0.107-0.002-0.165-0.003-0.272-0.005c-0.028,1.541-0.042,2.312-0.071,3.853c-1.181-0.022-1.771-0.029-2.951-0.043
				C150.11,17.42,150.131,15.522,150.173,11.729z M153.158,13.696c-0.015,0.768-0.021,1.152-0.035,1.92
				c0.507,0.009,0.761,0.015,1.268,0.025c0.903,0.02,1.479-0.337,1.494-0.945c0.017-0.649-0.412-0.953-1.319-0.973
				C154.002,13.711,153.722,13.706,153.158,13.696z"/>
			<path fill="#FFFFFF" d="M163.611,12.1c1.208,0.053,1.812,0.081,3.019,0.143c-0.192,3.788-0.288,5.683-0.483,9.471
				c-1.18-0.06-1.77-0.088-2.95-0.14C163.364,17.784,163.446,15.889,163.611,12.1z"/>
			<path fill="#FFFFFF" d="M170.485,12.456c1.256,0.076,1.886,0.116,3.141,0.201c0.691,2.786,1.03,4.181,1.69,6.97
				c1.05-2.664,1.58-3.996,2.656-6.653c1.222,0.096,1.832,0.146,3.053,0.25c-1.767,3.655-2.633,5.488-4.337,9.162
				c-1.274-0.098-1.911-0.146-3.186-0.233C172.333,18.27,171.727,16.33,170.485,12.456z"/>
			<path fill="#FFFFFF" d="M189.077,21.943c-1.34-0.144-2.008-0.213-3.349-0.346c-0.243,0.609-0.365,0.916-0.607,1.525
				c-1.198-0.117-1.797-0.175-2.995-0.283c1.764-3.65,2.66-5.469,4.487-9.099c1.312,0.13,1.97,0.197,3.281,0.337
				c1.055,3.927,1.563,5.893,2.549,9.827c-1.223-0.142-1.835-0.21-3.059-0.343C189.263,22.915,189.201,22.591,189.077,21.943z
				 M188.68,19.851c-0.279-1.398-0.418-2.099-0.704-3.497c-0.565,1.31-0.847,1.967-1.405,3.279
				C187.415,19.718,187.835,19.761,188.68,19.851z"/>
			<path fill="#FFFFFF" d="M197.217,14.93c1.201,0.15,1.802,0.227,3.002,0.386c-0.375,2.836-0.565,4.253-0.94,7.089
				c1.834,0.243,2.752,0.371,4.583,0.634c-0.133,0.923-0.2,1.383-0.333,2.306c-2.993-0.431-4.489-0.631-7.488-1.006
				C196.512,20.575,196.747,18.693,197.217,14.93z"/>
			<path fill="#FFFFFF" d="M213.592,20.182c-0.006-0.874-0.384-1.313-1.257-1.456c-0.631-0.103-1.082,0.12-1.153,0.565
				c-0.061,0.379,0.221,0.616,1.082,0.953c1.669,0.654,2.569,1.137,3.145,1.708c0.572,0.569,0.824,1.419,0.677,2.268
				c-0.157,0.9-0.703,1.675-1.482,2.11c-0.904,0.504-1.849,0.596-3.243,0.368c-1.409-0.231-2.401-0.615-2.975-1.187
				c-0.305-0.303-0.559-0.703-0.727-1.184c-0.207-0.592-0.23-0.868-0.191-1.572c1.132,0.104,1.698,0.158,2.83,0.27
				c-0.038,1.094,0.433,1.704,1.397,1.862c0.768,0.126,1.375-0.188,1.469-0.75c0.101-0.601-0.299-0.979-1.632-1.505
				c-1.846-0.729-2.666-1.35-3.031-2.344c-0.135-0.368-0.169-0.777-0.108-1.17c0.112-0.733,0.589-1.4,1.251-1.762
				c0.84-0.459,1.814-0.561,3.27-0.322c2.507,0.411,3.586,1.49,3.493,3.45C215.281,20.359,214.716,20.299,213.592,20.182z"/>
		</g>
	</g>
</g>
<g id="Layer_6">
	<polygon points="146.254,45.334 148.085,51 154.035,51 149.229,54.289 151.047,59.865 146.254,56.309 141.433,59.799 
		143.304,54.292 138.473,51 144.421,51 	"/>
	<polygon points="165.374,51.88 166.383,55 169.66,55 167.012,56.797 168.014,59.861 165.374,57.898 162.719,59.818 163.749,56.8 
		161.088,55 164.364,55 	"/>
	<polygon points="127.251,51.88 128.26,55 131.537,55 128.889,56.797 129.891,59.861 127.251,57.898 124.596,59.818 125.626,56.8 
		122.966,55 126.242,55 	"/>
	<g>
	</g>
	<g>
	</g>
	<g>
	</g>
	<g>
	</g>
	<g>
	</g>
	<g>
	</g>
	<g>
	</g>
	<g>
	</g>
	<g>
	</g>
	<g>
	</g>
	<g>
	</g>
	<g>
	</g>
	<g>
	</g>
	<g>
	</g>
	<g>
	</g>
</g>
</svg>
