<?xml version="1.0" encoding="utf-8"?>
<!-- Generator: Adobe Illustrator 17.1.0, SVG Export Plug-In . SVG Version: 6.00 Build 0)  -->
<!DOCTYPE svg PUBLIC "-//W3C//DTD SVG 1.1//EN" "http://www.w3.org/Graphics/SVG/1.1/DTD/svg11.dtd">
<svg version="1.1" id="g_x2B_icon_xA0_Image_1_" xmlns="http://www.w3.org/2000/svg" xmlns:xlink="http://www.w3.org/1999/xlink"
	 x="0px" y="0px" viewBox="0 0 33 33" enable-background="new 0 0 33 33" xml:space="preserve">
<g>
	<path fill-rule="evenodd" clip-rule="evenodd" fill="#FFFFFF" d="M-807,55c-9.5-8.2-25.1-17.3-23-33c3-22.2,35.6-27.3,39-61
		c3.4-33.5-9.7-47.9-25-63c23.1,3.1,33.9-6.1,46-14c-58.7,1.2-113.7-7-145,22c-43.5,40.3-20.4,123.8,54,112c-9.8,14.8,1.5,34.2,6,43
		c-36.6,1.9-71.1,10.2-89,30c-16.4,18.1-17.3,49.3-1,67c42.1,45.7,163.3,23.8,168-45C-775,82.9-791,68.9-807,55z M-870,6
		c-32.1-13.4-58-98.1-8-108c33.6-6.7,51.6,27.4,55,60C-819.6-8.9-837.5,19.7-870,6z M-923,133c-4.9-13.2-0.7-34.3,9-44
		c9.9-9.9,24.1-14.4,48-17c6.7-0.7,14.4-2.4,21-1c8.1,1.8,17.2,11.2,23,16c6.8,5.7,20.8,18.4,21,36
		C-800.3,180.2-906.8,177.3-923,133z M-688,6v-42h-24c-0.7,13.7,1.3,30-1,42h-40v24c13.3,0.7,29.3-1.3,41,1v40h24V30h42V6H-688z"/>
	<path fill-rule="evenodd" clip-rule="evenodd" d="M-807,55c-9.5-8.2-25.1-17.3-23-33c3-22.2,35.6-27.3,39-61
		c3.4-33.5-9.7-47.9-25-63c23.1,3.1,33.9-6.1,46-14c-58.7,1.2-113.7-7-145,22c-43.5,40.3-20.4,123.8,54,112c-9.8,14.8,1.5,34.2,6,43
		c-36.6,1.9-71.1,10.2-89,30c-16.4,18.1-17.3,49.3-1,67c42.1,45.7,163.3,23.8,168-45C-775,82.9-791,68.9-807,55z M-870,6
		c-32.1-13.4-58-98.1-8-108c33.6-6.7,51.6,27.4,55,60C-819.6-8.9-837.5,19.7-870,6z M-923,133c-4.9-13.2-0.7-34.3,9-44
		c9.9-9.9,24.1-14.4,48-17c6.7-0.7,14.4-2.4,21-1c8.1,1.8,17.2,11.2,23,16c6.8,5.7,20.8,18.4,21,36
		C-800.3,180.2-906.8,177.3-923,133z"/>
	<path fill-rule="evenodd" clip-rule="evenodd" fill="none" d="M-870,6c-32.1-13.4-58-98.1-8-108c33.6-6.7,51.6,27.4,55,60
		C-819.6-8.9-837.5,19.7-870,6z"/>
	<path fill-rule="evenodd" clip-rule="evenodd" d="M-712-36c8,0,16,0,24,0c0,14,0,28,0,42c14,0,28,0,42,0c0,8,0,16,0,24
		c-14,0-28,0-42,0c0,13.7,0,27.3,0,41c-8,0-16,0-24,0c0-13.3,0-26.7,0-40c-11.7-2.3-27.7-0.3-41-1c0-8,0-16,0-24c13.3,0,26.7,0,40,0
		C-710.7-6-712.7-22.3-712-36z"/>
	<path fill-rule="evenodd" clip-rule="evenodd" fill="none" d="M-801,123c0.7,57.2-105.8,54.3-122,10c-4.9-13.2-0.7-34.3,9-44
		c9.9-9.9,24.1-14.4,48-17c6.7-0.7,14.4-2.4,21-1c8.1,1.8,17.2,11.2,23,16C-815.2,92.7-801.3,105.4-801,123z"/>
</g>
<path stroke="#CCCCCC" stroke-width="2" stroke-miterlimit="10" d="M31.5,16.5c0,8.3-6.7,15-15,15c-8.3,0-15-6.7-15-15
	c0-8.3,6.7-15,15-15C24.8,1.5,31.5,8.2,31.5,16.5z"/>
<g>
	<path fill-rule="evenodd" clip-rule="evenodd" fill="#FFFFFF" d="M74.9,36.8c-0.6-0.5-1.7-1.1-1.5-2.2c0.2-1.5,2.4-1.8,2.6-4.1
		c0.2-2.2-0.6-3.2-1.7-4.2c1.5,0.2,2.3-0.4,3.1-0.9c-3.9,0.1-7.6-0.5-9.7,1.5c-2.9,2.7-1.4,8.3,3.6,7.5c-0.7,1,0.1,2.3,0.4,2.9
		c-2.4,0.1-4.7,0.7-5.9,2c-1.1,1.2-1.2,3.3-0.1,4.5c2.8,3.1,10.9,1.6,11.2-3C77,38.6,75.9,37.7,74.9,36.8z M70.7,33.5
		c-2.1-0.9-3.9-6.5-0.5-7.2c2.2-0.4,3.4,1.8,3.7,4C74,32.5,72.8,34.4,70.7,33.5z M67.1,42c-0.3-0.9,0-2.3,0.6-2.9
		c0.7-0.7,1.6-1,3.2-1.1c0.4-0.1,1-0.2,1.4-0.1c0.5,0.1,1.1,0.7,1.5,1.1c0.5,0.4,1.4,1.2,1.4,2.4C75.3,45.1,68.2,44.9,67.1,42z
		 M82.8,33.5v-2.8h-1.6c0,0,0,0.1,0,0.1c0,0.3,0,0.6,0,0.8c0,0.1,0,0.1,0,0.2c0,0.3,0,0.7,0,1v0c0,0.1,0,0.2,0,0.3
		c0,0.1,0,0.2,0,0.2c0,0,0,0.1,0,0.1l0,0h-2.7v1.6l0,0c0.1,0,0.3,0,0.4,0c0.1,0,0.2,0,0.2,0c0.1,0,0.3,0,0.4,0c0.3,0,0.6,0,1,0
		c0.1,0,0.2,0,0.4,0c0,0,0.1,0,0.1,0c0,0,0,0,0,0c0,0,0.1,0,0.1,0c0,0,0.1,0,0.1,0v2.7h1.6v-2.7h2.8v-1.6H82.8z"/>
	<path fill-rule="evenodd" clip-rule="evenodd" fill="#FFFFFF" d="M74.9,36.8c-0.6-0.5-1.7-1.1-1.5-2.2c0.2-1.5,2.4-1.8,2.6-4.1
		c0.2-2.2-0.6-3.2-1.7-4.2c1.5,0.2,2.3-0.4,3.1-0.9c-3.9,0.1-7.6-0.5-9.7,1.5c-2.9,2.7-1.4,8.3,3.6,7.5c-0.7,1,0.1,2.3,0.4,2.9
		c-2.4,0.1-4.7,0.7-5.9,2c-1.1,1.2-1.2,3.3-0.1,4.5c2.8,3.1,10.9,1.6,11.2-3C77,38.6,75.9,37.7,74.9,36.8z M70.7,33.5
		c-2.1-0.9-3.9-6.5-0.5-7.2c2.2-0.4,3.4,1.8,3.7,4C74,32.5,72.8,34.4,70.7,33.5z M67.1,42c-0.3-0.9,0-2.3,0.6-2.9
		c0.7-0.7,1.6-1,3.2-1.1c0.4-0.1,1-0.2,1.4-0.1c0.5,0.1,1.1,0.7,1.5,1.1c0.5,0.4,1.4,1.2,1.4,2.4C75.3,45.1,68.2,44.9,67.1,42z"/>
	<path fill-rule="evenodd" clip-rule="evenodd" fill="none" d="M70.7,33.5c-2.1-0.9-3.9-6.5-0.5-7.2c2.2-0.4,3.4,1.8,3.7,4
		C74,32.5,72.8,34.4,70.7,33.5z"/>
	<path fill-rule="evenodd" clip-rule="evenodd" fill="#FFFFFF" d="M81.2,30.7c0.5,0,1.1,0,1.6,0c0,0.9,0,1.9,0,2.8
		c0.9,0,1.9,0,2.8,0c0,0.5,0,1.1,0,1.6c-0.9,0-1.9,0-2.8,0c0,0.9,0,1.8,0,2.7c-0.5,0-1.1,0-1.6,0c0-0.9,0-1.8,0-2.7
		c-0.8-0.2-1.8,0-2.7-0.1c0-0.5,0-1.1,0-1.6c0.9,0,1.8,0,2.7,0C81.3,32.7,81.2,31.6,81.2,30.7z"/>
	<path fill-rule="evenodd" clip-rule="evenodd" fill="none" d="M75.3,41.3c0,3.8-7.1,3.6-8.1,0.7c-0.3-0.9,0-2.3,0.6-2.9
		c0.7-0.7,1.6-1,3.2-1.1c0.4-0.1,1-0.2,1.4-0.1c0.5,0.1,1.1,0.7,1.5,1.1C74.3,39.3,75.3,40.2,75.3,41.3z"/>
</g>
<path fill="#FFFFFF" d="M74.3,5.1c-0.6,0.3-1.3,0.5-2,0.5c0.7-0.4,1.2-1.1,1.5-1.9c-0.7,0.4-1.4,0.7-2.2,0.8
	c-0.6-0.7-1.5-1.1-2.5-1.1c-1.9,0-3.4,1.5-3.4,3.4c0,0.3,0,0.5,0.1,0.8c-2.8-0.1-5.4-1.5-7-3.6c-0.3,0.5-0.5,1.1-0.5,1.7
	c0,1.2,0.6,2.2,1.5,2.8c-0.6,0-1.1-0.2-1.5-0.4c0,0,0,0,0,0c0,1.7,1.2,3,2.7,3.4c-0.3,0.1-0.6,0.1-0.9,0.1c-0.2,0-0.4,0-0.6-0.1
	c0.4,1.4,1.7,2.3,3.2,2.4c-1.2,0.9-2.6,1.5-4.2,1.5c-0.3,0-0.5,0-0.8,0c1.5,1,3.3,1.5,5.2,1.5c6.3,0,9.7-5.2,9.7-9.7
	c0-0.1,0-0.3,0-0.4C73.3,6.4,73.9,5.8,74.3,5.1z"/>
<path fill="#FFFFFF" d="M17.2,11.8v2.3h2.7v2.8h-2.7V25h-3v-8.1h-2.7v-2.8h2.7v-3c0-1.8,1.7-3,3-3h3v2.5h-1.4
	C18.1,10.5,17.2,11.1,17.2,11.8z"/>
<path stroke="#CCCCCC" stroke-width="2" stroke-miterlimit="10" d="M-7.4,54.2c0,8.3-6.7,15-15,15c-8.3,0-15-6.7-15-15
	c0-8.3,6.7-15,15-15C-14.1,39.2-7.4,45.9-7.4,54.2z"/>
<path fill="#FFFFFF" d="M-21.7,49.4v2.3h2.7v2.8h-2.7v8.1h-3v-8.1h-2.7v-2.8h2.7v-3c0-1.8,1.7-3,3-3h3v2.5h-1.4
	C-20.8,48.2-21.7,48.8-21.7,49.4z"/>
</svg>
