<?xml version="1.0" encoding="utf-8"?>
<!-- Generator: Adobe Illustrator 16.0.0, SVG Export Plug-In . SVG Version: 6.00 Build 0)  -->
<!DOCTYPE svg PUBLIC "-//W3C//DTD SVG 1.1//EN" "http://www.w3.org/Graphics/SVG/1.1/DTD/svg11.dtd">
<svg version="1.1" id="Layer_1" xmlns="http://www.w3.org/2000/svg" xmlns:xlink="http://www.w3.org/1999/xlink" x="0px" y="0px"
	 width="195.797px" height="52.006px" viewBox="0 0 195.797 52.006" enable-background="new 0 0 195.797 52.006"
	 xml:space="preserve">
<g>
	<g>
		<path fill="#231F20" d="M127.914,30.788c-1.595,1.583-3.791,2.615-6.596,2.615c-2.801,0-4.997-1.032-6.589-2.615
			c-2.338-2.388-2.806-5.611-2.806-9.165c0-3.555,0.468-6.777,2.806-9.159c1.592-1.591,3.788-2.62,6.589-2.62
			c2.805,0,5.001,1.028,6.596,2.62c2.333,2.382,2.803,5.604,2.803,9.159C130.717,25.177,130.247,28.4,127.914,30.788z
			 M125.527,14.519c-1.074-1.074-2.572-1.683-4.209-1.683c-1.633,0-3.08,0.609-4.159,1.683c-1.678,1.682-1.869,4.539-1.869,7.105
			c0,2.572,0.19,5.421,1.869,7.105c1.079,1.078,2.526,1.686,4.159,1.686c1.637,0,3.135-0.608,4.209-1.686
			c1.681-1.684,1.821-4.533,1.821-7.105C127.348,19.057,127.208,16.201,125.527,14.519z"/>
		<path fill="#231F20" d="M168.053,11.995c-1.402-1.354-4.066-2.15-6.545-2.15h-0.003c-2.475,0-5.135,0.796-6.539,2.15
			c-0.302,0.29-0.566,0.609-0.813,0.939c-0.248-0.33-0.514-0.649-0.815-0.939c-1.406-1.354-4.062-2.15-6.544-2.15l0,0
			c-2.478,0-5.136,0.796-6.542,2.15c-1.636,1.59-2.473,3.74-2.473,6.405v14.725h3.359V18.959c0-4.067,2.198-6.121,5.656-6.124
			c3.46,0.003,5.657,2.057,5.657,6.124v14.166h3.404V18.959c0-4.067,2.199-6.121,5.654-6.124c3.458,0.003,5.654,2.057,5.654,6.124
			v14.166h3.369V18.4C170.531,15.735,169.689,13.585,168.053,11.995z"/>
		<path fill="#231F20" d="M34.22,30.494c3.458,0,5.656-2.056,5.656-6.126V10.205h3.365V24.93c0,2.665-0.838,4.817-2.479,6.407
			c-1.399,1.354-4.064,2.15-6.541,2.15H34.22c-2.478,0-5.138-0.797-6.54-2.15c-1.638-1.59-2.481-3.742-2.481-6.407V10.205h3.367
			v14.162C28.566,28.438,30.759,30.494,34.22,30.494L34.22,30.494z"/>
		<path fill="#231F20" d="M64.13,9.837h-3.526v0.008c-2.473,0.002-5.132,0.796-6.536,2.15c-1.635,1.59-2.478,3.74-2.478,6.405
			v14.725h3.367V18.959c0-4.064,2.195-6.121,5.656-6.124l0,0h3.516V9.837z"/>
		<path fill="#231F20" d="M105.866,21.006V0h-3.282v12.02c-1.542-1.334-3.572-2.175-6.104-2.175c-2.805,0-5.001,1.028-6.59,2.62
			c-2.336,2.382-2.803,5.604-2.803,9.159c0,3.554,0.466,6.777,2.803,9.165c1.589,1.583,3.785,2.615,6.59,2.615
			c2.803,0,5-1.032,6.591-2.615c2.335-2.388,2.8-5.611,2.8-9.165C105.871,21.417,105.866,21.213,105.866,21.006z M100.689,28.729
			c-1.076,1.078-2.572,1.686-4.209,1.686c-1.634,0-3.084-0.608-4.16-1.686c-1.681-1.684-1.872-4.533-1.872-7.105
			c0-2.566,0.191-5.423,1.872-7.105c1.076-1.074,2.526-1.683,4.16-1.683c1.638,0,3.133,0.609,4.209,1.683
			c1.681,1.682,1.818,4.539,1.818,7.105C102.507,24.195,102.371,27.045,100.689,28.729z"/>
		<path fill="#231F20" d="M196.007,22.585c0.005-0.313,0.014-0.635,0.014-0.962c0-3.555-0.468-6.777-2.804-9.159
			c-1.593-1.591-3.789-2.62-6.591-2.62c-2.809,0-5,1.028-6.592,2.62c-2.338,2.382-2.808,5.604-2.808,9.159
			c0,3.554,0.469,6.777,2.808,9.165c1.592,1.583,3.783,2.615,6.592,2.615c2.803,0,4.999-1.032,6.591-2.615
			c0.979-1.005,1.63-2.152,2.055-3.413h-3.497c-0.243,0.504-0.551,0.961-0.94,1.354c-1.076,1.078-2.576,1.686-4.208,1.686
			c-1.635,0-3.085-0.608-4.164-1.686c-1.476-1.476-1.8-3.848-1.856-6.143h12.039l0,0H196.007z M186.625,12.835
			c1.633,0,3.132,0.609,4.208,1.683c1.292,1.296,1.675,3.285,1.779,5.305h-11.97c0.119-2.02,0.526-4.009,1.818-5.305
			C183.541,13.444,184.99,12.835,186.625,12.835z"/>
		<path fill="#231F20" d="M86.193,0h-3.524l0,0c-2.805,0-5.001,1.031-6.593,2.617c-1.899,1.94-2.553,4.442-2.738,7.22h-4.09v2.999
			h4.034v20.568h3.288V12.835h5.544V9.837h-5.428c0.115-1.969,0.511-3.898,1.775-5.162c1.076-1.077,2.572-1.686,4.209-1.686V2.985
			h3.521V0z"/>
		<path fill="#231F20" d="M9.441,33.403c-3.881,0-6.92-0.886-9.441-3.317l2.242-2.246c1.823,1.919,4.299,2.662,7.153,2.662
			c3.783,0,6.119-1.352,6.119-4.066c0-2.007-1.168-3.131-3.831-3.362l-3.786-0.331C3.41,22.37,1.023,20.36,1.023,16.575
			c0-4.206,3.558-6.73,8.461-6.73c3.275,0,6.22,0.796,8.274,2.476l-2.196,2.198c-1.632-1.263-3.737-1.825-6.121-1.825
			c-3.365,0-5.145,1.45-5.145,3.792c0,1.961,1.125,3.129,4.022,3.359l3.692,0.333c4.021,0.372,6.776,1.916,6.776,6.213
			C18.786,30.834,15.001,33.403,9.441,33.403z"/>
	</g>
	<g>
		<path fill="#231F20" d="M127.914,30.788c-1.595,1.583-3.791,2.615-6.596,2.615c-2.801,0-4.997-1.032-6.589-2.615
			c-2.338-2.388-2.806-5.611-2.806-9.165c0-3.555,0.468-6.777,2.806-9.159c1.592-1.591,3.788-2.62,6.589-2.62
			c2.805,0,5.001,1.028,6.596,2.62c2.333,2.382,2.803,5.604,2.803,9.159C130.717,25.177,130.247,28.4,127.914,30.788z
			 M125.527,14.519c-1.074-1.074-2.572-1.683-4.209-1.683c-1.633,0-3.08,0.609-4.159,1.683c-1.678,1.682-1.869,4.539-1.869,7.105
			c0,2.572,0.19,5.421,1.869,7.105c1.079,1.078,2.526,1.686,4.159,1.686c1.637,0,3.135-0.608,4.209-1.686
			c1.681-1.684,1.821-4.533,1.821-7.105C127.348,19.057,127.208,16.201,125.527,14.519z"/>
		<path fill="#231F20" d="M168.053,11.995c-1.402-1.354-4.066-2.15-6.545-2.15h-0.003c-2.475,0-5.135,0.796-6.539,2.15
			c-0.302,0.29-0.566,0.609-0.813,0.939c-0.248-0.33-0.514-0.649-0.815-0.939c-1.406-1.354-4.062-2.15-6.544-2.15l0,0
			c-2.478,0-5.136,0.796-6.542,2.15c-1.636,1.59-2.473,3.74-2.473,6.405v14.725h3.359V18.959c0-4.067,2.198-6.121,5.656-6.124
			c3.46,0.003,5.657,2.057,5.657,6.124v14.166h3.404V18.959c0-4.067,2.199-6.121,5.654-6.124c3.458,0.003,5.654,2.057,5.654,6.124
			v14.166h3.369V18.4C170.531,15.735,169.689,13.585,168.053,11.995z"/>
		<path fill="#231F20" d="M34.22,30.494c3.458,0,5.656-2.056,5.656-6.126V10.205h3.365V24.93c0,2.665-0.838,4.817-2.479,6.407
			c-1.399,1.354-4.064,2.15-6.541,2.15H34.22c-2.478,0-5.138-0.797-6.54-2.15c-1.638-1.59-2.481-3.742-2.481-6.407V10.205h3.367
			v14.162C28.566,28.438,30.759,30.494,34.22,30.494L34.22,30.494z"/>
		<path fill="#231F20" d="M64.13,9.837h-3.526v0.008c-2.473,0.002-5.132,0.796-6.536,2.15c-1.635,1.59-2.478,3.74-2.478,6.405
			v14.725h3.367V18.959c0-4.064,2.195-6.121,5.656-6.124l0,0h3.516V9.837z"/>
		<path fill="#231F20" d="M105.866,21.006V0h-3.282v12.02c-1.542-1.334-3.572-2.175-6.104-2.175c-2.805,0-5.001,1.028-6.59,2.62
			c-2.336,2.382-2.803,5.604-2.803,9.159c0,3.554,0.466,6.777,2.803,9.165c1.589,1.583,3.785,2.615,6.59,2.615
			c2.803,0,5-1.032,6.591-2.615c2.335-2.388,2.8-5.611,2.8-9.165C105.871,21.417,105.866,21.213,105.866,21.006z M100.689,28.729
			c-1.076,1.078-2.572,1.686-4.209,1.686c-1.634,0-3.084-0.608-4.16-1.686c-1.681-1.684-1.872-4.533-1.872-7.105
			c0-2.566,0.191-5.423,1.872-7.105c1.076-1.074,2.526-1.683,4.16-1.683c1.638,0,3.133,0.609,4.209,1.683
			c1.681,1.682,1.818,4.539,1.818,7.105C102.507,24.195,102.371,27.045,100.689,28.729z"/>
		<path fill="#231F20" d="M196.007,22.585c0.005-0.313,0.014-0.635,0.014-0.962c0-3.555-0.468-6.777-2.804-9.159
			c-1.593-1.591-3.789-2.62-6.591-2.62c-2.809,0-5,1.028-6.592,2.62c-2.338,2.382-2.808,5.604-2.808,9.159
			c0,3.554,0.469,6.777,2.808,9.165c1.592,1.583,3.783,2.615,6.592,2.615c2.803,0,4.999-1.032,6.591-2.615
			c0.979-1.005,1.63-2.152,2.055-3.413h-3.497c-0.243,0.504-0.551,0.961-0.94,1.354c-1.076,1.078-2.576,1.686-4.208,1.686
			c-1.635,0-3.085-0.608-4.164-1.686c-1.476-1.476-1.8-3.848-1.856-6.143h12.039l0,0H196.007z M186.625,12.835
			c1.633,0,3.132,0.609,4.208,1.683c1.292,1.296,1.675,3.285,1.779,5.305h-11.97c0.119-2.02,0.526-4.009,1.818-5.305
			C183.541,13.444,184.99,12.835,186.625,12.835z"/>
		<path fill="#231F20" d="M86.193,0h-3.524l0,0c-2.805,0-5.001,1.031-6.593,2.617c-1.899,1.94-2.553,4.442-2.738,7.22h-4.09v2.999
			h4.034v20.568h3.288V12.835h5.544V9.837h-5.428c0.115-1.969,0.511-3.898,1.775-5.162c1.076-1.077,2.572-1.686,4.209-1.686V2.985
			h3.521V0z"/>
		<path fill="#231F20" d="M9.441,33.403c-3.881,0-6.92-0.886-9.441-3.317l2.242-2.246c1.823,1.919,4.299,2.662,7.153,2.662
			c3.783,0,6.119-1.352,6.119-4.066c0-2.007-1.168-3.131-3.831-3.362l-3.786-0.331C3.41,22.37,1.023,20.36,1.023,16.575
			c0-4.206,3.558-6.73,8.461-6.73c3.275,0,6.22,0.796,8.274,2.476l-2.196,2.198c-1.632-1.263-3.737-1.825-6.121-1.825
			c-3.365,0-5.145,1.45-5.145,3.792c0,1.961,1.125,3.129,4.022,3.359l3.692,0.333c4.021,0.372,6.776,1.916,6.776,6.213
			C18.786,30.834,15.001,33.403,9.441,33.403z"/>
	</g>
</g>
<g>
	<path fill="#231F20" stroke="#231F20" stroke-miterlimit="10" d="M3.017,48.824l-2.898-4.336h1.207l1.481,2.268
		c0.119,0.189,0.217,0.347,0.294,0.473c0.077,0.126,0.15,0.245,0.22,0.356c0.007,0.008,0.012,0.017,0.016,0.026
		c0.004,0.011,0.009,0.023,0.016,0.037c0.035,0.056,0.07,0.117,0.105,0.184c0.035,0.066,0.073,0.135,0.115,0.205
		c0.035-0.063,0.072-0.126,0.11-0.189c0.039-0.062,0.075-0.126,0.11-0.188c0.014-0.015,0.024-0.03,0.031-0.048
		c0.007-0.018,0.018-0.033,0.032-0.047c0.126-0.21,0.243-0.399,0.352-0.567s0.17-0.263,0.184-0.283l1.459-2.226h1.155l-2.992,4.336
		v3.182H3.017V48.824z"/>
	<path fill="#231F20" stroke="#231F20" stroke-miterlimit="10" d="M10.535,48.342c0-1.33,0.357-2.324,1.071-2.982
		s1.558-0.987,2.531-0.987c1.022,0,1.875,0.347,2.562,1.04c0.686,0.692,1.029,1.645,1.029,2.855c0,1.219-0.348,2.167-1.045,2.846
		c-0.696,0.679-1.545,1.019-2.546,1.019c-1.176,0-2.07-0.39-2.683-1.171c-0.612-0.78-0.918-1.65-0.918-2.609V48.342z M11.564,48.362
		c0,0.875,0.236,1.582,0.709,2.121c0.472,0.539,1.09,0.809,1.853,0.809c0.686,0,1.286-0.245,1.801-0.735
		c0.515-0.489,0.772-1.253,0.772-2.289c0-1.077-0.265-1.854-0.793-2.331c-0.529-0.476-1.115-0.714-1.759-0.714
		c-0.399,0-0.784,0.086-1.155,0.258c-0.371,0.171-0.669,0.422-0.893,0.75c-0.084,0.112-0.154,0.233-0.21,0.362
		c-0.056,0.13-0.105,0.261-0.147,0.395c-0.091,0.301-0.144,0.586-0.158,0.855s-0.021,0.446-0.021,0.53V48.362z"/>
	<path fill="#231F20" stroke="#231F20" stroke-miterlimit="10" d="M28.626,44.488v4.347c0,0.188-0.005,0.409-0.016,0.661
		c-0.01,0.252-0.051,0.508-0.121,0.767c-0.126,0.469-0.39,0.897-0.793,1.286c-0.402,0.389-1.073,0.583-2.011,0.583
		c-1.078,0-1.813-0.232-2.205-0.698c-0.392-0.466-0.627-0.979-0.704-1.538c-0.028-0.182-0.046-0.362-0.053-0.541
		s-0.01-0.348-0.01-0.509v-4.357h0.998v4.336c0,0.133,0.001,0.275,0.005,0.426c0.004,0.15,0.016,0.299,0.037,0.446
		c0.056,0.392,0.208,0.749,0.457,1.07c0.249,0.322,0.712,0.483,1.391,0.483c0.924,0,1.493-0.232,1.707-0.698
		c0.213-0.466,0.32-1.038,0.32-1.717v-4.347H28.626z"/>
	<path fill="#231F20" stroke="#231F20" stroke-miterlimit="10" d="M33.981,44.488h3.329c0.21,0.007,0.415,0.016,0.614,0.025
		c0.2,0.011,0.397,0.041,0.593,0.09c0.049,0.014,0.098,0.028,0.147,0.042s0.098,0.031,0.147,0.053
		c0.385,0.147,0.677,0.397,0.877,0.749c0.199,0.353,0.299,0.726,0.299,1.119c0,0.602-0.191,1.067-0.572,1.399
		c-0.382,0.332-0.895,0.54-1.539,0.624v0.01c0.189,0.098,0.399,0.238,0.63,0.42c0.231,0.182,0.493,0.499,0.787,0.953l1.312,2.033
		h-1.25l-0.987-1.554c-0.322-0.497-0.59-0.868-0.803-1.113c-0.214-0.245-0.415-0.413-0.604-0.504
		c-0.126-0.063-0.255-0.102-0.388-0.115c-0.133-0.015-0.284-0.021-0.452-0.021h-1.145v3.308h-0.998V44.488z M34.979,47.795h2.279
		c0.084,0.008,0.175,0.01,0.273,0.006c0.098-0.004,0.199-0.016,0.304-0.036c0.14-0.021,0.276-0.056,0.41-0.104
		c0.133-0.049,0.245-0.118,0.336-0.208c0.119-0.118,0.212-0.254,0.278-0.406s0.1-0.312,0.1-0.479c0-0.241-0.056-0.453-0.168-0.635
		s-0.249-0.315-0.41-0.4c-0.154-0.086-0.315-0.143-0.483-0.171s-0.35-0.043-0.546-0.043h-2.373V47.795z"/>
	<path fill="#231F20" d="M51.779,44.488h0.998v6.625h3.707v0.893h-4.704V44.488z"/>
	<path fill="#231F20" d="M61.47,44.488h0.998v7.518H61.47V44.488z"/>
	<path fill="#231F20" d="M67.938,44.488h5.072v0.892h-4.074v2.331h3.528v0.893h-3.528v3.402h-0.998V44.488z"/>
	<path fill="#231F20" d="M78.018,44.488h5.439v0.892h-4.441v2.3h4.158v0.893h-4.158v2.541h4.62v0.893h-5.617V44.488z"/>
	<path fill="#231F20" d="M88.34,49.591l0.945-0.084c0.007,0.077,0.019,0.172,0.037,0.283c0.018,0.112,0.047,0.228,0.089,0.347
		c0.014,0.021,0.026,0.044,0.037,0.068c0.011,0.024,0.023,0.051,0.037,0.079c0.119,0.224,0.278,0.402,0.478,0.535
		s0.408,0.231,0.625,0.294c0.168,0.057,0.332,0.093,0.493,0.11s0.301,0.026,0.42,0.026c0.518,0,0.959-0.108,1.323-0.325
		c0.364-0.218,0.546-0.536,0.546-0.956c0-0.35-0.119-0.609-0.357-0.777c-0.238-0.168-0.599-0.318-1.082-0.451
		c-0.126-0.035-0.259-0.069-0.399-0.104s-0.287-0.07-0.441-0.105c-0.126-0.027-0.257-0.06-0.394-0.095
		c-0.136-0.034-0.274-0.076-0.415-0.126c-0.413-0.133-0.791-0.336-1.134-0.608c-0.343-0.273-0.514-0.689-0.514-1.25
		c0-0.581,0.231-1.072,0.693-1.475c0.462-0.403,1.109-0.604,1.942-0.604c0.812,0,1.479,0.191,2,0.572
		c0.521,0.382,0.796,0.943,0.824,1.686l-0.956,0.062c-0.007-0.069-0.02-0.148-0.037-0.235c-0.018-0.088-0.041-0.177-0.068-0.269
		c-0.091-0.23-0.261-0.442-0.509-0.635s-0.653-0.289-1.213-0.289c-0.091,0-0.19,0.004-0.299,0.011
		c-0.108,0.007-0.219,0.024-0.331,0.053c-0.273,0.049-0.525,0.153-0.756,0.314s-0.347,0.41-0.347,0.746
		c0,0.279,0.093,0.497,0.278,0.65c0.186,0.154,0.523,0.298,1.013,0.431c0.077,0.015,0.158,0.031,0.242,0.053
		c0.084,0.021,0.171,0.042,0.262,0.062c0.077,0.015,0.154,0.03,0.231,0.048c0.077,0.018,0.158,0.036,0.242,0.058
		c0.616,0.146,1.183,0.367,1.701,0.661c0.518,0.294,0.777,0.809,0.777,1.544c0,0.623-0.25,1.151-0.751,1.585
		c-0.5,0.435-1.178,0.651-2.032,0.651c-0.903,0-1.582-0.152-2.037-0.457c-0.455-0.304-0.781-0.688-0.977-1.149
		c-0.084-0.203-0.135-0.383-0.152-0.541c-0.018-0.157-0.03-0.285-0.037-0.383V49.591z"/>
	<path fill="#231F20" d="M101.244,45.38h-2.468v-0.892h5.954v0.892h-2.489v6.626h-0.997V45.38z"/>
	<path fill="#231F20" d="M111.586,48.824l-2.897-4.336h1.207l1.48,2.268c0.119,0.189,0.217,0.347,0.294,0.473
		s0.15,0.245,0.221,0.356c0.007,0.008,0.013,0.017,0.016,0.026c0.004,0.011,0.009,0.023,0.016,0.037
		c0.035,0.056,0.07,0.117,0.105,0.184s0.073,0.135,0.115,0.205c0.035-0.063,0.072-0.126,0.11-0.189
		c0.038-0.062,0.075-0.126,0.11-0.188c0.014-0.015,0.024-0.03,0.031-0.048s0.018-0.033,0.031-0.047
		c0.126-0.21,0.243-0.399,0.353-0.567c0.108-0.168,0.169-0.263,0.184-0.283l1.459-2.226h1.155l-2.992,4.336v3.182h-0.998V48.824z"/>
	<path fill="#231F20" d="M120.102,44.488h0.998v6.625h3.706v0.893h-4.704V44.488z"/>
	<path fill="#231F20" d="M129.656,44.488h5.439v0.892h-4.441v2.3h4.158v0.893h-4.158v2.541h4.62v0.893h-5.618V44.488z"/>
	<path fill="#231F20" d="M146.572,49.591l0.945-0.084c0.007,0.077,0.019,0.172,0.036,0.283c0.018,0.112,0.048,0.228,0.09,0.347
		c0.014,0.021,0.025,0.044,0.036,0.068s0.022,0.051,0.037,0.079c0.119,0.224,0.278,0.402,0.478,0.535s0.408,0.231,0.625,0.294
		c0.168,0.057,0.332,0.093,0.493,0.11s0.301,0.026,0.42,0.026c0.519,0,0.959-0.108,1.323-0.325c0.364-0.218,0.546-0.536,0.546-0.956
		c0-0.35-0.119-0.609-0.357-0.777c-0.237-0.168-0.598-0.318-1.081-0.451c-0.126-0.035-0.259-0.069-0.399-0.104
		c-0.14-0.035-0.287-0.07-0.44-0.105c-0.126-0.027-0.258-0.06-0.394-0.095c-0.137-0.034-0.275-0.076-0.415-0.126
		c-0.413-0.133-0.791-0.336-1.134-0.608c-0.344-0.273-0.515-0.689-0.515-1.25c0-0.581,0.23-1.072,0.693-1.475
		c0.462-0.403,1.109-0.604,1.942-0.604c0.812,0,1.479,0.191,2,0.572c0.521,0.382,0.796,0.943,0.824,1.686l-0.955,0.062
		c-0.008-0.069-0.02-0.148-0.037-0.235c-0.018-0.088-0.04-0.177-0.068-0.269c-0.091-0.23-0.261-0.442-0.509-0.635
		c-0.249-0.192-0.653-0.289-1.213-0.289c-0.092,0-0.191,0.004-0.3,0.011s-0.219,0.024-0.33,0.053
		c-0.273,0.049-0.525,0.153-0.757,0.314c-0.23,0.161-0.346,0.41-0.346,0.746c0,0.279,0.092,0.497,0.278,0.65
		c0.185,0.154,0.522,0.298,1.013,0.431c0.077,0.015,0.157,0.031,0.241,0.053c0.084,0.021,0.172,0.042,0.263,0.062
		c0.077,0.015,0.154,0.03,0.231,0.048s0.157,0.036,0.241,0.058c0.616,0.146,1.183,0.367,1.701,0.661
		c0.518,0.294,0.776,0.809,0.776,1.544c0,0.623-0.25,1.151-0.75,1.585c-0.501,0.435-1.178,0.651-2.032,0.651
		c-0.902,0-1.582-0.152-2.037-0.457c-0.455-0.304-0.78-0.688-0.977-1.149c-0.084-0.203-0.135-0.383-0.152-0.541
		c-0.018-0.157-0.029-0.285-0.036-0.383V49.591z"/>
	<path fill="#231F20" d="M159.477,45.38h-2.467v-0.892h5.953v0.892h-2.488v6.626h-0.998V45.38z"/>
	<path fill="#231F20" d="M166.742,48.342c0-1.33,0.357-2.324,1.071-2.982s1.558-0.987,2.53-0.987c1.022,0,1.876,0.347,2.562,1.04
		c0.686,0.692,1.028,1.645,1.028,2.855c0,1.219-0.348,2.167-1.044,2.846c-0.697,0.679-1.546,1.019-2.547,1.019
		c-1.176,0-2.07-0.39-2.683-1.171c-0.612-0.78-0.919-1.65-0.919-2.609V48.342z M167.771,48.362c0,0.875,0.236,1.582,0.709,2.121
		s1.09,0.809,1.854,0.809c0.686,0,1.286-0.245,1.8-0.735c0.515-0.489,0.772-1.253,0.772-2.289c0-1.077-0.265-1.854-0.793-2.331
		c-0.528-0.476-1.115-0.714-1.759-0.714c-0.399,0-0.784,0.086-1.155,0.258c-0.371,0.171-0.668,0.422-0.893,0.75
		c-0.084,0.112-0.153,0.233-0.21,0.362c-0.056,0.13-0.104,0.261-0.146,0.395c-0.091,0.301-0.144,0.586-0.157,0.855
		c-0.015,0.27-0.021,0.446-0.021,0.53V48.362z"/>
	<path fill="#231F20" d="M178.933,44.488h3.329c0.211,0.007,0.414,0.016,0.615,0.025c0.199,0.011,0.396,0.041,0.592,0.09
		c0.049,0.014,0.098,0.028,0.148,0.042c0.049,0.014,0.098,0.031,0.146,0.053c0.385,0.147,0.678,0.397,0.877,0.749
		c0.199,0.353,0.299,0.726,0.299,1.119c0,0.602-0.191,1.067-0.572,1.399s-0.895,0.54-1.539,0.624v0.01
		c0.189,0.098,0.4,0.238,0.631,0.42s0.494,0.499,0.787,0.953l1.312,2.033h-1.25l-0.986-1.554c-0.322-0.497-0.59-0.868-0.803-1.113
		c-0.215-0.245-0.416-0.413-0.604-0.504c-0.127-0.063-0.256-0.102-0.389-0.115c-0.133-0.015-0.283-0.021-0.451-0.021h-1.145v3.308
		h-0.999V44.488z M179.931,47.795h2.277c0.084,0.008,0.176,0.01,0.273,0.006s0.199-0.016,0.305-0.036
		c0.139-0.021,0.275-0.056,0.408-0.104c0.135-0.049,0.246-0.118,0.338-0.208c0.117-0.118,0.211-0.254,0.277-0.406
		s0.1-0.312,0.1-0.479c0-0.241-0.057-0.453-0.168-0.635s-0.248-0.315-0.41-0.4c-0.154-0.086-0.314-0.143-0.482-0.171
		s-0.35-0.043-0.545-0.043h-2.373V47.795z"/>
	<path fill="#231F20" d="M190.177,44.488h5.44v0.892h-4.441v2.3h4.158v0.893h-4.158v2.541h4.621v0.893h-5.62V44.488z"/>
</g>
</svg>
