<?xml version="1.0" encoding="iso-8859-1"?>
<!-- Generator: Adobe Illustrator 16.0.0, SVG Export Plug-In . SVG Version: 6.00 Build 0)  -->
<!DOCTYPE svg PUBLIC "-//W3C//DTD SVG 1.1//EN" "http://www.w3.org/Graphics/SVG/1.1/DTD/svg11.dtd">
<svg version="1.1" xmlns="http://www.w3.org/2000/svg" xmlns:xlink="http://www.w3.org/1999/xlink" x="0px" y="0px" width="100px"
	 height="50px" viewBox="0 0 100 50" style="enable-background:new 0 0 100 50;" xml:space="preserve">
<g id="Layer_1" style="display:none;">
	<rect style="display:inline;" width="100" height="50"/>
</g>
<g id="vans" style="display:none;">
	<g style="display:inline;">
		<polygon style="fill-rule:evenodd;clip-rule:evenodd;fill:#FFFFFF;" points="5,0 14.563,0 19.862,30 25.032,0 90.555,0 
			88.358,8.617 33.044,8.617 24.644,48.084 15.081,48.084 5,0 		"/>
		<path style="fill-rule:evenodd;clip-rule:evenodd;fill:#FFFFFF;" d="M92.236,36.914c0.258,4.68-2.974,11.809-10.082,11.809
			c-8.271,0-10.08-8.404-10.08-11.915h6.721c0,2.021,2.068,4.042,3.619,4.042s3.102-1.596,3.102-2.66
			c0-1.062-0.518-2.658-2.973-4.041c-8.014-3.937-9.822-8.511-9.822-12.447c-0.259-4.681,2.455-11.595,9.563-11.595
			s9.046,8.191,9.046,11.595h-6.332c0-1.915-1.551-3.298-3.102-3.298s-2.584,1.276-2.584,2.341c0,1.063,0.258,2.021,2.713,3.404
			C85.386,25.425,92.236,29.574,92.236,36.914L92.236,36.914z"/>
		<path style="fill-rule:evenodd;clip-rule:evenodd;fill:#FFFFFF;" d="M92.619,45.362c1.146,0,2.071,0.925,2.071,2.071
			c0,1.16-0.925,2.084-2.071,2.084c-1.152,0-2.084-0.924-2.084-2.084C90.535,46.287,91.467,45.362,92.619,45.362v-0.481
			c-1.419,0-2.566,1.146-2.566,2.553c0,1.42,1.147,2.566,2.566,2.566c1.407,0,2.554-1.146,2.554-2.566
			c0-1.406-1.146-2.553-2.554-2.553V45.362L92.619,45.362z"/>
		<path style="fill-rule:evenodd;clip-rule:evenodd;fill:#FFFFFF;" d="M92.105,46.476h0.67c0.268,0,0.658,0,0.658,0.358
			c0,0.352-0.215,0.424-0.521,0.417h-0.807v0.41h0.54l0.612,1.173h0.632l-0.671-1.173c0.488-0.032,0.756-0.241,0.756-0.741
			c0-0.288-0.078-0.555-0.326-0.717c-0.209-0.131-0.515-0.137-0.749-0.137h-1.335v2.768h0.541V46.476L92.105,46.476z"/>
		<path style="fill-rule:evenodd;clip-rule:evenodd;fill:#FFFFFF;" d="M36.405,35.318l2.585-13.83l2.585,13.83H36.405L36.405,35.318
			z M34.854,43.084h8.013l1.034,5h12.794V28.297l7.883,19.787h6.592V11.276h-6.721V30l-7.496-18.724h-6.978V45.85l-7.238-34.573
			h-7.496l-7.754,36.808h6.591L34.854,43.084L34.854,43.084z"/>
	</g>
</g>
<g id="levis" style="display:none;">
	<g style="display:inline;">
		<path style="fill:#FFFFFF;" d="M32.205,13.407c-2.281,0-2.765,1.313-2.765,3.663h5.529C34.969,14.443,34.416,13.407,32.205,13.407
			z"/>
		<path style="fill:#FFFFFF;" d="M81.479,42.847c-1.657,0-3.04,1.383-3.04,3.042c0,1.728,1.383,3.04,3.04,3.04
			c1.659,0,3.041-1.382,3.041-3.04C84.52,44.229,83.138,42.847,81.479,42.847z M81.479,48.444c-1.382,0-2.557-1.174-2.557-2.556
			s1.105-2.489,2.557-2.489c1.452,0,2.558,1.107,2.558,2.489S82.931,48.444,81.479,48.444z"/>
		<path style="fill:#FFFFFF;" d="M82.724,45.335c0-0.761-0.622-0.967-1.452-0.967h-0.829v3.041h0.622V46.51h0.483l0.483,0.899h0.553
			l-0.553-1.176C82.517,45.956,82.724,45.681,82.724,45.335z M81.064,45.749v-0.76c0.69,0,0.967,0.139,0.967,0.346
			C82.031,45.749,81.548,45.749,81.064,45.749z"/>
		<path style="fill:#FFFFFF;" d="M59.779,0h-0.068H0l8.776,43.054c6.22-2.972,13.546-5.044,21.631-5.044
			c6.565,0,13.407,1.52,19.696,4.354c2.004-1.105,5.045-2.281,9.676-3.456v-0.012c3.154-0.546,6.182-0.955,10.642-0.955
			c8.225,0,13.892,1.521,20.111,5.113L100,0H59.779z M23.151,26.538H12.509V10.781h5.321v12.025h5.321V26.538z M32.412,24.119
			c2.073,0,2.557-0.622,2.557-1.935h4.976c-0.138,3.248-2.212,5.321-7.878,5.321c-5.736,0-8.224-2.833-8.224-8.777
			c0-6.081,1.797-8.431,8.569-8.431c6.22,0,7.879,2.903,7.879,9.882H29.44C29.44,23.082,29.993,24.119,32.412,24.119z
			 M53.006,26.538h-6.564l-6.013-15.757h5.806l3.594,10.297l3.663-10.297h5.666L53.006,26.538z M65.86,26.538h-5.183V10.711h5.183
			V26.538z M69.524,13.338l0.275-1.59c-1.313,0-2.28-0.208-2.28-1.659c0-1.105,0.829-1.866,2.142-1.866
			c1.313,0,2.212,0.691,2.212,2.004C71.873,11.402,71.182,12.301,69.524,13.338z M79.752,26.883c-6.081,0-8.086-1.521-8.156-5.321
			h5.6c0.137,1.797,1.243,2.488,3.039,2.488c1.521,0,2.144-0.553,2.144-1.728c0-3.871-10.505-0.208-10.505-7.05
			c0-3.455,2.558-4.976,8.087-4.976c5.319,0,7.256,1.521,7.324,4.837h-5.321c-0.347-1.313-0.898-1.935-2.35-1.935
			c-1.383,0-2.418,0.76-2.418,1.658c0,3.732,10.503,0.622,10.503,6.842C87.698,25.639,85.419,26.883,79.752,26.883z"/>
	</g>
</g>
<g id="gstar">
	<g id="_x3C_g-star_raw_x3E_">
		<path style="fill:#FFFFFF;" d="M99.975,22.38c-0.001,1.728-0.942,3.237-2.341,4.039L100,31.732h-3.854l-2.092-4.699h-6.743v4.699
			h-3.527V16.643h11.536c2.571,0,4.654,2.083,4.654,4.654L99.975,22.38z M95.319,23.505c0.621-0.001,1.125-0.504,1.126-1.125v-1.082
			c-0.001-0.622-0.504-1.124-1.126-1.125h-8.009v3.333H95.319z"/>
		<path style="fill:#FFFFFF;" d="M63.636,21.298c0-2.571,2.084-4.655,4.654-4.655h8.097c2.569,0,4.653,2.083,4.653,4.655v10.434
			h-3.528v-4.698H67.164v4.7h-3.528V21.298z M77.512,21.298c-0.001-0.622-0.504-1.125-1.126-1.125H68.29
			c-0.622,0-1.124,0.503-1.126,1.125v2.207h10.348V21.298z"/>
		<path style="fill:#FFFFFF;" d="M62.535,16.643v3.528h-5.844l-0.003,11.563h-3.595V20.171h-5.841l-0.001-3.528H62.535z"/>
		<path style="fill:#FFFFFF;" d="M33.016,21.298c0.001,0.622,0.504,1.125,1.126,1.125h7.326c2.571,0,4.655,2.085,4.655,4.655
			c0,2.571-2.084,4.653-4.655,4.655l-11.427-0.002v-3.527h11.427c0.623-0.001,1.125-0.504,1.126-1.126
			c-0.001-0.622-0.504-1.126-1.126-1.126h-7.325c-2.571,0-4.655-2.084-4.655-4.655s2.084-4.655,4.655-4.655h10.96v3.528l-10.961,0
			C33.52,20.173,33.017,20.677,33.016,21.298z"/>
		<path style="fill:#FFFFFF;" d="M20.67,22.423h5.609v3.529H20.67V22.423z"/>
		<path style="fill:#FFFFFF;" d="M4.655,31.734C2.084,31.732,0,29.648,0,27.078v-5.781c0-2.571,2.083-4.654,4.654-4.654h12.558
			v3.529H4.655c-0.622,0.001-1.125,0.504-1.126,1.125l0,5.781c0,0.623,0.504,1.125,1.126,1.126h8.236
			c0.622-0.001,1.125-0.503,1.126-1.126v-1.126H8.681v-3.528h8.864v4.654c0,2.57-2.084,4.654-4.654,4.656H4.655z"/>
	</g>
	<g>
	</g>
	<g>
	</g>
	<g>
	</g>
	<g>
	</g>
	<g>
	</g>
	<g>
	</g>
</g>
</svg>
