<?xml version="1.0" encoding="iso-8859-1"?>
<!-- Generator: Adobe Illustrator 16.0.0, SVG Export Plug-In . SVG Version: 6.00 Build 0)  -->
<!DOCTYPE svg PUBLIC "-//W3C//DTD SVG 1.1//EN" "http://www.w3.org/Graphics/SVG/1.1/DTD/svg11.dtd">
<svg version="1.1" id="Layer_1" xmlns="http://www.w3.org/2000/svg" xmlns:xlink="http://www.w3.org/1999/xlink" x="0px" y="0px"
	 width="100px" height="50px" viewBox="0 0 100 50" style="enable-background:new 0 0 100 50;" xml:space="preserve">
<g id="Layer_1_1_" style="display:none;">
	<rect style="display:inline;" width="100" height="50"/>
</g>
<g id="vans">
	<g>
		<polygon style="fill:#FFFFFF;" points="5,8.5 14.563,8.5 19.862,28.032 25.032,8.5 90.555,8.5 88.357,14.11 33.044,14.11 
			24.644,39.808 15.081,39.808 		"/>
		<path style="fill:#FFFFFF;" d="M92.236,32.534c0.258,3.047-2.975,7.688-10.082,7.688c-8.271,0-10.08-5.472-10.08-7.758h6.721
			c0,1.316,2.068,2.632,3.619,2.632s3.102-1.039,3.102-1.732c0-0.69-0.518-1.729-2.973-2.631c-8.014-2.563-9.822-5.541-9.822-8.104
			c-0.259-3.047,2.455-7.549,9.563-7.549s9.046,5.333,9.046,7.549h-6.332c0-1.247-1.551-2.147-3.102-2.147s-2.584,0.831-2.584,1.524
			c0,0.692,0.258,1.316,2.713,2.216C85.387,25.054,92.236,27.756,92.236,32.534L92.236,32.534z"/>
		<path style="fill:#FFFFFF;" d="M92.619,38.361c1.146,0,2.07,0.926,2.07,2.072c0,1.159-0.924,2.084-2.07,2.084
			c-1.152,0-2.084-0.925-2.084-2.084C90.535,39.287,91.467,38.361,92.619,38.361v-0.48c-1.419,0-2.566,1.146-2.566,2.553
			c0,1.42,1.147,2.566,2.566,2.566c1.406,0,2.554-1.146,2.554-2.566c0-1.406-1.146-2.553-2.554-2.553V38.361L92.619,38.361z"/>
		<path style="fill:#FFFFFF;" d="M92.105,39.477h0.67c0.268,0,0.658,0,0.658,0.357c0,0.352-0.216,0.424-0.521,0.417h-0.807v0.41
			h0.539l0.612,1.173h0.632l-0.671-1.173c0.488-0.032,0.757-0.241,0.757-0.741c0-0.288-0.078-0.555-0.326-0.717
			c-0.209-0.131-0.516-0.137-0.75-0.137h-1.334v2.768h0.541V39.477L92.105,39.477z"/>
		<path style="fill:#FFFFFF;" d="M36.405,31.495l2.585-9.004l2.585,9.004H36.405L36.405,31.495z M34.854,36.552h8.013l1.034,3.256
			h12.794V26.924l7.883,12.884h6.592V15.841h-6.721v12.191l-7.496-12.191h-6.978v22.511l-7.238-22.51h-7.496l-7.754,23.965h6.591
			L34.854,36.552L34.854,36.552z"/>
	</g>
</g>
<g id="levis" style="display:none;">
	<g style="display:inline;">
		<path style="fill:#FFFFFF;" d="M32.205,13.407c-2.281,0-2.765,1.313-2.765,3.663h5.529C34.969,14.443,34.416,13.407,32.205,13.407
			z"/>
		<path style="fill:#FFFFFF;" d="M81.479,42.848c-1.656,0-3.039,1.383-3.039,3.041c0,1.729,1.383,3.041,3.039,3.041
			c1.66,0,3.041-1.383,3.041-3.041C84.52,44.229,83.139,42.848,81.479,42.848z M81.479,48.443c-1.381,0-2.557-1.174-2.557-2.555
			c0-1.383,1.105-2.49,2.557-2.49c1.453,0,2.559,1.107,2.559,2.49C84.037,47.27,82.932,48.443,81.479,48.443z"/>
		<path style="fill:#FFFFFF;" d="M82.725,45.335c0-0.761-0.623-0.967-1.453-0.967h-0.828v3.041h0.621V46.51h0.483l0.483,0.899h0.553
			l-0.553-1.177C82.518,45.956,82.725,45.682,82.725,45.335z M81.064,45.749v-0.76c0.689,0,0.967,0.139,0.967,0.346
			C82.031,45.749,81.548,45.749,81.064,45.749z"/>
		<path style="fill:#FFFFFF;" d="M59.779,0h-0.068H0l8.776,43.055c6.22-2.973,13.546-5.045,21.631-5.045
			c6.565,0,13.407,1.52,19.696,4.354c2.004-1.105,5.045-2.281,9.676-3.456v-0.012c3.154-0.547,6.182-0.955,10.642-0.955
			c8.226,0,13.892,1.521,20.111,5.113L100,0H59.779z M23.151,26.538H12.509V10.781h5.321v12.025h5.321V26.538z M32.412,24.119
			c2.073,0,2.557-0.622,2.557-1.935h4.976c-0.138,3.248-2.212,5.321-7.878,5.321c-5.736,0-8.224-2.833-8.224-8.777
			c0-6.081,1.797-8.431,8.569-8.431c6.22,0,7.879,2.903,7.879,9.882H29.44C29.44,23.082,29.993,24.119,32.412,24.119z
			 M53.006,26.538h-6.564l-6.013-15.757h5.806l3.594,10.297l3.663-10.297h5.666L53.006,26.538z M65.859,26.538h-5.183V10.711h5.183
			V26.538z M69.523,13.338l0.275-1.59c-1.312,0-2.279-0.208-2.279-1.659c0-1.105,0.828-1.866,2.142-1.866s2.212,0.691,2.212,2.004
			C71.873,11.402,71.182,12.301,69.523,13.338z M79.752,26.883c-6.081,0-8.086-1.521-8.156-5.321h5.6
			c0.138,1.797,1.244,2.488,3.039,2.488c1.521,0,2.145-0.553,2.145-1.728c0-3.871-10.505-0.208-10.505-7.05
			c0-3.455,2.558-4.976,8.087-4.976c5.318,0,7.256,1.521,7.324,4.837h-5.321c-0.347-1.313-0.897-1.935-2.351-1.935
			c-1.383,0-2.418,0.76-2.418,1.658c0,3.732,10.504,0.622,10.504,6.842C87.698,25.639,85.419,26.883,79.752,26.883z"/>
	</g>
</g>
<g id="gstar" style="display:none;">
	<g id="_x3C_g-star_raw_x3E_" style="display:inline;">
		<path style="fill:#FFFFFF;" d="M99.975,22.38c0,1.728-0.941,3.237-2.341,4.039L100,31.732h-3.854l-2.092-4.699h-6.744v4.699
			h-3.526V16.643H95.32c2.57,0,4.654,2.083,4.654,4.654V22.38z M95.318,23.505c0.621-0.001,1.125-0.504,1.127-1.125v-1.082
			c-0.002-0.622-0.504-1.124-1.127-1.125h-8.008v3.333L95.318,23.505L95.318,23.505z"/>
		<path style="fill:#FFFFFF;" d="M63.637,21.298c0-2.571,2.084-4.655,4.653-4.655h8.097c2.569,0,4.653,2.083,4.653,4.655v10.435
			h-3.528v-4.698H67.164v4.7h-3.527V21.298z M77.512,21.298c0-0.622-0.504-1.125-1.125-1.125H68.29
			c-0.622,0-1.124,0.503-1.126,1.125v2.207h10.348V21.298z"/>
		<path style="fill:#FFFFFF;" d="M62.535,16.643v3.528h-5.844l-0.004,11.563h-3.595V20.171h-5.841l-0.001-3.528H62.535z"/>
		<path style="fill:#FFFFFF;" d="M33.016,21.298c0.001,0.622,0.504,1.125,1.126,1.125h7.326c2.571,0,4.655,2.085,4.655,4.655
			s-2.084,4.652-4.655,4.654L30.041,31.73v-3.526h11.427c0.623-0.001,1.125-0.504,1.126-1.126c-0.001-0.622-0.504-1.126-1.126-1.126
			h-7.325c-2.571,0-4.655-2.084-4.655-4.655c0-2.571,2.084-4.655,4.655-4.655h10.96v3.528H34.142
			C33.52,20.173,33.017,20.677,33.016,21.298z"/>
		<path style="fill:#FFFFFF;" d="M20.67,22.423h5.609v3.529H20.67V22.423z"/>
		<path style="fill:#FFFFFF;" d="M4.655,31.734C2.084,31.732,0,29.648,0,27.078v-5.781c0-2.571,2.083-4.654,4.654-4.654h12.558
			v3.529H4.655c-0.622,0.001-1.125,0.504-1.126,1.125v5.781c0,0.623,0.504,1.125,1.126,1.126h8.236
			c0.622-0.001,1.125-0.503,1.126-1.126v-1.126H8.681v-3.528h8.864v4.654c0,2.57-2.084,4.654-4.654,4.656H4.655z"/>
	</g>
</g>
</svg>
